<?xml version="1.0" encoding="UTF-8"?>
<svg width="100pt" height="100pt" version="1.1" viewBox="0 0 100 100" xmlns="http://www.w3.org/2000/svg">
 <g>
  <path d="m51.68 22.449c0.082031 0.007812 0.16016-0.035157 0.19922-0.10938 0.55469-0.86328 1.0078-1.7852 1.3594-2.75 0.023438-0.058594 0.023438-0.125-0.003906-0.18359s-0.074219-0.10547-0.13281-0.125c-0.0625-0.023438-0.12891-0.019531-0.18359 0.007812-0.058594 0.03125-0.10156 0.078126-0.11719 0.14063-0.34375 0.92969-0.78906 1.8242-1.3203 2.6602-0.070313 0.10938-0.039063 0.25781 0.070312 0.33203 0.039063 0.015625 0.085938 0.027344 0.12891 0.027344z"/>
  <path d="m52.699 17.43c0.19922 0.32031 0.30469 0.69141 0.30078 1.0703-0.003906 0.0625 0.019531 0.125 0.0625 0.16797 0.042969 0.046875 0.10547 0.070312 0.16797 0.070312 0.12891 0 0.23438-0.10156 0.23828-0.22656 0.003906-0.47266-0.125-0.93359-0.36719-1.332-0.25391-0.41016-0.61719-0.73438-1.0508-0.94141-0.12109-0.054687-0.26172-0.007812-0.32031 0.11328-0.050781 0.12109 0 0.26172 0.12109 0.32031 0.34766 0.16406 0.64453 0.42578 0.84766 0.75781z"/>
  <path d="m51.621 15.301c-0.20312-0.42188-0.37109-0.85547-0.51172-1.3008-0.59766-1.9102-0.69141-3.9414-0.26953-5.8984 0.023437-0.12891-0.054688-0.25-0.17969-0.28125-0.125-0.019531-0.24609 0.058594-0.28125 0.17969-0.44141 2.0391-0.34375 4.1602 0.28125 6.1484 0.14453 0.46484 0.31641 0.92187 0.51953 1.3633 0.039062 0.085937 0.125 0.14062 0.21875 0.13672h0.10156c0.066406-0.027344 0.11328-0.082032 0.13672-0.14844 0.023437-0.066406 0.015625-0.13672-0.015625-0.19922z"/>
  <path d="m32.711 27.762c0.12891-0.023438 0.21875-0.14062 0.19922-0.27344-0.13672-1.0234-0.37891-2.0273-0.73047-3-0.023438-0.058593-0.066407-0.10547-0.125-0.13281-0.058594-0.027344-0.125-0.027344-0.18359-0.003907-0.12109 0.046876-0.18359 0.17578-0.14062 0.29688 0.33594 0.9375 0.57422 1.9062 0.71094 2.8906 0 0.066407 0.03125 0.12891 0.082032 0.17188 0.054687 0.042968 0.12109 0.0625 0.1875 0.050781z"/>
  <path d="m31.328 23.84c0.042969 0.054687 0.10938 0.089844 0.18359 0.089844 0.054687 0.003906 0.10938-0.019532 0.14844-0.058594 0.085938-0.09375 0.085938-0.23828 0-0.33203-0.61328-0.75391-1.6094-1.082-2.5508-0.82812-0.066406 0.007812-0.12891 0.042968-0.16797 0.10156-0.039062 0.058594-0.054687 0.12891-0.035156 0.19531 0.015625 0.066407 0.0625 0.125 0.125 0.15625s0.13281 0.03125 0.19922 0.007813c0.75781-0.20312 1.5625 0.058594 2.0586 0.66797z"/>
  <path d="m27 21.59c-1.6914-1.0703-3.0703-2.5664-4-4.3398-0.027344-0.058594-0.078125-0.10156-0.13672-0.12109-0.0625-0.015625-0.12891-0.011718-0.18359 0.019532-0.058594 0.027343-0.10156 0.078124-0.11719 0.14062-0.019531 0.058594-0.015625 0.125 0.015625 0.17969 0.96875 1.8477 2.3984 3.4062 4.1523 4.5312 0.40625 0.26172 0.83203 0.49219 1.2695 0.69922 0.03125 0.011719 0.066406 0.011719 0.10156 0 0.085938 0 0.16797-0.046875 0.20703-0.12891 0.058594-0.11719 0.011718-0.26172-0.10938-0.32031-0.41406-0.19531-0.8125-0.41406-1.1992-0.66016z"/>
  <path d="m19.281 41.789c-0.11719-0.0625-0.26172-0.019531-0.33203 0.089844-0.058594 0.11328-0.019531 0.25391 0.089843 0.32031 0.86328 0.51562 1.668 1.1172 2.4023 1.8008 0.042969 0.039062 0.097656 0.0625 0.16016 0.058594 0.066407 0.003906 0.12891-0.027344 0.16797-0.078125 0.089844-0.09375 0.089844-0.23828 0-0.33203-0.76172-0.70313-1.5977-1.3242-2.4883-1.8594z"/>
  <path d="m18.25 41.379c-0.94922-0.17969-1.918 0.21094-2.4805 1-0.046875 0.078125-0.046875 0.17188-0.007812 0.24609 0.042969 0.078125 0.12109 0.12891 0.20703 0.13672 0.074219-0.007813 0.14453-0.042969 0.19141-0.10156 0.22656-0.3125 0.53516-0.55859 0.89062-0.71094 0.35156-0.13672 0.73828-0.17188 1.1094-0.097657 0.12891 0.023438 0.25391-0.0625 0.28125-0.19141 0.023438-0.12891-0.0625-0.25391-0.19141-0.28125z"/>
  <path d="m14.781 42.648c-0.45703 0.12109-0.91797 0.21094-1.3828 0.27344-1.9844 0.25781-4.0039-0.003906-5.8594-0.76172-0.11328-0.03125-0.23437 0.03125-0.28125 0.14062-0.042968 0.11328 0 0.23828 0.10156 0.30078 1.4453 0.58203 2.9922 0.88281 4.5508 0.88672 0.51953 0 1.0352-0.03125 1.5508-0.097656 0.48437-0.0625 0.96484-0.15625 1.4375-0.28125 0.12891-0.035156 0.20312-0.16406 0.17187-0.28906-0.035156-0.125-0.16406-0.20312-0.28906-0.17187z"/>
  <path d="m23.539 63.148c-1.0234-0.046876-2.0508 0.019531-3.0586 0.20312-0.13281 0.023438-0.21875 0.14844-0.19922 0.27734 0.023438 0.11328 0.125 0.19531 0.23828 0.19141 0.99219-0.17187 1.9961-0.24219 3-0.19922 0.0625 0.003906 0.125-0.015625 0.17188-0.058594 0.046875-0.039062 0.074219-0.10156 0.078125-0.16406 0-0.12891-0.097656-0.23828-0.23047-0.25z"/>
  <path d="m19.43 63.699c-0.84766 0.47266-1.3398 1.3945-1.2578 2.3594 0.007813 0.12109 0.10938 0.21094 0.22656 0.21094 0.0625-0.003906 0.125-0.03125 0.16406-0.078125 0.042969-0.046875 0.0625-0.10938 0.058594-0.17188-0.03125-0.38672 0.050781-0.77734 0.23828-1.1211 0.18359-0.32813 0.45312-0.60156 0.78125-0.78906 0.10938-0.066406 0.14844-0.20703 0.089844-0.32031-0.027344-0.050781-0.074219-0.089843-0.13281-0.10547-0.054687-0.019532-0.11719-0.011719-0.16797 0.015625z"/>
  <path d="m17.578 66.898c-0.26953 0.38672-0.5625 0.75391-0.87891 1.1016-1.3594 1.4766-3.0859 2.5742-5 3.1797-0.11328 0.035156-0.1875 0.14844-0.16797 0.26562 0.015625 0.11719 0.12109 0.20703 0.23828 0.20313h0.070313c1.9883-0.63281 3.7773-1.7734 5.1914-3.3086 0.34766-0.36719 0.67188-0.75781 0.96875-1.168 0.039062-0.050781 0.054688-0.11328 0.046875-0.17578-0.011719-0.0625-0.046875-0.12109-0.097656-0.15625-0.054688-0.046875-0.125-0.070313-0.19922-0.058594-0.070312 0.011719-0.13281 0.054688-0.17188 0.11719z"/>
  <path d="m37.469 77c-0.8125 0.62891-1.5586 1.3438-2.2188 2.1289-0.042969 0.042969-0.070312 0.10547-0.070312 0.16797 0 0.058594 0.027343 0.12109 0.070312 0.16406 0.039062 0.039062 0.09375 0.058593 0.14844 0.058593 0.070312 0 0.13672-0.035156 0.17969-0.089843 0.64062-0.76172 1.3633-1.4492 2.1523-2.0508 0.089843-0.09375 0.089843-0.24219 0-0.33984-0.070313-0.0625-0.17188-0.078124-0.26172-0.039062z"/>
  <path d="m35.219 82.648c0.097656 0.070312 0.22656 0.0625 0.3125-0.019532 0.082031-0.082031 0.097656-0.21094 0.027344-0.30859-0.27344-0.27344-0.46094-0.62109-0.53906-1-0.074219-0.37109-0.042969-0.75781 0.089844-1.1094 0.027344-0.058594 0.027344-0.125 0-0.18359-0.027344-0.054688-0.078125-0.10156-0.14062-0.11719-0.054688-0.027344-0.12109-0.027344-0.17578 0-0.058594 0.023438-0.10156 0.070313-0.12109 0.12891-0.34375 0.90625-0.12891 1.9297 0.54688 2.6211z"/>
  <path d="m35.531 83.422c-0.066406 0.003906-0.125 0.035156-0.16406 0.082031-0.042969 0.050782-0.0625 0.11328-0.058594 0.17578 0.03125 0.46484 0.03125 0.93359 0 1.3984-0.089844 2.0039-0.69922 3.9453-1.7695 5.6406-0.03125 0.054688-0.042968 0.11719-0.03125 0.17578 0.011719 0.058594 0.050782 0.11328 0.10156 0.14453 0.042969 0.015626 0.089844 0.015626 0.12891 0 0.089844 0.039063 0.19141 0.023438 0.26172-0.039062 1.3867-2.1797 2.0234-4.7539 1.8086-7.3281 0.003906-0.074219-0.023438-0.14453-0.078125-0.19531-0.054688-0.046874-0.12891-0.070312-0.19922-0.054687z"/>
  <path d="m56.922 81.898c0.0625 0 0.12109-0.023438 0.16797-0.070313 0.042968-0.042969 0.070312-0.10547 0.070312-0.16797-0.003906-1.0078 0.10156-2.0156 0.32031-3 0.015625-0.0625 0.003906-0.125-0.03125-0.17969-0.035157-0.050781-0.085938-0.089844-0.14844-0.10156-0.12891-0.023437-0.25 0.054688-0.28125 0.17969-0.21875 0.98828-0.32812 1.9922-0.32812 3-0.003906 0.0625 0.019532 0.125 0.0625 0.17188 0.042969 0.042969 0.10156 0.070312 0.16797 0.070312z"/>
  <path d="m57.289 82.602c-0.015624-0.0625-0.058593-0.11328-0.11719-0.14062-0.054687-0.027344-0.12109-0.03125-0.18359-0.011719-0.12109 0.042969-0.1875 0.17578-0.14844 0.30078 0.15625 0.44141 0.43359 0.83594 0.80078 1.1289 0.39062 0.30469 0.86328 0.48438 1.3594 0.51953 0.12109 0.003906 0.22656-0.085938 0.23828-0.20703 0.007813-0.066406-0.011719-0.12891-0.054687-0.17578-0.039063-0.050781-0.10156-0.082031-0.16406-0.085937-0.38281-0.035157-0.74609-0.17969-1.0508-0.41797-0.30469-0.23438-0.54297-0.55078-0.67969-0.91016z"/>
  <path d="m60.602 86.191c1.2148 1.5859 1.9961 3.4648 2.2695 5.4492 0.011718 0.11719 0.10938 0.20703 0.23047 0.21094 0.058594-0.007812 0.11719-0.039062 0.15234-0.089843 0.039063-0.046875 0.054688-0.10938 0.046875-0.17188-0.26172-2.0625-1.0547-4.0234-2.3008-5.6914-0.30859-0.38672-0.64453-0.75391-1-1.0977-0.046875-0.046875-0.10547-0.070312-0.17188-0.070312-0.0625 0-0.125 0.023437-0.16797 0.070312-0.089844 0.09375-0.089844 0.24219 0 0.33984 0.33594 0.32812 0.65234 0.67969 0.94141 1.0508z"/>
  <path d="m73.148 67c-0.054688 0.027344-0.097657 0.078125-0.11719 0.13672-0.019531 0.0625-0.011719 0.12891 0.019531 0.18359 0.47266 0.91016 1.0469 1.7656 1.7109 2.5508 0.039062 0.058594 0.10547 0.089844 0.17969 0.089844 0.054688 0 0.10938-0.023438 0.14844-0.0625 0.085937-0.089844 0.085937-0.23438 0-0.32813-0.63672-0.76172-1.1914-1.5898-1.6484-2.4688-0.0625-0.10156-0.18359-0.14062-0.29297-0.10156z"/>
  <path d="m76.84 70.93h0.070312c0.48047-0.011719 0.94531-0.16797 1.3398-0.44141 0.070312-0.019531 0.12891-0.074219 0.15234-0.14453 0.027344-0.070312 0.019531-0.14844-0.023438-0.21094-0.039062-0.0625-0.10547-0.10547-0.17969-0.10937-0.074219-0.007813-0.14844 0.019531-0.19922 0.078124-0.31641 0.21875-0.69141 0.34375-1.0781 0.34766-0.38281 0.011719-0.75391-0.085938-1.082-0.27734-0.054688-0.035156-0.11719-0.042969-0.17969-0.023437-0.058594 0.015624-0.10938 0.054687-0.14062 0.11328-0.03125 0.050781-0.042969 0.11328-0.027343 0.17578 0.015624 0.058594 0.054687 0.10938 0.10937 0.14062 0.375 0.22656 0.80078 0.34766 1.2383 0.35156z"/>
  <path d="m79.281 70.578c0.46484 0.046875 0.92969 0.12109 1.3906 0.22266 1.9531 0.43359 3.7578 1.3711 5.2383 2.7188 0.042969 0.046875 0.10156 0.070313 0.16406 0.070313s0.12109-0.023438 0.16406-0.070313c0.046875-0.042969 0.070313-0.10156 0.070313-0.16406s-0.023438-0.12109-0.070313-0.16406c-1.5391-1.4062-3.4219-2.3867-5.457-2.8398-0.48047-0.10547-0.96484-0.17969-1.4531-0.22266-0.058594-0.003906-0.12109 0.015625-0.16797 0.054688-0.046875 0.039062-0.074218 0.09375-0.082031 0.15625-0.003906 0.12109 0.082031 0.22656 0.20312 0.23828z"/>
  <path d="m97 45.191c-3-2-5.8008-2.7617-8.3906-2.2891v-0.003906c-1.5547 0.31641-3.0078 1.0039-4.2383 2-1.1914 0.85156-2.1289 1.5195-3.5781 1.3984l-0.003907 0.003906c-1.1562-0.16016-2.2227-0.72656-3-1.6016-0.54687-0.50391-1.1484-0.94922-1.7891-1.3281l5.5-5.6797c0.14062-0.14453 0.17969-0.35938 0.089844-0.54297-0.089844-0.17969-0.28906-0.28516-0.48828-0.25781l-9.3398 1.1094c-0.38672-0.73047-0.8125-1.4375-1.2812-2.1211 0.28125-0.16016 0.57031-0.30078 0.87109-0.44922 1.457-0.58203 2.7227-1.5625 3.6484-2.8281 0.71875-1.1641 0.99609-2.543 0.78906-3.8906-0.074218-1.082-0.003906-2.168 0.21094-3.2305 0.67969-3.1211 2.8789-6 6.5391-8.6211 0.17188-0.12891 0.23828-0.35938 0.15625-0.55859-0.078124-0.19922-0.28125-0.32422-0.49609-0.30078-3.5586 0.39062-6.2188 1.6211-7.9102 3.6289-0.98047 1.2539-1.6484 2.7266-1.9375 4.293-0.35937 1.4102-0.64844 2.5312-1.8398 3.3594-0.98438 0.61328-2.1562 0.85547-3.3008 0.6875-0.75-0.042969-1.5-0.007812-2.2422 0.10156l0.57031-7.8789c0.007813-0.20312-0.10547-0.39453-0.28906-0.48047-0.1875-0.074219-0.40234-0.027344-0.53906 0.11719l-6.2617 6.6719c-0.80078-0.30078-1.6172-0.55078-2.4492-0.75 0.089844-0.23828 0.21094-0.48047 0.30859-0.71875 0.76172-1.3867 1.1094-2.9648 1-4.543-0.21094-1.3555-0.90234-2.5938-1.9492-3.4883-0.75781-0.77344-1.4062-1.6484-1.918-2.6016-1.4414-2.8203-1.6719-6.457-0.54297-10.797 0.058593-0.21484-0.039063-0.43359-0.22656-0.54297-0.19141-0.10547-0.42969-0.074219-0.58203 0.082031-2.4688 2.5898-3.7188 5.2383-3.7188 7.8594 0.046875 1.5898 0.48047 3.1445 1.2695 4.5312 0.62891 1.3203 1.1289 2.3516 0.75 3.7695-0.34375 1.125-1.0898 2.082-2.0898 2.6992-0.59766 0.44922-1.1523 0.95312-1.6523 1.5117l-4.6484-6.4414c-0.11328-0.17187-0.32422-0.24609-0.51953-0.19141-0.19922 0.058594-0.33594 0.23828-0.33984 0.44141l-0.51953 9.5508c-0.76172 0.28516-1.5039 0.62109-2.2227 1-0.14063-0.37891-0.26172-0.78125-0.37891-1.1914-0.31641-1.543-1.0703-2.9609-2.168-4.0898-1.0195-0.91406-2.332-1.4297-3.7031-1.4609-1.0742-0.10547-2.1328-0.34766-3.1484-0.71875-3-1.2109-5.4297-3.8711-7.3594-7.9297-0.089844-0.19531-0.30078-0.30469-0.51172-0.26172-0.21484 0.042969-0.375 0.22266-0.39062 0.44141-0.23047 3.5586 0.51953 6.3984 2.2109 8.4102 1.0625 1.1875 2.3906 2.0977 3.8789 2.6602 1.3281 0.58984 2.3789 1.0703 3 2.3906 0.4375 1.0742 0.47266 2.2695 0.10156 3.3672-0.17188 0.73047-0.26953 1.4727-0.28906 2.2227l-7.6406-1.9219c-0.19531-0.046874-0.40234 0.03125-0.51172 0.19922-0.11328 0.16797-0.11328 0.38672 0 0.55078l6.2695 8.3594c-0.30078 0.60937-0.58984 1.2383-0.83984 1.8711h0.003906c-0.62891-0.26953-1.2227-0.60547-1.7812-1-1.2266-0.98828-2.7148-1.6055-4.2812-1.7695-1.3633-0.042969-2.6992 0.40234-3.7695 1.25-0.89453 0.61328-1.8633 1.1016-2.8906 1.4492-3 1-6.6484 0.53125-10.73-1.3398-0.19531-0.097656-0.43359-0.042969-0.57031 0.12891-0.12891 0.17188-0.12891 0.41016 0 0.58203 2.1016 2.9297 4.4922 4.5703 7.1016 5.0312 1.5781 0.22656 3.1875 0.066407 4.6914-0.46094 1.3984-0.39844 2.5117-0.71094 3.8281-0.089844 1.0234 0.54297 1.8242 1.4297 2.25 2.5078 0.33984 0.69141 0.75 1.3398 1.2305 1.9414l-7.1211 3.4609c-0.17578 0.082031-0.28125 0.27344-0.25781 0.46875 0.019531 0.19922 0.16406 0.36328 0.35938 0.41016l11 2.5586c0.11328 0.52344 0.25391 1.043 0.41797 1.5508-0.83984 0.35156-1.7383 0.55469-2.6484 0.60156-1.5781 0.039063-3.1094 0.53906-4.4102 1.4297-1.0781 0.84375-1.8203 2.0469-2.0898 3.3906-0.28516 1.0391-0.71484 2.0312-1.2812 2.9492-1.6914 2.7109-4.7617 4.6797-9.0781 5.8789-0.21094 0.050781-0.35547 0.24609-0.35156 0.46094 0.007813 0.21484 0.15234 0.40234 0.35938 0.46094 1.2461 0.3125 2.5273 0.47656 3.8125 0.48828 1.6992 0.035156 3.375-0.38281 4.8594-1.2109 1.3555-0.83203 2.4844-1.9805 3.3008-3.3477 0.80859-1.2109 1.4609-2.1719 2.8711-2.5391h-0.003907c1.1367-0.24609 2.3203-0.074219 3.3398 0.47656 0.6875 0.29688 1.4023 0.51953 2.1328 0.67188l-3.3125 7.168c-0.0625 0.14844-0.046876 0.31641 0.039062 0.45312 0.085938 0.13281 0.23438 0.21484 0.39062 0.21875 0.074219 0.015625 0.14844 0.015625 0.22266 0l10.25-5.1992c0.37891 0.28906 0.76172 0.57812 1.1484 0.83984-0.39844 0.89453-0.97656 1.6953-1.6992 2.3594-1.1836 1.043-2.043 2.4023-2.4688 3.9219-0.27344 1.3398-0.066406 2.7305 0.57812 3.9375 0.45703 0.98438 0.76953 2.0273 0.92969 3.1016 0.44141 3.1602-0.64062 6.6406-3.1914 10.328h0.003906c-0.13281 0.17188-0.13281 0.41016 0 0.58203 0.089844 0.10547 0.21875 0.16406 0.35938 0.16797 0.074218 0 0.14453-0.019531 0.21094-0.058593 3.2188-1.5781 5.2891-3.6406 6.1797-6.1094 0.5-1.5117 0.62891-3.1211 0.36719-4.6914-0.14844-1.4492-0.26172-2.6016 0.57031-3.8008 0.71875-0.91406 1.7422-1.5391 2.8828-1.7695 0.71094-0.21484 1.4023-0.5 2.0586-0.84766l2.1719 7.5898h-0.003906c0.054687 0.19531 0.22656 0.33594 0.42969 0.34766 0.19141 0 0.36328-0.11328 0.43359-0.28906l4.4883-10.41c0.55078 0 1.0898 0 1.5898-0.058594 0.19922 0.86719 0.25391 1.7617 0.16016 2.6484-0.23438 1.5586-0.011719 3.1523 0.64062 4.5898 0.65234 1.2148 1.7148 2.1523 3 2.6484 0.97266 0.46484 1.8789 1.0586 2.6875 1.7734 2.3711 2.1484 3.7891 5.5 4.2109 10 0.023438 0.21094 0.18359 0.37891 0.39063 0.41797h0.070312c0.19141 0.003907 0.36328-0.10547 0.44141-0.28125 1.4414-3.2891 1.6992-6.1992 0.80078-8.6602h-0.003907c-0.58203-1.4844-1.5234-2.8008-2.7383-3.8398-1-1-1.8711-1.8086-2-3.2695-0.042969-1.1484 0.30859-2.2773 1-3.1992 0.40234-0.62891 0.73828-1.3008 1-2l6.5391 4.4297c0.078126 0.058593 0.17578 0.089843 0.26953 0.089843 0.10547 0.003907 0.20312-0.03125 0.28125-0.097656 0.16406-0.12109 0.23047-0.32812 0.17188-0.51953l-3.0703-10.32c0.49219-0.39844 0.96094-0.81641 1.4102-1.2617 0.53906 0.50391 1.0195 1.0664 1.4297 1.6797 0.83203 1.3477 2.0352 2.4258 3.4688 3.1016 1.2773 0.51562 2.6953 0.55469 4 0.10938 1.0508-0.26953 2.1367-0.39062 3.2188-0.37109 3.1914 0.12109 6.4219 1.7812 9.6211 4.9414 0.09375 0.078125 0.20703 0.125 0.33203 0.12891 0.085937 0.003906 0.17188-0.023438 0.25-0.070313 0.18359-0.10938 0.26953-0.33203 0.20703-0.53906-1-3.4297-2.6719-5.8398-5-7.1484-1.3984-0.75-2.9609-1.1562-4.5508-1.1836-1.4492-0.10156-2.6016-0.19141-3.6289-1.2188-0.77344-0.85938-1.2188-1.9688-1.25-3.1289-0.089844-0.74219-0.25391-1.4727-0.48828-2.1797l7.8711-0.82031h-0.003906c0.21094-0.023437 0.38281-0.18359 0.42188-0.39062 0.050781-0.19531-0.03125-0.40234-0.19922-0.51172l-8.5-5.4883c0.15625-0.72266 0.26953-1.4531 0.33984-2.1914 0.51953 0.078125 1.0312 0.18359 1.5391 0.3125 1.5 0.49609 3.1094 0.55078 4.6406 0.16016 1.2969-0.42578 2.3984-1.2969 3.1094-2.4609 0.62891-0.88281 1.375-1.6719 2.2188-2.3516 2.5195-2 6.0703-2.7812 10.551-2.4102 0.21875 0.023437 0.41797-0.10938 0.48047-0.32031 0.066406-0.20312-0.007813-0.42188-0.17969-0.54688zm-17.07-7.1914-4.7891 4.9492c-0.32422-0.125-0.66016-0.22656-1-0.30078l-0.39844-0.058594h-0.003907c-0.37891-1.2617-0.86719-2.4844-1.457-3.6602zm-12.75-9.0781c1.3555 0.17578 2.7266-0.12891 3.8789-0.86328 1.4805-1 1.8281-2.4414 2.2109-3.9102 0.25-1.4219 0.84375-2.7656 1.7305-3.9102 1.4297-1.5742 3.3438-2.6289 5.4414-3-3 2.4492-4.7695 5.1484-5.3906 8-0.22656 1.1406-0.29688 2.3047-0.21094 3.4609 0.19141 1.1562-0.039063 2.3438-0.64844 3.3398-0.83594 1.1328-1.9727 2.0078-3.2812 2.5195-0.33984 0.17188-0.67969 0.33984-1 0.51953-0.61719-0.82812-1.2852-1.6133-2-2.3594 0.14453-0.007812 0.28516-0.007812 0.42969 0 0.0625 0.007812 0.125-0.011719 0.17188-0.054688 0.046875-0.042968 0.074219-0.10156 0.078125-0.16406 0.007812-0.13281-0.09375-0.25-0.23047-0.26172-0.28906-0.023437-0.57812-0.023437-0.87109 0-0.37109-0.37109-0.75-0.73828-1.1719-1.1016l0.003906 0.003906c0.70703-0.042969 1.4062-0.13672 2.1016-0.28125 0.12891-0.023437 0.21094-0.14844 0.1875-0.28125-0.027344-0.125-0.15234-0.20312-0.28125-0.17969-0.79688 0.16406-1.6133 0.25781-2.4297 0.28125h-0.10938l-0.10937-0.10156-0.14063-0.10938c-0.49219-0.39844-1.0117-0.78906-1.5586-1.1719v0.003906c1.0234-0.37109 2.1172-0.50391 3.1992-0.37891zm-2.6797-7.4727-0.5 6.8711c-0.34375 0.11719-0.67969 0.26172-1 0.42969-1.1484-0.73438-2.3633-1.3633-3.6289-1.8711zm-15.609 1.25c1.1523-0.73047 2.0117-1.8438 2.418-3.1484 0.46875-1.75-0.16016-3.0508-0.80859-4.4219-0.72266-1.2578-1.1289-2.6758-1.1797-4.1289 0.078126-2.125 0.86719-4.1641 2.2383-5.7891-0.76562 3.2266-0.41406 6.6172 1 9.6172 0.55078 1.0273 1.25 1.9688 2.0703 2.793 0.89062 0.76953 1.4727 1.8359 1.6406 3 0.085938 1.3906-0.22266 2.7773-0.89062 4-0.12891 0.28906-0.26172 0.58984-0.37891 0.89062-0.98828-0.21094-1.9922-0.36328-3-0.45312 0.14062-0.10938 0.23047-0.19141 0.26953-0.21094v0.003906c0.085938-0.097656 0.085938-0.24219 0-0.33984-0.042969-0.046875-0.10547-0.074219-0.16797-0.074219-0.066406 0-0.125 0.027344-0.17187 0.074219-0.22656 0.15625-0.43359 0.34766-0.60938 0.55859h-0.019531-1.6484-0.003906c0.53125-0.49609 1.0234-1.0312 1.4727-1.6016 0.054687-0.046875 0.085937-0.11328 0.082031-0.1875 0-0.070312-0.035156-0.14062-0.089844-0.18359-0.058593-0.042968-0.13281-0.0625-0.20312-0.042968-0.070312 0.015624-0.12891 0.0625-0.16016 0.125-0.5 0.64062-1.0586 1.2266-1.6719 1.7617l-0.14844 0.14844h-0.17188c-0.67969 0-1.3906 0.10156-2.1211 0.19922h0.003906c0.51953-1.0391 1.293-1.9297 2.25-2.5898zm-6.8906-4 4 5.5898c-0.19141 0.31641-0.35547 0.65234-0.48047 1-0.019531 0.050782-0.039062 0.097657-0.050781 0.15234-1.3438 0.23047-2.6641 0.58594-3.9375 1.0703zm-14.75 4.1602c-1.3594-0.50391-2.5781-1.332-3.5508-2.4102-1.3008-1.6797-2.0039-3.7461-2-5.8711 1.5 2.9688 3.9727 5.3398 7 6.7109 1.0859 0.41797 2.2227 0.69141 3.3789 0.8125 1.1719 0.003907 2.3008 0.4375 3.1719 1.2188 0.96875 1.0195 1.6211 2.2969 1.8789 3.6797 0.14062 0.46875 0.28125 0.94141 0.46094 1.3906-0.46875 0.26172-0.92969 0.55078-1.4102 0.87891-0.042969-0.023437-0.097657-0.023437-0.14063 0-0.12891 0.015625-0.22266 0.13281-0.21094 0.26172-0.37109 0.26172-0.71875 0.53125-1.0703 0.80859h0.003907c-0.003907-0.375 0.035156-0.75 0.10938-1.1211 0.015625-0.058594 0.003906-0.125-0.03125-0.17578-0.035156-0.054688-0.089844-0.089844-0.14844-0.10156-0.0625-0.019531-0.125-0.011718-0.17969 0.019532-0.054688 0.035156-0.089844 0.085937-0.10156 0.14844-0.10938 0.52344-0.14844 1.0586-0.12109 1.5898-0.5 0.41016-1 0.83984-1.4492 1.3008 0-0.21094 0.050781-0.42188 0.078125-0.64844h0.003906c0.12109-0.83203 0.16797-1.6719 0.14844-2.5117 0-0.0625-0.027343-0.12109-0.070312-0.16797-0.046875-0.042969-0.10547-0.066406-0.17188-0.0625-0.0625 0-0.12109 0.027344-0.16406 0.070313-0.042968 0.046874-0.066406 0.10937-0.0625 0.17187 0.011719 0.8125-0.035156 1.625-0.14062 2.4297-0.066407 0.39453-0.10156 0.79688-0.10938 1.1992l-0.078124 0.089843c-0.39844 0.42188-0.80078 0.85156-1.1914 1.3281-0.058593-0.14063-0.10156-0.26953-0.14844-0.41016h-0.003906c-0.375-1.2266-0.375-2.5391 0-3.7695 0.41797-1.3086 0.35547-2.7266-0.16797-4-0.76172-1.6406-2.1328-2.2305-3.5117-2.8594zm-4.1914 8.1406 6.6797 1.6914c0.050781 0.36719 0.13672 0.72656 0.26172 1.0781 0.10156 0.31641 0.23438 0.62109 0.39844 0.91016-0.80078 1.0469-1.5117 2.1562-2.1289 3.3203zm-4.1602 12.68c-1.4375-0.58203-3.0469-0.58203-4.4883 0-1.3672 0.48047-2.8242 0.62891-4.2617 0.42969-2.0664-0.41797-3.9414-1.5117-5.3203-3.1094 3.6016 1.3398 6.8398 1.5586 9.6602 0.64844 1.1055-0.36328 2.1523-0.88672 3.1133-1.5469 0.90625-0.74219 2.0469-1.1367 3.2188-1.1133 1.3945 0.16406 2.7148 0.71484 3.8086 1.5898 0.62891 0.44141 1.2969 0.81641 2 1.1211-0.19141 0.53906-0.37109 1.1016-0.53906 1.7188v0.003906c-0.1875-0.13281-0.35938-0.27734-0.51953-0.44141-0.09375-0.089844-0.23828-0.089844-0.33203 0-0.046875 0.042969-0.074219 0.10547-0.074219 0.16797 0 0.066406 0.027344 0.12891 0.074219 0.17187 0.22266 0.22266 0.46875 0.42188 0.73047 0.58984-0.125 0.47266-0.23047 0.94922-0.30859 1.4297-0.55078-0.44531-1.0078-1-1.3398-1.6289-0.0625-0.12109-0.20703-0.16797-0.33203-0.10938-0.11328 0.058594-0.15625 0.20313-0.097656 0.32031 0.41406 0.75781 0.98828 1.418 1.6797 1.9375-0.12891 0.69922-0.21875 1.4219-0.28125 2.1289-0.42969-0.40234-0.80078-0.86719-1.0977-1.3789-0.4375-0.70703-0.9375-1.3789-1.4922-2-0.042969-0.042969-0.10547-0.070313-0.16797-0.070313-0.066406 0-0.125 0.027344-0.17188 0.070313-0.042969 0.042969-0.070313 0.10156-0.070313 0.16406s0.027344 0.125 0.070313 0.16797c0.54297 0.62109 1.0312 1.293 1.4609 2 0.35156 0.66406 0.85156 1.2422 1.4609 1.6875 0 0.5-0.050781 1-0.050781 1.4883v0.003906c-0.4375-0.15625-0.85156-0.36719-1.2305-0.63281-1.0859-0.69141-1.9375-1.6953-2.4492-2.8789-0.51172-1.2578-1.4492-2.293-2.6523-2.9297zm3.75 6c0.27734 0.23828 0.57422 0.44922 0.89062 0.62891 0.52734 0.32031 1.0977 0.5625 1.6914 0.72266 0.03125 1.2773 0.17188 2.5469 0.42969 3.7969l-9.2109-2.1484zm2.6914 15.891c-1.207-0.64844-2.6016-0.84766-3.9414-0.57031-1.75 0.51172-2.5586 1.6992-3.3984 3-0.74219 1.2266-1.7734 2.2578-3 3-1.875 1.0117-4.0312 1.3633-6.1289 1 3.1797-0.95312 5.9336-2.9688 7.8086-5.7109 0.60547-0.99219 1.0742-2.0625 1.3906-3.1797 0.21484-1.1523 0.83594-2.1875 1.75-2.918 1.168-0.78125 2.5352-1.2109 3.9414-1.2422 0.97266-0.054688 1.9336-0.26562 2.8398-0.62891 0.21875 0.60938 0.46094 1.1992 0.71094 1.7891h-0.003906c-0.42578 0.089844-0.86328 0.11719-1.2969 0.082031-0.0625-0.003906-0.12109 0.015625-0.16797 0.058594-0.042969 0.042969-0.070312 0.097656-0.074219 0.16016-0.007812 0.0625 0.011719 0.125 0.050781 0.17188 0.039063 0.046875 0.097657 0.074219 0.16016 0.078125h0.39844c0.38281 0 0.75781-0.039062 1.1328-0.12109 0.19922 0.44141 0.42188 0.89063 0.67969 1.3398-0.90625 0.11719-1.8281 0-2.6719-0.34766-0.125-0.042969-0.25781 0.019531-0.30859 0.14062-0.023438 0.054687-0.023438 0.11719 0 0.17578 0.027343 0.054688 0.070312 0.10156 0.12891 0.12109 0.6875 0.28125 1.418 0.42188 2.1602 0.42188 0.30859 0 0.61719-0.023437 0.92188-0.082031 0.34766 0.62891 0.72656 1.2422 1.1367 1.832h-0.078125c-0.74609 0.070313-1.4961-0.042969-2.1914-0.32031-0.79297-0.26172-1.6055-0.45703-2.4297-0.58203-0.13281-0.015625-0.25391 0.070313-0.28125 0.20312-0.007813 0.0625 0.011719 0.125 0.050781 0.17578 0.039063 0.050781 0.097656 0.085937 0.16016 0.09375 0.80078 0.125 1.5898 0.30859 2.3594 0.55859 0.60937 0.21484 1.2461 0.33984 1.8906 0.37109 0.16797 0.007813 0.33594 0.007813 0.5 0l0.32813-0.058594c0.28906 0.41016 0.55078 0.76953 0.82031 1.0898h0.003906c-0.51562 0.25391-1.0664 0.42578-1.6328 0.50781-1.2734 0.16797-2.5664-0.050782-3.7188-0.62109zm0 7.9414 2.8086-6.2891v-0.003906c0.37109 0.003906 0.73828-0.027344 1.1016-0.089844 0.73438-0.11719 1.4414-0.35156 2.1016-0.69922 0.80469 0.96094 1.6914 1.8477 2.6484 2.6602zm15.059 4.1484c-1.332 0.29297-2.5195 1.0469-3.3477 2.1289-1 1.4805-0.89844 2.9219-0.73828 4.4297h-0.003906c0.24609 1.4297 0.14062 2.8945-0.30859 4.2695-0.79688 1.9766-2.2344 3.6289-4.0781 4.6914 1.9492-3.3086 2.7305-6.4688 2.3203-9.3984h-0.003907c-0.17578-1.1523-0.51172-2.2734-1-3.332-0.5625-1.0234-0.75-2.2109-0.52734-3.3594 0.39453-1.3516 1.1641-2.5586 2.2188-3.4883 0.75781-0.70703 1.3789-1.543 1.8398-2.4727 0.55078 0.36328 1.1172 0.69531 1.6992 1-0.27734 0.38281-0.61719 0.72266-1 1-0.050781 0.039063-0.085938 0.09375-0.09375 0.15625-0.011719 0.0625 0.007812 0.125 0.046875 0.17578 0.039063 0.0625 0.11328 0.09375 0.1875 0.089843 0.042969 0.007813 0.085937 0.007813 0.12891 0 0.44922-0.32031 0.83984-0.71094 1.1602-1.1602 0.4375 0.23438 0.89062 0.44531 1.3516 0.62891-0.60938 0.67188-1.3867 1.1719-2.25 1.4492-0.12891 0.039062-0.20312 0.17188-0.17188 0.30078 0.039063 0.097657 0.12891 0.16406 0.23047 0.17188h0.082031c1.0156-0.33203 1.918-0.9375 2.6094-1.75 0.65234 0.27734 1.3203 0.51953 2 0.71875-0.52734 0.52734-1.1719 0.92188-1.8789 1.1484-0.77734 0.3125-1.5273 0.69141-2.2422 1.1328-0.054687 0.03125-0.09375 0.085938-0.10547 0.14844-0.015626 0.0625 0 0.12891 0.035156 0.17969 0.046875 0.066407 0.12109 0.10547 0.20312 0.10156h0.12109-0.003906c0.67578-0.42188 1.3867-0.78516 2.1211-1.0898 0.75391-0.26562 1.4375-0.69922 2-1.2695 0.078125-0.078125 0.14453-0.16797 0.19922-0.26172 0.42969 0.12891 0.87109 0.23828 1.3281 0.33984h0.003906c-0.22266 0.49609-0.51562 0.95703-0.87109 1.3711-0.87109 0.95703-2.0039 1.6328-3.2617 1.9492zm5.0703 6.1016-1.8906-6.6289v-0.003906c0.28516-0.22656 0.55078-0.48438 0.79297-0.75781 0.45312-0.53906 0.82812-1.1445 1.1094-1.793 1.2344 0.23047 2.4844 0.36328 3.7383 0.40234zm14.238-6.5117h0.003907c-0.82813 1.0703-1.25 2.3984-1.1992 3.75 0.16016 1.8086 1.1992 2.8008 2.2891 3.8711 1.0977 0.9375 1.957 2.1289 2.5 3.4688 0.65625 2.0234 0.61719 4.2109-0.12109 6.2109-0.39453-3.2969-1.8984-6.3594-4.2578-8.6914-0.88672-0.75-1.8672-1.375-2.9219-1.8594-1.0898-0.42188-2-1.2109-2.5703-2.2305-0.56641-1.2891-0.75391-2.7109-0.53906-4.0977 0.10938-0.94531 0.078125-1.8984-0.10156-2.832 0.62891-0.058594 1.25-0.17188 1.8711-0.28125-0.011718 0.37109-0.0625 0.74219-0.14844 1.1016-0.035157 0.125 0.042969 0.25391 0.16797 0.28906 0.10937 0.007812 0.20703-0.0625 0.23047-0.16797 0.11719-0.42969 0.17578-0.875 0.16797-1.3203 0.48047-0.089844 0.95703-0.20703 1.4219-0.35156-0.089844 0.80859-0.35547 1.5859-0.78125 2.2812-0.035156 0.050781-0.046875 0.11328-0.035156 0.17188 0.011718 0.058594 0.046875 0.11328 0.097656 0.14844 0.042969 0.011718 0.09375 0.011718 0.14062 0 0.074219-0.003907 0.14844-0.042969 0.19922-0.10156 0.50391-0.78516 0.82422-1.6797 0.92969-2.6094 0.66016-0.19922 1.3398-0.42969 2-0.69141-0.12891 0.60156-0.36328 1.1719-0.69141 1.6914-0.40234 0.73828-0.73438 1.5117-1 2.3086-0.019531 0.058594-0.015625 0.125 0.011719 0.17969 0.027344 0.054688 0.078125 0.097657 0.14062 0.11328h0.070312-0.003906c0.10547 0 0.19922-0.0625 0.23047-0.16016 0.26172-0.77344 0.59766-1.5195 1-2.2305 0.40234-0.66797 0.65234-1.4102 0.74219-2.1797 0.44922-0.17578 0.89062-0.375 1.3203-0.60156 0.089844 0.41406 0.13281 0.83594 0.12891 1.2617-0.070312 1.2852-0.51953 2.5234-1.2891 3.5586zm7.8086 1.4102-5.707-3.8594c0.074218-0.36328 0.11328-0.73047 0.12109-1.1016 0.003906-0.57031-0.0625-1.1406-0.19141-1.6992 1.1055-0.57422 2.1562-1.2422 3.1406-2zm8.2305-10.469c1.2891 1.2812 2.7305 1.3906 4.2383 1.5h0.003906c1.4531 0.011719 2.8789 0.375 4.1602 1.0586 1.7891 1.1328 3.1445 2.8281 3.8516 4.8203-2.9219-2.4805-5.8906-3.8008-8.8516-3.8984-1.1602-0.035156-2.3203 0.09375-3.4492 0.37891-1.0977 0.40234-2.3008 0.40234-3.3984 0-1.2461-0.62891-2.2852-1.5977-3-2.7891-0.44531-0.64844-0.95312-1.25-1.5195-1.793 0.41016-0.42188 0.80078-0.85938 1.1719-1.3086h-0.003906c0.10938 0.16797 0.20312 0.33984 0.28906 0.51953 0.042969 0.082031 0.12891 0.13281 0.22266 0.12891 0.027343 0.011718 0.058593 0.011718 0.089843 0 0.11719-0.054688 0.16797-0.19141 0.12109-0.30859-0.11719-0.24219-0.25-0.47266-0.40234-0.69141 0.29688-0.35156 0.57422-0.71875 0.83203-1.0977 0.28906 0.53906 0.48047 1.125 0.57031 1.7305 0.007813 0.12109 0.11328 0.21484 0.23828 0.20703 0.0625-0.007813 0.11719-0.039063 0.15625-0.085938 0.035156-0.050781 0.050782-0.11328 0.042969-0.17188-0.10547-0.74609-0.35547-1.4609-0.73828-2.1094 0.39062-0.55859 0.73828-1.1094 1.0703-1.6719 0.12891 0.375 0.23047 0.76172 0.30859 1.1523 0.16797 0.82031 0.41016 1.6289 0.71875 2.4102 0.042969 0.082031 0.12891 0.13672 0.22266 0.13672 0.023438 0.011718 0.054688 0.011718 0.078125 0 0.058594-0.019532 0.10938-0.0625 0.13281-0.11719 0.027344-0.058594 0.03125-0.125 0.007812-0.17969-0.30078-0.76172-0.53516-1.543-0.69922-2.3398-0.089844-0.57422-0.24219-1.1328-0.44922-1.6719 0.28125-0.51172 0.51172-1 0.73047-1.4609h-0.003907c0.15234 0.13672 0.29297 0.28516 0.42188 0.44141 0.77734 1.0234 1.2383 2.2539 1.3203 3.5391 0.054687 1.3672 0.59375 2.668 1.5195 3.6719zm5.3711-7.6016-6.8516 0.69922h0.003906c-0.35156-0.63672-0.81641-1.1992-1.3711-1.668 0.48828-1.1758 0.87891-2.3867 1.1797-3.6211zm-7.8086-5.4688c0 0.10938 0 0.19922-0.078125 0.30859-0.26562 1.2188-0.63672 2.4141-1.1094 3.5703-0.070313 0.19141-0.14844 0.37109-0.23047 0.55078-0.039063 0.11719-0.089844 0.23047-0.15234 0.33984-0.17188 0.39844-0.37109 0.80859-0.58984 1.2383l-0.21094 0.39844c-0.32812 0.60938-0.69922 1.2188-1.1016 1.8203l-0.21875 0.32812-0.058594 0.070313c-0.28125 0.42969-0.58984 0.82031-0.89062 1.1992-0.070313 0.078126-0.12891 0.17188-0.19922 0.23828v0.007812c-0.035156 0.039063-0.070312 0.082032-0.097656 0.12891-0.42969 0.53125-0.89062 1-1.3398 1.5-0.089844 0.089844-0.17969 0.19141-0.26953 0.26953-0.089844 0.078125-0.28906 0.30078-0.44141 0.42969-0.35156 0.33984-0.69922 0.64844-1 0.94141l-0.73828 0.21875 0.078125 0.28906c-0.98438 0.78906-2.0391 1.4844-3.1484 2.082-0.16016 0.10156-0.32812 0.19141-0.48828 0.26953h-0.003907c-0.11328 0.0625-0.23047 0.12109-0.34766 0.16797-0.36719 0.20312-0.74219 0.38281-1.1328 0.53125-0.11328 0.066407-0.23437 0.12109-0.35937 0.16016h-0.089844c-0.67969 0.31641-1.375 0.58984-2.0898 0.82031l-0.32812 0.10938h-0.12891c-0.51953 0.14844-1 0.26953-1.5 0.37891h-0.47266c-0.69531 0.14453-1.3945 0.25-2.1016 0.3125h-0.35156l-0.67969 0.058594h-1.5 0.003906c-1.3867-0.003906-2.7695-0.12891-4.1328-0.37109l-0.51953-0.10156-0.41016-0.089844c-0.41016-0.078125-0.80078-0.17969-1.1719-0.28906l-0.32812-0.089843h-0.12891c-0.71875-0.21875-1.3906-0.44922-2-0.69922l-0.25 0.03125-0.16016-0.058594c-0.5-0.21094-1-0.42969-1.4219-0.67188l-0.21875-0.10938-0.19922-0.10938c-0.65234-0.33203-1.2852-0.70312-1.8906-1.1094-0.089844 0-0.17969-0.12109-0.26953-0.17969l-0.62109-0.42188c-1.4688-1.0625-2.8086-2.293-4-3.6602-0.12109-0.14844-0.23828-0.28125-0.35938-0.42188l-0.25-0.30078c-0.23047-0.28125-0.46875-0.58984-0.73047-0.94141-0.058594-0.10156-0.14062-0.19141-0.19922-0.30078l-0.078126-0.10156v0.007813c-0.41797-0.58203-0.80078-1.1875-1.1523-1.8125-0.050781-0.10156-0.10938-0.19141-0.17188-0.30078l0.003906 0.003907c-0.027344-0.039063-0.050781-0.078125-0.070312-0.12109-0.26172-0.46875-0.5-0.92188-0.71875-1.3984l-0.19141-0.24219c-0.03125-0.0625-0.058593-0.125-0.082031-0.19141-0.29297-0.65234-0.55469-1.3203-0.77734-2l-0.12109-0.33984c-0.058593-0.21094-0.12891-0.42969-0.19141-0.64844-0.14844-0.48047-0.26953-1-0.39062-1.4883v-0.003906c-0.30469-1.3516-0.48828-2.7305-0.54688-4.1172v-0.62109c-0.011718-0.11328-0.011718-0.22656 0-0.33984-0.007812-0.085938-0.007812-0.17188 0-0.26172v-1-0.44141 0.003906c-0.007812-0.023437-0.007812-0.046875 0-0.070312 0-0.73047 0.12109-1.4492 0.23047-2.1602 0-0.14062 0.050781-0.26953 0.070313-0.41016 0.019531-0.14062 0-0.050781 0-0.078125 0.078124-0.53125 0.17969-1 0.30078-1.5117h-0.003907c0.03125-0.10937 0.070313-0.21484 0.10938-0.32031v-0.14062c0.16406-0.64844 0.36719-1.2852 0.60156-1.9102 0-0.12891 0.10156-0.26953 0.14062-0.39844 0.039063-0.12891 0.12891-0.32812 0.19141-0.5 0.17188-0.42969 0.35156-0.85938 0.55859-1.2812 0.10547-0.23828 0.22266-0.47266 0.34766-0.69922 0.03125-0.089843 0.078125-0.17187 0.13281-0.25 0.60938-1.1484 1.3242-2.2383 2.1289-3.2617 0.11719-0.1875 0.25391-0.37109 0.39844-0.53906l0.19922-0.26172c0.32031-0.39062 0.64062-0.76172 1-1.1094 0.12109-0.14063 0.25-0.28125 0.37109-0.39844 0.48828-0.51172 1-1 1.5391-1.4492l0.39844-0.35156c0.37891-0.30859 0.76172-0.60938 1.1602-0.89844 0.10938-0.089843 0.23828-0.17188 0.35938-0.26172h0.054688c0.48828-0.36328 1-0.69531 1.5312-1 0.14844-0.10156 0.28906-0.17187 0.42969-0.25l0.39844-0.21875c0.57031-0.32031 1.1719-0.60156 1.7617-0.85937l0.71094-0.28125 0.26953-0.10938h-0.003906c1.2109-0.46484 2.4609-0.82812 3.7305-1.082 0.23828-0.058593 0.46875-0.10156 0.71094-0.14062l0.28906-0.050781c0.58984-0.089844 1.1719-0.16016 1.7188-0.21094l0.64062-0.050782h0.16016l1.1719-0.035156h1.25c0.44922 0 0.89844 0.070312 1.3281 0.12109l0.51172 0.058594c0.55078 0.070312 1.1016 0.17187 1.6484 0.28125l0.5 0.10156 0.42188 0.10938c0.70703 0.16016 1.4062 0.36328 2.0898 0.60938 0.23047 0.070312 0.44922 0.16016 0.67969 0.23828l0.28125 0.12109c1.1992 0.46484 2.3555 1.0352 3.4609 1.6992l0.62109 0.37891 0.25 0.17188c0.5 0.32812 1 0.66016 1.4219 1h-0.003906c0.17187 0.12109 0.33984 0.25 0.5 0.39062l0.10156 0.078125 0.14062 0.10938c0.42969 0.37109 0.83984 0.73047 1.2188 1.1016 0.13672 0.11719 0.26562 0.24609 0.38672 0.37891 0.30859 0.30859 0.62109 0.64062 0.91016 1 0.12109 0.125 0.23047 0.25391 0.33203 0.39062 0.37891 0.42969 0.73047 0.87891 1.0586 1.3203l0.28125 0.39062 0.26953 0.37891c0.37109 0.55078 0.73047 1.1289 1.0781 1.7305 0.12109 0.19922 0.21875 0.39844 0.33984 0.60938 0.12109 0.21094 0.10156 0.19922 0.14062 0.30078 0.58203 1.1172 1.0586 2.2852 1.4297 3.4883 0.085937 0.20703 0.15625 0.41797 0.21094 0.63281 0 0.10938 0.070313 0.21875 0.10156 0.32031 0.14062 0.5 0.26172 1 0.37109 1.5l0.089844 0.53906c0.003906 0.027344 0.003906 0.054688 0 0.078125 0.12891 0.64453 0.21875 1.2969 0.27734 1.9492v0.48828 0.003906c0.054687 0.47266 0.078125 0.94531 0.082031 1.418v0.37891 0.13281c0 0.58984 0 1.1992-0.078125 1.8086v0.44141 0.51172c-0.070313 0.57031-0.14844 1.1289-0.25 1.6797zm12.262-7.3984v-0.003906c-0.91016 0.72656-1.7148 1.5742-2.3906 2.5195-0.59766 1.0039-1.5352 1.7656-2.6406 2.1406-1.3633 0.33594-2.7969 0.27344-4.1289-0.17969-0.55469-0.14453-1.1133-0.25781-1.6797-0.33984 0-0.53125 0.070312-1.0586 0.070312-1.5703 0.097657 0.003907 0.18359-0.058593 0.21875-0.14844 0.027344-0.054687 0.03125-0.12109 0.011719-0.17969-0.023438-0.058594-0.066406-0.10547-0.12109-0.13281h-0.10156v-1.2812 0.003906c0.3125 0.1875 0.60938 0.40625 0.88281 0.64844 0.097656 0.085937 0.24219 0.085937 0.33984 0 0.042969-0.042969 0.070312-0.10547 0.070312-0.16797 0-0.066406-0.027343-0.125-0.070312-0.17188-0.39453-0.34766-0.83594-0.63672-1.3125-0.85938 0-0.62109-0.10938-1.2109-0.21094-1.7695l0.26172 0.19922c0.65625 0.51953 1.3555 0.97656 2.0898 1.3711 0.039063 0.007813 0.082031 0.007813 0.12109 0 0.085937-0.003906 0.16406-0.050781 0.21094-0.12109 0.054688-0.11719 0.007813-0.26172-0.11328-0.32031-0.70312-0.38672-1.3711-0.83594-2-1.3398l-0.64844-0.48047v-0.089843c-0.10938-0.62109-0.23828-1.2305-0.39844-1.8398 1.2266 0.29297 2.3438 0.93359 3.207 1.8516 0.92188 1.0078 2.168 1.6523 3.5234 1.8281 1.8086 0.16016 3-0.67969 4.2109-1.5781h-0.003906c1.1172-0.92188 2.4453-1.5586 3.8594-1.8516 2.0859-0.30469 4.2148 0.09375 6.043 1.1406-3.3203-0.19141-6.6055 0.76953-9.3008 2.7188z"/>
  <path d="m81.09 48.711c-0.97656-0.16797-1.9336-0.44531-2.8516-0.83203-0.12109-0.046875-0.25781 0.011719-0.30859 0.13281-0.027344 0.054687-0.027344 0.12109-0.003907 0.17969 0.027344 0.0625 0.074219 0.10547 0.13281 0.12891 0.96484 0.39844 1.9727 0.6875 3 0.85938 0.11328 0 0.20703-0.082032 0.23047-0.19141 0.011719-0.0625-0.003906-0.12891-0.039062-0.17969-0.039062-0.054688-0.097656-0.089844-0.16016-0.097656z"/>
  <path d="m83.93 47.129c-0.125-0.03125-0.25391 0.042969-0.28906 0.17188-0.21484 0.76172-0.85547 1.3242-1.6406 1.4375-0.13281 0-0.23828 0.10938-0.23828 0.24219 0 0.13281 0.10547 0.23828 0.23828 0.23828 0.95703-0.15234 1.7383-0.85156 2-1.7891 0.050781-0.10156 0.023438-0.23047-0.070312-0.30078z"/>
  <path d="m84.672 46.441c-0.089844 0.058594-0.12891 0.16797-0.097656 0.26953 0.03125 0.10547 0.12891 0.17187 0.23438 0.16797 0.046875-0.003906 0.09375-0.019531 0.13281-0.050781 0.38672-0.26172 0.78906-0.50391 1.207-0.71875 1.7773-0.91797 3.7617-1.3633 5.7617-1.2891 0.0625 0.003907 0.12109-0.015624 0.16797-0.058593 0.046875-0.039063 0.070313-0.10156 0.070313-0.16016 0.007812-0.0625-0.011719-0.125-0.054688-0.17187-0.042969-0.050782-0.10156-0.078126-0.16406-0.078126-2.082-0.085937-4.1523 0.375-6 1.3398-0.43359 0.22266-0.85547 0.47266-1.2578 0.75z"/>
  <path d="m69.621 30.578h0.078125c0.98047-0.3125 1.9219-0.72656 2.8125-1.2383 0.058593-0.03125 0.10156-0.085938 0.11719-0.14844 0.015625-0.066406 0.007813-0.13672-0.027344-0.19141-0.03125-0.054688-0.085937-0.097656-0.14844-0.11328-0.0625-0.019531-0.12891-0.007813-0.18359 0.023437-0.85938 0.49609-1.7734 0.89844-2.7188 1.1992-0.10156 0.042969-0.16016 0.14844-0.14453 0.25781 0.015625 0.10937 0.10547 0.19141 0.21484 0.20312z"/>
  <path d="m73.199 28.73c0.066406 0 0.12891-0.03125 0.17188-0.082031 0.32812-0.34766 0.54688-0.78516 0.62891-1.2578 0.0625-0.47266-0.003906-0.95312-0.19922-1.3906-0.019531-0.066406-0.066406-0.12109-0.13281-0.15234-0.0625-0.027344-0.13672-0.027344-0.19922 0-0.0625 0.03125-0.11328 0.085938-0.12891 0.15234-0.019532 0.070312-0.007813 0.14062 0.03125 0.19922 0.16016 0.35156 0.21484 0.73828 0.16016 1.1211-0.058594 0.37109-0.21875 0.71484-0.46094 1-0.058593 0.070313-0.070312 0.16797-0.03125 0.25 0.039063 0.082032 0.12109 0.13672 0.21094 0.14063z"/>
  <path d="m73.73 25.172h0.058593c0.097657-0.011719 0.18359-0.078125 0.21094-0.17188 0.12109-0.45312 0.27344-0.89844 0.44922-1.3281 0.77734-1.8477 2.0195-3.457 3.6094-4.6719 0.089844-0.097656 0.089844-0.24219 0-0.33984-0.089844-0.085937-0.23438-0.085937-0.32812 0-1.6367 1.2617-2.9219 2.9258-3.7305 4.8281-0.18359 0.45703-0.33984 0.92188-0.46875 1.3906-0.019531 0.066406-0.007812 0.13672 0.03125 0.19141 0.039062 0.058594 0.10156 0.09375 0.16797 0.10156z"/>
  <path d="m51.77 60.172c-0.6875 0.11719-1.3125 0.46875-1.7695 1-0.44922-0.53516-1.0742-0.88672-1.7617-1-0.80859-0.10156-1.4688 0.26953-3.5312 1.6602-0.85938 0.57812-1.5703 1.0781-2.0898 1.4492l0.41016 0.57812 1.1289-0.78906h0.003906c1.4219 1.7031 3.5039 2.7148 5.7188 2.7812h0.12109c2.2578-0.050781 4.3867-1.0625 5.8516-2.7812l1.1211 0.78906 0.42188-0.57812c-0.51953-0.37109-1.2383-0.87109-2.1016-1.4492-2.0547-1.3906-2.7344-1.7617-3.5234-1.6602zm-3.6211 0.69922c0.61328 0.12891 1.1523 0.48828 1.5117 1-0.003906 0.019531-0.003906 0.039062 0 0.058594 0.074219 0.11328 0.20312 0.17969 0.33984 0.17969s0.26562-0.066406 0.33984-0.17969c0.007812-0.035157 0.007812-0.074219 0-0.10938 0.36328-0.46875 0.87891-0.78516 1.4609-0.89844 0.48828 0 0.94922 0.14062 2.8984 1.4492-1.6211 0.16016-3.2695 0.25-4.8789 0.25-1.6094 0-3.0781-0.10156-4.6211-0.25 2-1.3711 2.4609-1.5625 2.9492-1.5zm1.7383 4.2617 0.003906-0.003906c-1.8164-0.046875-3.5391-0.8125-4.7891-2.1289 1.5781 0.14844 3.1797 0.23828 4.7695 0.23828s3.3594-0.078125 5-0.23828c-1.3086 1.3477-3.1016 2.1172-4.9805 2.1289z"/>
  <path d="m46.648 67.461 0.44922 0.55078h0.003906c0.90625-0.71875 2.0469-1.0742 3.1992-1 0.94922 0.054687 1.8594 0.40234 2.5977 1l0.46094-0.55078c-0.85156-0.70313-1.8984-1.1211-3-1.1992-1.3438-0.078125-2.6641 0.35156-3.7109 1.1992z"/>
  <path d="m64.172 43.551c-1.6016-0.60156-3.3516-0.69141-5-0.25-1.2109 0.33594-2.3281 0.9375-3.2734 1.7578-0.066407 0.066406-0.10156 0.15625-0.10156 0.25s0.035156 0.1875 0.10156 0.25c0.066406 0.078125 0.16016 0.125 0.26172 0.13281 0.089844 0 0.17188-0.03125 0.23828-0.089844 2.0703-1.8359 4.9883-2.3672 7.5703-1.3828 0.40234 0.15234 0.79297 0.33984 1.1602 0.5625 0.16797 0.070312 0.35938 0.007812 0.45312-0.14453 0.09375-0.15234 0.058594-0.35156-0.082031-0.46484-0.42578-0.24219-0.87109-0.44922-1.3281-0.62109z"/>
  <path d="m68.109 46.898c-0.40234 0.12891-0.83984 0.078124-1.1992-0.13672l-0.23047-0.21875v-0.003907c0.21484-0.054687 0.42187-0.14453 0.60937-0.25781 0.44531-0.30469 0.76953-0.76172 0.91016-1.2812-0.21875 0.45703-0.60547 0.81641-1.0781 1-0.36328 0.125-0.75781 0.125-1.1211 0-0.26172-0.19141-0.53125-0.36719-0.80859-0.53125 0.074219-0.03125 0.14844-0.066406 0.21875-0.10938 0.47656-0.30469 0.80078-0.80078 0.89062-1.3594-0.20312 0.46484-0.58594 0.82422-1.0625 1-0.28125 0.085938-0.58594 0.085938-0.86719 0l-0.39844-0.16016h-0.003906c-0.95703-0.35156-1.9805-0.49219-3-0.41797-2.5898 0.28125-4.8828 1.8125-6.1406 4.0977l-0.12109 0.23047 0.19141 0.19141c1.625 1.5391 3.7656 2.4102 6 2.4492h0.38281c1.0781-0.050781 2.1367-0.3125 3.1172-0.76172 0.42578-0.13672 0.88672-0.10938 1.293 0.082032 0.45703 0.21484 0.8125 0.59766 1 1.0703-0.078125-0.54297-0.35938-1.0352-0.79297-1.3711-0.15234-0.125-0.32422-0.22266-0.50781-0.28906l0.32812-0.19922c0.41016-0.12891 0.85938-0.070313 1.2227 0.15625 0.41406 0.27734 0.69141 0.71094 0.76953 1.2031 0.027343-0.54688-0.16797-1.082-0.53906-1.4805-0.19922-0.19922-0.4375-0.35156-0.70312-0.44141 0.46094-0.37891 0.88281-0.80078 1.2617-1.2578l0.16016-0.21094-0.14844-0.21094-0.17969-0.25h-0.003906c0.25391-0.027344 0.49219-0.10938 0.71094-0.23828 0.46484-0.28516 0.78906-0.75391 0.89062-1.293-0.19141 0.46875-0.57422 0.83594-1.0508 1zm-7.3281-1.5586c0.71875 0.039062 1.3477 0.50391 1.5977 1.1836 0.25 0.67969 0.070313 1.4414-0.45312 1.9375-0.52344 0.49609-1.2969 0.63281-1.9609 0.34766-0.66406-0.28125-1.0938-0.9375-1.0938-1.6602 0.011718-0.49219 0.21875-0.96094 0.57812-1.3008s0.83594-0.51953 1.332-0.50781zm0.48047 5.3711c-2.1016 0.0625-4.1445-0.67578-5.7109-2.0703 0.73047-1.1797 1.7656-2.1406 3-2.7812-0.24219 0.38672-0.375 0.83594-0.37891 1.2891 0 1.4492 1.1719 2.6211 2.6172 2.6211 1.4492 0 2.6211-1.1719 2.6211-2.6211-0.003906-0.75391-0.35547-1.4648-0.94922-1.9297 1.1484 0.19141 2.2344 0.66016 3.1602 1.3711 0.51172 0.37891 0.97266 0.82031 1.3789 1.3086-1.4609 1.668-3.5273 2.6836-5.7383 2.8125z"/>
  <path d="m35.84 43.551c-0.44141 0.16797-0.86328 0.375-1.2695 0.62109-0.16797 0.097656-0.22656 0.31641-0.125 0.48438 0.097657 0.16797 0.31641 0.22266 0.48438 0.125 0.37109-0.22266 0.75781-0.41016 1.1602-0.5625 2.5859-0.98438 5.5078-0.45312 7.582 1.3828 0.058594 0.058594 0.14453 0.089844 0.22656 0.089844 0.10547-0.003906 0.20312-0.050781 0.27344-0.13281 0.066406-0.0625 0.10156-0.15625 0.10156-0.25s-0.035157-0.18359-0.10156-0.25c-2.2695-2.0078-5.4648-2.5898-8.293-1.5078z"/>
  <path d="m45.34 48.781-0.12109-0.23047c-1.2539-2.2852-3.5469-3.8164-6.1406-4.1016-1.1875-0.089844-2.3789 0.10938-3.4688 0.58984-0.27344 0.074219-0.5625 0.074219-0.83984 0-0.48047-0.16797-0.86719-0.53125-1.0703-1 0.11328 0.54297 0.44141 1.0117 0.91016 1.3008 0.070313 0.042968 0.14453 0.074218 0.21875 0.10156-0.28516 0.16797-0.5625 0.35547-0.82812 0.55859-0.36719 0.125-0.76562 0.125-1.1289 0-0.47266-0.1875-0.85547-0.54297-1.082-1 0.13672 0.53125 0.46484 0.99219 0.92188 1.3008 0.1875 0.11719 0.39453 0.20703 0.60937 0.25781-0.085937 0.074218-0.16406 0.14844-0.24219 0.23047-0.35938 0.20703-0.78906 0.25391-1.1875 0.13281-0.45703-0.18359-0.82031-0.54297-1-1 0.10938 0.53125 0.4375 1 0.89844 1.2891 0.21875 0.12891 0.46094 0.21094 0.71094 0.23828-0.10938 0.12891-0.17188 0.23047-0.19141 0.25l-0.14844 0.21094 0.17188 0.21094h-0.003906c0.37891 0.45703 0.79688 0.87891 1.25 1.2578-0.25781 0.09375-0.49219 0.24609-0.6875 0.44141-0.38281 0.39453-0.57812 0.93359-0.53906 1.4805 0.070313-0.48828 0.34766-0.92578 0.75781-1.1992 0.36328-0.19922 0.78906-0.23437 1.1797-0.10156l0.32813 0.19922h0.003906c-0.18359 0.070312-0.35547 0.16797-0.51172 0.28906-0.42188 0.34375-0.70312 0.83203-0.78906 1.3711 0.1875-0.46875 0.54297-0.85156 1-1.0703 0.40234-0.1875 0.86328-0.21875 1.2891-0.078124 0.98438 0.44922 2.043 0.70703 3.1211 0.75781h0.37891c2.2539-0.039062 4.4062-0.91797 6.0391-2.4688zm-6.1211-3.4414c0.72266 0.039062 1.3516 0.50391 1.6016 1.1836 0.24609 0.67969 0.070313 1.4414-0.45703 1.9375-0.52344 0.49609-1.293 0.63281-1.957 0.34766-0.66406-0.28125-1.0938-0.9375-1.0977-1.6602 0.015625-0.49219 0.22266-0.96094 0.58203-1.3008s0.83594-0.51953 1.3281-0.50781zm-0.46875 5.3711c-2.2148-0.13281-4.2852-1.1445-5.75-2.8125 0.40234-0.48828 0.86328-0.92578 1.3711-1.3086 0.92188-0.70312 2.0039-1.1719 3.1484-1.3594-0.58984 0.46484-0.94141 1.1758-0.94922 1.9297 0 1.4453 1.1719 2.6211 2.6211 2.6211 1.4453 0 2.6172-1.1758 2.6172-2.6211 0-0.45703-0.13281-0.90625-0.37891-1.2891 1.2305 0.63672 2.2695 1.5977 3 2.7773-1.5625 1.3867-3.5938 2.1211-5.6797 2.0625z"/>
  <path d="m34 43.191c2.6602-2.3594 6.1719-3.0703 8.7383-1.75 2.5703 1.3203 3.7383 4.4102 3.7695 6.8984h0.003907c-0.054688 1.6055-0.40625 3.1875-1.043 4.6602-0.53906 1.4492-0.92969 2.4883-0.23047 3.0703 0.22266 0.17188 0.49219 0.25781 0.77344 0.25 0.41797 0.035157 0.83594 0.11719 1.2383 0.23828 0.60938 0.17969 1.1992 0.42578 1.75 0.74219l0.089844 0.050781h1.8789c0.65625-0.27344 1.3242-0.51172 2-0.71094 0.57812-0.17188 0.92969-0.23828 1.1484-0.28906h0.003906c0.23438-0.023437 0.46094-0.11328 0.64844-0.26172 0.71094-0.62891 0.28906-1.7383-0.25-3.1602-0.64844-1.4375-1.0117-2.9844-1.0781-4.5586 0-2.4883 1.2109-5.5898 3.7812-6.8984 2.5703-1.3086 6.0781-0.60938 8.7383 1.75v-0.003906c0.14453 0.13281 0.37109 0.11719 0.5-0.027344 0.0625-0.070312 0.09375-0.16406 0.085937-0.25781-0.003906-0.09375-0.046875-0.17969-0.11719-0.24219-2.8789-2.5586-6.7109-3.3008-9.5391-1.8594-2.8281 1.4414-4.1289 4.8281-4.1602 7.5312v-0.003906c0.066406 1.668 0.44531 3.3047 1.1211 4.832 0.42969 1.1094 0.78906 2.0586 0.44922 2.3594-0.050781 0-0.070312 0-0.32031 0.10156-0.25 0.10156-0.60156 0.12891-1.2109 0.30859-0.67969 0.19922-1.3477 0.4375-2 0.71094h-1.5c-0.57031-0.32812-1.1797-0.58594-1.8086-0.77344-0.44531-0.14063-0.90625-0.22656-1.3711-0.25781-0.26172 0-0.32812 0-0.39062-0.089844-0.30859-0.26172 0.058593-1.2383 0.44922-2.2695 0.67969-1.5586 1.0586-3.2266 1.1211-4.9219 0-2.6992-1.3281-6.0781-4.1602-7.5312-2.8281-1.4492-6.6602-0.69922-9.5391 1.8594v0.003906c-0.085937 0.058594-0.13672 0.15234-0.14844 0.25391-0.011719 0.10156 0.019531 0.20313 0.089844 0.28125 0.070312 0.074219 0.16797 0.11719 0.26953 0.11719 0.10547 0 0.19922-0.046875 0.26953-0.125z"/>
 </g>
</svg>
