<svg width="89" height="44" viewBox="0 0 89 44" fill="none" xmlns="http://www.w3.org/2000/svg">
<rect x="88.9707" y="43.1196" width="76.5321" height="29.025" rx="8.79679" transform="rotate(180 88.9707 43.1196)" fill="#FA8F54"/>
<path d="M6.43683 7.7542C6.26744 6.47637 7.48462 5.45632 8.71339 5.84633L16.8233 8.42044C18.1459 8.84026 18.4847 10.5542 17.4212 11.4455L10.4293 17.305C9.36575 18.1963 7.73708 17.5633 7.55476 16.1879L6.43683 7.7542Z" fill="#FA8F54"/>
<path d="M36.2754 33.3719V24.4152H39.8616C40.5206 24.4152 41.0701 24.5129 41.5104 24.7082C41.9507 24.9036 42.2816 25.1747 42.5032 25.5217C42.7248 25.8657 42.8355 26.2622 42.8355 26.7113C42.8355 27.0611 42.7656 27.3687 42.6256 27.634C42.4857 27.8964 42.2932 28.1122 42.0483 28.2813C41.8063 28.4475 41.5294 28.5656 41.2174 28.6356V28.723C41.5585 28.7376 41.8778 28.8338 42.1752 29.0117C42.4755 29.1895 42.7189 29.4388 42.9055 29.7595C43.0921 30.0773 43.1854 30.4563 43.1854 30.8966C43.1854 31.3718 43.0673 31.7961 42.8312 32.1693C42.5979 32.5395 42.2524 32.8326 41.7947 33.0483C41.3369 33.2641 40.7728 33.3719 40.1022 33.3719H36.2754ZM38.1691 31.8238H39.7129C40.2407 31.8238 40.6255 31.7232 40.8675 31.522C41.1095 31.3179 41.2305 31.0468 41.2305 30.7085C41.2305 30.4607 41.1707 30.242 41.0512 30.0525C40.9317 29.863 40.7611 29.7143 40.5395 29.6064C40.3208 29.4986 40.0599 29.4446 39.7567 29.4446H38.1691V31.8238ZM38.1691 28.1632H39.573C39.8325 28.1632 40.0628 28.118 40.264 28.0276C40.4681 27.9343 40.6284 27.8031 40.7451 27.634C40.8646 27.4649 40.9244 27.2623 40.9244 27.0261C40.9244 26.7025 40.8092 26.4416 40.5789 26.2433C40.3515 26.045 40.0278 25.9459 39.608 25.9459H38.1691V28.1632ZM47.4178 33.5032C46.7384 33.5032 46.151 33.3588 45.6553 33.0702C45.1626 32.7786 44.7821 32.3734 44.5138 31.8544C44.2456 31.3325 44.1115 30.7275 44.1115 30.0394C44.1115 29.3455 44.2456 28.7391 44.5138 28.2201C44.7821 27.6982 45.1626 27.2929 45.6553 27.0043C46.151 26.7127 46.7384 26.5669 47.4178 26.5669C48.0971 26.5669 48.6832 26.7127 49.1759 27.0043C49.6715 27.2929 50.0535 27.6982 50.3217 28.2201C50.59 28.7391 50.7241 29.3455 50.7241 30.0394C50.7241 30.7275 50.59 31.3325 50.3217 31.8544C50.0535 32.3734 49.6715 32.7786 49.1759 33.0702C48.6832 33.3588 48.0971 33.5032 47.4178 33.5032ZM47.4265 32.0599C47.7356 32.0599 47.9936 31.9725 48.2006 31.7975C48.4076 31.6197 48.5636 31.3777 48.6686 31.0715C48.7765 30.7654 48.8304 30.417 48.8304 30.0263C48.8304 29.6356 48.7765 29.2872 48.6686 28.981C48.5636 28.6749 48.4076 28.4329 48.2006 28.2551C47.9936 28.0772 47.7356 27.9883 47.4265 27.9883C47.1146 27.9883 46.8522 28.0772 46.6393 28.2551C46.4294 28.4329 46.2705 28.6749 46.1626 28.981C46.0577 29.2872 46.0052 29.6356 46.0052 30.0263C46.0052 30.417 46.0577 30.7654 46.1626 31.0715C46.2705 31.3777 46.4294 31.6197 46.6393 31.7975C46.8522 31.9725 47.1146 32.0599 47.4265 32.0599ZM54.9707 33.5032C54.2913 33.5032 53.7038 33.3588 53.2082 33.0702C52.7154 32.7786 52.3349 32.3734 52.0667 31.8544C51.7985 31.3325 51.6644 30.7275 51.6644 30.0394C51.6644 29.3455 51.7985 28.7391 52.0667 28.2201C52.3349 27.6982 52.7154 27.2929 53.2082 27.0043C53.7038 26.7127 54.2913 26.5669 54.9707 26.5669C55.65 26.5669 56.236 26.7127 56.7288 27.0043C57.2244 27.2929 57.6064 27.6982 57.8746 28.2201C58.1428 28.7391 58.2769 29.3455 58.2769 30.0394C58.2769 30.7275 58.1428 31.3325 57.8746 31.8544C57.6064 32.3734 57.2244 32.7786 56.7288 33.0702C56.236 33.3588 55.65 33.5032 54.9707 33.5032ZM54.9794 32.0599C55.2885 32.0599 55.5465 31.9725 55.7535 31.7975C55.9605 31.6197 56.1165 31.3777 56.2214 31.0715C56.3293 30.7654 56.3833 30.417 56.3833 30.0263C56.3833 29.6356 56.3293 29.2872 56.2214 28.981C56.1165 28.6749 55.9605 28.4329 55.7535 28.2551C55.5465 28.0772 55.2885 27.9883 54.9794 27.9883C54.6674 27.9883 54.405 28.0772 54.1922 28.2551C53.9823 28.4329 53.8234 28.6749 53.7155 28.981C53.6105 29.2872 53.558 29.6356 53.558 30.0263C53.558 30.417 53.6105 30.7654 53.7155 31.0715C53.8234 31.3777 53.9823 31.6197 54.1922 31.7975C54.405 31.9725 54.6674 32.0599 54.9794 32.0599ZM61.1765 31.4389L61.1809 29.2041H61.452L63.6038 26.6544H65.7423L62.8515 30.0307H62.4098L61.1765 31.4389ZM59.4884 33.3719V24.4152H61.3514V33.3719H59.4884ZM63.6868 33.3719L61.7101 30.4461L62.9521 29.1297L65.8692 33.3719H63.6868Z" fill="white"/>
</svg>
