<?xml version="1.0" encoding="UTF-8"?>
<svg width="100pt" height="100pt" version="1.1" viewBox="0 0 100 100" xmlns="http://www.w3.org/2000/svg">
 <g>
  <path d="m5 0h90c2.7617 0 5 2.7617 5 5v90c0 2.7617-2.2383 5-5 5h-90c-2.7617 0-5-2.7617-5-5v-90c0-2.7617 2.2383-5 5-5z" fill="#3b70fd"/>
  <path d="m24.906 31.129c0.18359 0.29297 0.57422 0.38281 0.86719 0.19922 13.082-8.207 32.309-6.6289 42.863 3.5195 3.8359 3.6875 5.7344 8.7266 5.207 13.828-0.56641 5.4805-3.8008 10.453-8.8828 13.641-8.2891 5.1992-20.469 4.2031-27.152-2.2266-2.3906-2.2969-3.5547-5.082-3.2695-7.8398 0.3125-3.0391 2.3047-5.8555 5.6055-7.9258 0.29297-0.18359 0.38281-0.57422 0.19922-0.86719s-0.57422-0.38281-0.86719-0.19922c-3.6367 2.2812-5.8359 5.4297-6.1914 8.8633-0.32422 3.1523 0.96875 6.3047 3.6445 8.8789 4.0352 3.8789 9.9492 5.8945 15.91 5.8945 4.5 0 9.0234-1.1484 12.785-3.5078 5.4102-3.3945 8.8633-8.7109 9.4648-14.578 0.56641-5.4883-1.4688-10.906-5.5859-14.863-10.941-10.527-30.863-12.18-44.398-3.6836-0.29688 0.18359-0.38281 0.57031-0.19922 0.86719z" fill="#fff" />
  <path d="m30.488 66.059c6.2383 5.9961 15.387 9.1133 24.609 9.1133 6.9648 0 13.969-1.7773 19.793-5.4336 0.29297-0.18359 0.38281-0.57422 0.19922-0.86719-0.18359-0.29297-0.57422-0.38281-0.86719-0.19922-13.078 8.207-32.305 6.6289-42.863-3.5234-3.8359-3.6875-5.7344-8.7266-5.207-13.828 0.56641-5.4805 3.8008-10.453 8.8828-13.641 8.2891-5.1992 20.469-4.2031 27.152 2.2266 2.3906 2.2969 3.5508 5.082 3.2656 7.8438-0.3125 3.0391-2.3047 5.8555-5.6055 7.9258-0.29297 0.18359-0.38281 0.57422-0.19922 0.86719 0.18359 0.29297 0.57422 0.38281 0.86719 0.19922 3.6367-2.2812 5.8359-5.4297 6.1914-8.8633 0.32422-3.1523-0.96875-6.3047-3.6445-8.8789-7.0781-6.8047-19.953-7.875-28.695-2.3867-5.4102 3.3945-8.8633 8.7109-9.4648 14.578-0.56641 5.4922 1.4727 10.91 5.5859 14.867z" fill="#fff"/>
  <path d="m61.348 42.449c-0.070312-0.21094-0.24609-0.37109-0.46094-0.41797l-3.75-0.84375-1.9609-3.3047c-0.22656-0.38281-0.85547-0.38281-1.082 0l-1.9609 3.3047-3.75 0.84375c-0.21484 0.050781-0.39062 0.20703-0.46094 0.41797-0.070313 0.21094-0.019531 0.44531 0.125 0.60938l2.5391 2.8867-0.35547 3.8281c-0.019531 0.22266 0.078125 0.4375 0.25781 0.56641 0.17969 0.12891 0.41406 0.15625 0.62109 0.070312l3.5312-1.5234 3.5312 1.5234c0.078125 0.035156 0.16406 0.050782 0.25 0.050782 0.13281 0 0.26172-0.039063 0.37109-0.12109 0.17969-0.12891 0.27734-0.34766 0.25781-0.56641l-0.35547-3.8281 2.5391-2.8867c0.13281-0.16406 0.18359-0.39453 0.11328-0.60938zm-3.7891 2.8711c-0.11328 0.12891-0.17188 0.30078-0.15625 0.47266l0.28516 3.043-2.8047-1.2109c-0.078124-0.035156-0.16406-0.050781-0.25-0.050781-0.085937 0-0.16797 0.015625-0.25 0.050781l-2.8047 1.2109 0.28516-3.043c0.015625-0.17188-0.039062-0.34375-0.15625-0.47266l-2.0156-2.293 2.9805-0.67188c0.16797-0.039063 0.31641-0.14453 0.40234-0.29297l1.5586-2.6289 1.5586 2.6289c0.089844 0.14844 0.23438 0.25391 0.40234 0.29297l2.9805 0.67188z" fill="#fff"/>
  <path d="m46.629 48.277c-0.22266 0-0.42969 0.11719-0.54297 0.30859l-1.9609 3.3086-3.75 0.84375c-0.21484 0.050781-0.39062 0.20703-0.46094 0.41797-0.070312 0.21094-0.019531 0.44531 0.125 0.60938l2.5391 2.8867-0.35547 3.8281c-0.019531 0.22266 0.078125 0.4375 0.25781 0.56641 0.10938 0.078125 0.23828 0.12109 0.37109 0.12109 0.085938 0 0.16797-0.015625 0.25-0.050781l3.5312-1.5234 3.5312 1.5234c0.20313 0.089843 0.44141 0.0625 0.62109-0.070313 0.17969-0.12891 0.27734-0.34766 0.25781-0.56641l-0.36719-3.8281 2.5391-2.8867c0.14844-0.16797 0.19531-0.39844 0.125-0.60938-0.070313-0.21094-0.24609-0.37109-0.46094-0.41797l-3.75-0.84375-1.9609-3.3086c-0.11328-0.19141-0.31641-0.30859-0.53906-0.30859zm1.9609 4.7812 2.9805 0.67188-2.0156 2.293c-0.11328 0.12891-0.17188 0.30078-0.15625 0.47266l0.28516 3.0391-2.8047-1.2109c-0.16016-0.066407-0.33984-0.066407-0.5 0l-2.8047 1.2109 0.28516-3.0391c0.011719-0.17188-0.042969-0.34375-0.15625-0.47266l-2.0156-2.293 2.9805-0.67188c0.16797-0.039063 0.31641-0.14453 0.40234-0.29297l1.5586-2.6289 1.5586 2.6289c0.085938 0.15234 0.23047 0.25781 0.40234 0.29297z" fill="#fff"/>
 </g>
</svg>
