<?xml version="1.0" encoding="UTF-8"?>
<svg width="100pt" height="100pt" version="1.1" viewBox="0 0 100 100" xmlns="http://www.w3.org/2000/svg" fill="#3B71FE">
 <g>
  <path d="m10.152 20.035c0.29297 0.46484 0.91016 0.60938 1.3789 0.31641 20.77-13.035 51.301-10.527 68.062 5.5898 6.0898 5.8555 9.1016 13.859 8.2695 21.957-0.89844 8.7031-6.0391 16.602-14.105 21.66-13.16 8.2578-32.5 6.6719-43.117-3.5352-3.7969-3.6484-5.6406-8.0703-5.1875-12.449 0.5-4.8281 3.6602-9.2969 8.9023-12.586 0.46875-0.29297 0.60938-0.91016 0.31641-1.3789s-0.91016-0.60938-1.3789-0.31641c-5.7773 3.625-9.2656 8.625-9.8281 14.078-0.51562 5.0078 1.5391 10.012 5.7891 14.098 6.4062 6.1562 15.797 9.3594 25.266 9.3594 7.1445 0 14.328-1.8242 20.301-5.5703 8.5938-5.3906 14.07-13.828 15.031-23.152 0.89844-8.7148-2.3359-17.316-8.8711-23.602-17.387-16.715-49.016-19.34-70.512-5.8477-0.46875 0.29297-0.60938 0.91016-0.31641 1.3789z"/>
  <path d="m19.02 75.5c9.9062 9.5234 24.434 14.473 39.078 14.473 11.059 0 22.184-2.8203 31.43-8.625 0.46875-0.29297 0.60938-0.91016 0.31641-1.3789s-0.91016-0.60938-1.3789-0.31641c-20.77 13.031-51.297 10.523-68.062-5.5938-6.0898-5.8555-9.1016-13.859-8.2695-21.957 0.89844-8.7031 6.0391-16.602 14.105-21.66 13.16-8.2578 32.5-6.6719 43.117 3.5352 3.7969 3.6484 5.6406 8.0742 5.1875 12.453-0.5 4.8281-3.6602 9.2969-8.9023 12.586-0.46875 0.29297-0.60938 0.91016-0.31641 1.3789s0.91016 0.60938 1.3789 0.31641c5.7773-3.625 9.2656-8.625 9.8281-14.078 0.51562-5.0078-1.5391-10.012-5.7891-14.098-11.238-10.805-31.68-12.504-45.566-3.7891-8.5938 5.3906-14.07 13.828-15.031 23.152-0.89453 8.7148 2.3398 17.316 8.875 23.602z"/>
  <path d="m68.02 38.012c-0.10938-0.33594-0.38672-0.58984-0.73047-0.66797l-5.957-1.3398-3.1133-5.25c-0.35938-0.60938-1.3594-0.60547-1.7188 0l-3.1133 5.25-5.957 1.3398c-0.34375 0.078125-0.62109 0.33203-0.73047 0.66797-0.10938 0.33594-0.03125 0.70312 0.19922 0.96875l4.0312 4.5859-0.56641 6.0781c-0.03125 0.35156 0.125 0.69531 0.40625 0.90234 0.28516 0.20703 0.66016 0.25 0.98438 0.10938l5.6055-2.418 5.6094 2.418c0.125 0.054688 0.26172 0.082031 0.39453 0.082031 0.20703 0 0.41406-0.066406 0.58594-0.19141 0.28516-0.20703 0.44141-0.55078 0.40625-0.90234l-0.56641-6.0781 4.0312-4.5859c0.23047-0.26172 0.30859-0.63281 0.19922-0.96875zm-6.0195 4.5586c-0.17969 0.20703-0.26953 0.48047-0.24609 0.75391l0.45312 4.8281-4.4531-1.9219c-0.125-0.054688-0.26172-0.082031-0.39453-0.082031s-0.26953 0.027343-0.39453 0.082031l-4.4531 1.9219 0.45312-4.8281c0.023437-0.27344-0.0625-0.54688-0.24609-0.75391l-3.2031-3.6406 4.7344-1.0625c0.26953-0.0625 0.5-0.22656 0.64062-0.46484l2.4727-4.1719 2.4766 4.1719c0.14062 0.23828 0.37109 0.40625 0.64062 0.46484l4.7344 1.0625z"/>
  <path d="m44.645 47.262c-0.35156 0-0.67969 0.1875-0.85938 0.48828l-3.1133 5.25-5.957 1.3398c-0.34375 0.078125-0.62109 0.33203-0.73047 0.66797-0.10938 0.33594-0.03125 0.70313 0.19922 0.96875l4.0312 4.5859-0.56641 6.0781c-0.03125 0.35156 0.125 0.69531 0.40625 0.90234 0.17187 0.125 0.37891 0.19141 0.58594 0.19141 0.13281 0 0.26953-0.027344 0.39453-0.082031l5.6094-2.418 5.6055 2.418c0.32422 0.14062 0.69922 0.097656 0.98438-0.10938s0.44141-0.55078 0.40625-0.90234l-0.56641-6.0781 4.0312-4.5859c0.23438-0.26562 0.30859-0.63281 0.19922-0.96875-0.10938-0.33594-0.38672-0.58984-0.73047-0.66797l-5.957-1.3398-3.1133-5.25c-0.17969-0.30078-0.50391-0.48828-0.85938-0.48828zm3.1133 7.5977 4.7344 1.0625-3.2031 3.6406c-0.17969 0.20703-0.26953 0.48047-0.24609 0.75391l0.45312 4.8281-4.4531-1.9219c-0.25-0.10938-0.53906-0.10938-0.78906 0l-4.4531 1.9219 0.45312-4.8281c0.015625-0.26953-0.074218-0.54297-0.25391-0.75l-3.2031-3.6406 4.7344-1.0625c0.26953-0.0625 0.5-0.22656 0.64062-0.46484l2.4766-4.1719 2.4727 4.1719c0.13672 0.23437 0.37109 0.39844 0.63672 0.46094z"/>
 </g>
</svg>
