<svg width="24" height="24" viewBox="0 0 24 24" fill="none" xmlns="http://www.w3.org/2000/svg">
<g id="eBookIcon">
<path fill-rule="evenodd" clip-rule="evenodd" d="M19.241 6.75465C19.5102 6.87607 19.6973 7.14494 19.6973 7.45713V17.345C19.5549 17.3027 19.4031 17.2574 19.241 17.2088V6.75465ZM17.9935 4.80299C18.0187 4.801 18.0442 4.79999 18.07 4.79999H18.9189C20.3996 4.79999 21.6 5.98963 21.6 7.45713V18.6C21.6 19.2213 21.0043 19.6727 20.3993 19.5099C19.9942 19.4009 19.3891 19.224 18.5523 18.9725L18.4639 18.9459C18.3019 18.8971 17.9602 18.7938 17.6564 18.7018C15.8144 18.7965 14.1875 19.3103 12.7596 20.2441C12.4404 20.4528 12.0262 20.4519 11.708 20.2417C10.1892 19.2385 8.42375 18.7206 6.39102 18.6874C6.07609 18.7828 5.70659 18.8945 5.53606 18.9459L5.44764 18.9725C4.61092 19.224 4.00575 19.4009 3.60066 19.5099C2.9957 19.6727 2.39999 19.2213 2.39999 18.6V7.45713C2.39999 5.98963 3.60035 4.79999 5.08108 4.79999H5.94636C5.9862 4.79999 6.02546 4.80241 6.06401 4.80713C6.10253 4.80242 6.14177 4.8 6.18158 4.8C8.45589 4.8 10.4806 5.31475 12.2386 6.34465C13.9358 5.36036 15.8591 4.84633 17.9935 4.80299ZM5.23022 6.6857V17.0669C5.14553 17.0924 5.07243 17.1145 5.01877 17.1307L4.93724 17.1552C4.70683 17.2245 4.49608 17.2876 4.3027 17.345V7.45713C4.3027 7.03108 4.65119 6.6857 5.08108 6.6857H5.23022ZM7.1332 16.495V6.72159C8.68535 6.84106 10.0657 7.25924 11.2846 7.97617V15.9497C9.6537 15.9826 8.48249 16.137 7.22269 16.4703C7.19854 16.4767 7.16894 16.4849 7.1332 16.495ZM11.2508 17.8365C11.2621 17.8416 11.2733 17.8467 11.2846 17.8518V17.8357C11.2733 17.836 11.262 17.8362 11.2508 17.8365ZM13.1889 17.8502V17.8563C13.1931 17.8544 13.1972 17.8526 13.2013 17.8507C13.1972 17.8505 13.1931 17.8503 13.1889 17.8502ZM17.3403 16.6347V6.72232C15.8026 6.8429 14.4222 7.2618 13.1889 7.9796V15.9632C14.5801 16.0151 15.6428 16.1701 16.7773 16.4703C16.8705 16.495 17.0449 16.546 17.3403 16.6347ZM20.5639 18.6001C20.5639 18.5436 20.6181 18.5025 20.6731 18.5174C20.6383 18.508 20.602 18.4981 20.5639 18.4876V18.6001ZM3.4378 18.6001C3.4378 18.548 3.39178 18.5091 3.3415 18.5149L3.33295 18.5162L3.4378 18.4876V18.6001Z" fill="white"/>
</g>
</svg>
