

<svg width="25" height="24" viewBox="0 0 25 24" fill="none" xmlns="http://www.w3.org/2000/svg">
<g className="flightIcon">
<path d="M20.1835 6.46676C20.1842 5.97906 20.0401 5.50214 19.7695 5.09641C19.4988 4.69069 19.1139 4.37443 18.6633 4.1877C18.2128 4.00098 17.7169 3.95219 17.2386 4.04752C16.7604 4.14285 16.3211 4.37801 15.9766 4.7232L13.7292 6.97064L8.53846 5.24307C8.40026 5.19963 8.25286 5.19455 8.112 5.22836C7.97113 5.26216 7.84209 5.33359 7.73866 5.43502L5.83514 7.32255C5.74495 7.41379 5.67803 7.52539 5.64003 7.64792C5.60202 7.77046 5.59406 7.90034 5.6168 8.0266C5.63955 8.15287 5.69233 8.2718 5.7707 8.37338C5.84907 8.47496 5.95072 8.55619 6.06708 8.61023L10.21 10.4898L8.13056 12.5692L6.76291 11.8814C6.61524 11.8015 6.44617 11.7701 6.27965 11.7916C6.11314 11.8131 5.95762 11.8865 5.83514 12.0014L4.4195 13.449C4.27053 13.5989 4.18692 13.8016 4.18692 14.0129C4.18692 14.2242 4.27053 14.4269 4.4195 14.5767L9.61019 19.7674C9.76004 19.9164 9.96276 20 10.1741 20C10.3853 20 10.5881 19.9164 10.7379 19.7674L12.1855 18.3518C12.3056 18.233 12.3849 18.0792 12.4122 17.9126C12.4395 17.7459 12.4134 17.5749 12.3375 17.424L11.6497 16.0564L13.7292 13.9769L15.6087 18.1198C15.6627 18.2362 15.744 18.3379 15.8455 18.4162C15.9471 18.4946 16.066 18.5474 16.1923 18.5701C16.3186 18.5929 16.4485 18.5849 16.571 18.5469C16.6935 18.5089 16.8051 18.442 16.8964 18.3518L18.7839 16.4643C18.8853 16.3608 18.9567 16.2318 18.9906 16.0909C19.0244 15.9501 19.0193 15.8027 18.9758 15.6645L17.2483 10.4738L19.4637 8.21033C19.6934 7.98204 19.8754 7.71029 19.999 7.41094C20.1226 7.11158 20.1853 6.79062 20.1835 6.46676ZM18.328 7.08261L15.7367 9.67396C15.6352 9.77739 15.5638 9.90643 15.53 10.0473C15.4962 10.1882 15.5013 10.3356 15.5447 10.4738L17.2723 15.6565L16.5524 16.3763L14.6729 12.2413C14.6196 12.1239 14.5386 12.0211 14.437 11.9417C14.3353 11.8623 14.2159 11.8087 14.0891 11.7854C13.9612 11.7621 13.8295 11.7703 13.7054 11.8093C13.5814 11.8483 13.4688 11.917 13.3772 12.0094L10.0821 15.3365C9.96377 15.4547 9.88549 15.607 9.85823 15.772C9.83097 15.937 9.85611 16.1064 9.93011 16.2563L10.5859 17.6L10.1381 18.0479L6.11507 14.0169L6.58695 13.601L7.95461 14.2888C8.10456 14.3628 8.27394 14.3879 8.43892 14.3607C8.60391 14.3334 8.7562 14.2551 8.87438 14.1368L12.1855 10.8097C12.2774 10.7185 12.3458 10.6064 12.3848 10.4829C12.4239 10.3595 12.4323 10.2284 12.4095 10.101C12.3867 9.97355 12.3333 9.85356 12.2539 9.75132C12.1745 9.64907 12.0714 9.56764 11.9536 9.514L7.78665 7.63447L8.50647 6.91465L13.6892 8.64222C13.8274 8.68565 13.9748 8.69074 14.1156 8.65693C14.2565 8.62312 14.3855 8.55169 14.489 8.45027L17.0803 5.85892C17.16 5.77742 17.2552 5.71266 17.3603 5.66845C17.4653 5.62425 17.5782 5.60147 17.6922 5.60147C17.8062 5.60147 17.919 5.62425 18.0241 5.66845C18.1291 5.71266 18.2243 5.77742 18.304 5.85892C18.3874 5.93621 18.4534 6.03041 18.4976 6.13523C18.5417 6.24005 18.563 6.35307 18.5599 6.46676C18.5643 6.57969 18.546 6.69235 18.5062 6.79811C18.4663 6.90387 18.4058 7.0006 18.328 7.08261Z" fill="#3B71FE"/>
</g>
</svg>
