<svg width="24" height="24" viewBox="0 0 24 24" fill="none" xmlns="http://www.w3.org/2000/svg">
<g className="hierarchyIcon">
<path d="M19.2727 14.1818H17.8182V12C17.8182 11.8071 17.7416 11.6221 17.6052 11.4857C17.4688 11.3494 17.2838 11.2727 17.0909 11.2727H12.7273V9.81818H14.1818C14.3747 9.81818 14.5597 9.74156 14.6961 9.60517C14.8325 9.46878 14.9091 9.28379 14.9091 9.09091V4.72727C14.9091 4.53439 14.8325 4.3494 14.6961 4.21301C14.5597 4.07662 14.3747 4 14.1818 4H9.81818C9.6253 4 9.44031 4.07662 9.30392 4.21301C9.16753 4.3494 9.09091 4.53439 9.09091 4.72727V9.09091C9.09091 9.28379 9.16753 9.46878 9.30392 9.60517C9.44031 9.74156 9.6253 9.81818 9.81818 9.81818H11.2727V11.2727H6.90909C6.71621 11.2727 6.53122 11.3494 6.39483 11.4857C6.25844 11.6221 6.18182 11.8071 6.18182 12V14.1818H4.72727C4.53439 14.1818 4.3494 14.2584 4.21301 14.3948C4.07662 14.5312 4 14.7162 4 14.9091V19.2727C4 19.4656 4.07662 19.6506 4.21301 19.787C4.3494 19.9234 4.53439 20 4.72727 20H9.09091C9.28379 20 9.46878 19.9234 9.60517 19.787C9.74156 19.6506 9.81818 19.4656 9.81818 19.2727V14.9091C9.81818 14.7162 9.74156 14.5312 9.60517 14.3948C9.46878 14.2584 9.28379 14.1818 9.09091 14.1818H7.63636V12.7273H16.3636V14.1818H14.9091C14.7162 14.1818 14.5312 14.2584 14.3948 14.3948C14.2584 14.5312 14.1818 14.7162 14.1818 14.9091V19.2727C14.1818 19.4656 14.2584 19.6506 14.3948 19.787C14.5312 19.9234 14.7162 20 14.9091 20H19.2727C19.4656 20 19.6506 19.9234 19.787 19.787C19.9234 19.6506 20 19.4656 20 19.2727V14.9091C20 14.7162 19.9234 14.5312 19.787 14.3948C19.6506 14.2584 19.4656 14.1818 19.2727 14.1818ZM8.36364 15.6364V18.5455H5.45455V15.6364H8.36364ZM10.5455 8.36364V5.45455H13.4545V8.36364H10.5455ZM18.5455 18.5455H15.6364V15.6364H18.5455V18.5455Z" fill="white"/>
</g>
</svg>
