<svg width="44" height="44" viewBox="0 0 44 44" fill="none" xmlns="http://www.w3.org/2000/svg">
<rect width="44" height="44" rx="22" fill="#F4F5F9"/>
<path fill-rule="evenodd" clip-rule="evenodd" d="M29 22H24V30H29C29.5523 30 30 29.5523 30 29V23C30 22.4477 29.5523 22 29 22ZM22 20V32H29C30.6569 32 32 30.6569 32 29V23C32 21.3431 30.6569 20 29 20H22Z" fill="#3B71FE"/>
<path d="M28 25C28 24.4477 27.5523 24 27 24C26.4477 24 26 24.4477 26 25C26 25.5523 26.4477 26 27 26C27.5523 26 28 25.5523 28 25Z" fill="#3B71FE"/>
<path d="M28 28C28 27.4477 27.5523 27 27 27C26.4477 27 26 27.4477 26 28C26 28.5523 26.4477 29 27 29C27.5523 29 28 28.5523 28 28Z" fill="#3B71FE"/>
<path fill-rule="evenodd" clip-rule="evenodd" d="M15 32C13.3431 32 12 30.6569 12 29V15C12 13.3431 13.3431 12 15 12H21C22.6569 12 24 13.3431 24 15V32H15ZM15 14H21C21.5523 14 22 14.4477 22 15V30H20V29C20 28.4477 19.5523 28 19 28H17C16.4477 28 16 28.4477 16 29V30H15C14.4477 30 14 29.5523 14 29V15C14 14.4477 14.4477 14 15 14Z" fill="#3B71FE"/>
<path d="M19 16C19.5523 16 20 16.4477 20 17C20 17.5523 19.5523 18 19 18H17C16.4477 18 16 17.5523 16 17C16 16.4477 16.4477 16 17 16H19Z" fill="#3B71FE"/>
<path d="M19 20C19.5523 20 20 20.4477 20 21C20 21.5523 19.5523 22 19 22H17C16.4477 22 16 21.5523 16 21C16 20.4477 16.4477 20 17 20H19Z" fill="#3B71FE"/>
<path d="M20 25C20 24.4477 19.5523 24 19 24H17C16.4477 24 16 24.4477 16 25C16 25.5523 16.4477 26 17 26H19C19.5523 26 20 25.5523 20 25Z" fill="#3B71FE"/>
</svg>
