<svg width="280" height="300" viewBox="0 0 280 300" fill="none" xmlns="http://www.w3.org/2000/svg">
<path d="M75.0983 29.2436C77.3393 24.1214 72.1778 17.0219 71.4589 13.3375C46.0095 6.65168 55.1486 27.3565 60.81 36.7922L68.089 37.601L68.4385 33.7039C68.4385 32.6138 73.5886 32.6944 75.0983 29.2436Z" fill="#F1B09B"/>
<path fill-rule="evenodd" clip-rule="evenodd" d="M71.4341 13.2138C71.5024 13.2005 71.5685 13.245 71.5818 13.3132C71.753 14.1903 72.1821 15.2712 72.7097 16.4888C72.8565 16.8277 73.0109 17.1769 73.1689 17.5347C73.5765 18.4569 74.0089 19.4351 74.4011 20.4366C74.4265 20.5014 74.3946 20.5744 74.3298 20.5998C74.2651 20.6252 74.192 20.5932 74.1667 20.5285C73.7765 19.5324 73.3476 18.5619 72.9408 17.6413C72.7821 17.2824 72.6269 16.9311 72.4786 16.5889C71.9521 15.3736 71.5118 14.2691 71.3347 13.3615C71.3213 13.2932 71.3659 13.2271 71.4341 13.2138ZM75.3567 23.8641C75.4248 23.8496 75.4917 23.8929 75.5062 23.9609C75.9011 25.8103 75.9331 27.6482 75.2131 29.2939C74.6816 30.5087 73.7139 31.2934 72.684 31.8431C71.8414 32.2929 70.9469 32.5902 70.2079 32.8358C70.0461 32.8896 69.8918 32.9409 69.7471 32.9908C69.6813 33.0134 69.6096 32.9785 69.587 32.9128C69.5643 32.847 69.5992 32.7754 69.665 32.7527C69.8141 32.7013 69.9715 32.6489 70.1354 32.5944C70.874 32.3488 71.7436 32.0596 72.5654 31.6209C73.5668 31.0864 74.4817 30.3373 74.9824 29.193C75.673 27.6143 75.649 25.8359 75.2599 24.0135C75.2454 23.9455 75.2887 23.8786 75.3567 23.8641Z" fill="#EC8E65"/>
<path d="M68.44 33.7041L68.0904 37.6012L65.72 37.3378C65.4972 37.3407 65.2556 37.3116 64.9902 37.2567L65.72 37.3378C66.9018 37.3224 67.5569 36.409 68.44 33.7041Z" fill="#EC8E65"/>
<path d="M78.7575 72.0502C78.7575 91.7995 71.7109 107.809 63.0184 107.809C54.3259 107.809 47.2793 91.7995 47.2793 72.0502C47.2793 52.301 54.3259 36.291 63.0184 36.291C86.69 36.291 78.7575 52.301 78.7575 72.0502Z" fill="#F6BC33"/>
<path d="M78.7573 77.4643L73.9727 65.7544L77.876 83.8858L78.7573 77.4643Z" fill="#D89B0E"/>
<path d="M113.033 23.742L112.349 24.7667L123.596 26.2957L120.59 20.8833L119.749 24.8301L113.288 23.6342C113.189 23.6159 113.089 23.6583 113.033 23.742Z" fill="#F0E898"/>
<path d="M111.317 24.5359L110.102 26.8408L123.073 26.025L111.575 24.404C111.47 24.3892 111.366 24.442 111.317 24.5359Z" fill="#D5482A"/>
<path d="M102.86 43.9163L110.235 26.5766L123.054 25.9433L114.9 45.0514L104.147 45.7506C103.168 45.8125 102.341 44.857 102.86 43.9163Z" fill="#EC6C47"/>
<path d="M114.835 45.1427L104.083 45.8419C103.103 45.9038 102.404 44.9082 102.795 44.0076C102.936 44.5331 104.306 45.2782 108.662 44.055C114.107 42.526 113.967 42.5972 116.104 38.1395C117.813 34.5734 120.616 30.4366 121.803 28.814L114.835 45.1427Z" fill="#EC8E67"/>
<path d="M123.053 25.9444L114.899 45.0525C115.549 45.5281 116.473 45.2754 116.79 44.535L124.847 25.7401L123.053 25.9444Z" fill="#B83013"/>
<path d="M124.848 25.7395L121.108 20.8623C120.906 20.5985 120.508 20.5996 120.307 20.8647L119.406 22.055L123.054 25.9438L124.848 25.7395Z" fill="#D5482A"/>
<path d="M124.848 25.7395L121.108 20.8623C120.906 20.5985 120.508 20.5996 120.307 20.8647L119.406 22.055C119.747 21.906 120.539 21.6295 120.62 21.7526C120.7 21.8757 124.848 25.7395 124.848 25.7395Z" fill="#EC6C47"/>
<path d="M116.752 53.237L105.024 47.3063L90.8709 65.7727C88.4895 59.1675 82.6219 44.3673 78.2002 40.1621C72.8158 35.0413 61.7339 36.6293 67.5975 51.8904C69.4903 57.252 72.2772 64.3559 74.6955 70.8944C81.9746 90.5756 97.2063 84.2399 101.25 81.0048C109.338 74.5347 116.752 53.237 116.752 53.237Z" fill="#F6BC33"/>
<path d="M105.024 47.3053C110.685 51.8885 115.268 54.4492 116.751 53.2362C118.234 52.0232 107.664 47.9909 105.024 47.3053Z" fill="#D89B0E"/>
<path d="M107.18 37.8711C105.697 39.4886 108.393 41.1328 108.393 44.2065C108.393 44.8509 107.186 47.3623 106.91 48.2503C108.683 49.3736 112.471 51.8898 115.032 51.8898C115.672 51.0496 116.459 50.1796 117.424 49.3024C122.984 44.2481 122.685 39.9193 122.416 36.0285L122.411 35.9576C122.142 32.0485 120.929 32.8573 118.233 37.0359C115.694 40.9714 112.437 42.354 111.628 41.6188C110.145 40.2708 108.662 36.2536 107.18 37.8711Z" fill="#F1B09B"/>
<path d="M115.032 51.8897C112.471 51.8897 108.683 49.3735 106.91 48.2502C107.024 47.8842 107.315 47.1719 107.315 47.1719C107.315 47.1719 114.054 51.2577 115.537 51.2577C115.359 51.47 115.191 51.6808 115.032 51.8897Z" fill="#EFF0EA"/>
<path fill-rule="evenodd" clip-rule="evenodd" d="M122.407 35.8952C122.442 35.8928 122.472 35.919 122.474 35.9536C122.476 35.9785 122.478 36.0034 122.479 36.0284C122.645 38.4283 122.823 41.01 121.621 43.8271C121.607 43.8591 121.57 43.874 121.538 43.8603C121.506 43.8467 121.492 43.8097 121.505 43.7777C122.695 40.9886 122.519 38.433 122.353 36.0294L122.349 35.9623C122.346 35.9276 122.372 35.8976 122.407 35.8952ZM119.936 46.5829C119.964 46.6039 119.969 46.6434 119.948 46.6711C119.289 47.5419 118.473 48.4341 117.466 49.3493C116.504 50.2241 115.719 51.0913 115.082 51.9283C115.061 51.956 115.021 51.9613 114.994 51.9403C114.966 51.9192 114.961 51.8797 114.982 51.852C115.624 51.0087 116.414 50.1359 117.382 49.2562C118.383 48.3455 119.194 47.459 119.848 46.5951C119.869 46.5674 119.908 46.5619 119.936 46.5829Z" fill="#3F487F"/>
<path fill-rule="evenodd" clip-rule="evenodd" d="M105.101 47.3417C105.156 47.3842 105.166 47.4633 105.124 47.5183L90.9699 65.8509C90.9418 65.8873 90.8961 65.9055 90.8507 65.8984C90.8053 65.8912 90.7674 65.8599 90.7518 65.8167C89.4947 62.3298 87.2655 56.5581 84.7912 51.2699C84.7617 51.2069 84.7889 51.132 84.8519 51.1025C84.9149 51.0731 84.9898 51.1002 85.0193 51.1632C87.4475 56.353 89.6392 62.0053 90.9107 65.5155L104.924 47.3644C104.967 47.3094 105.046 47.2992 105.101 47.3417Z" fill="#D89B0E"/>
<path fill-rule="evenodd" clip-rule="evenodd" d="M116.794 53.1179C116.859 53.1407 116.894 53.2125 116.871 53.2782L116.752 53.2368L116.634 53.1954C116.656 53.1297 116.728 53.095 116.794 53.1179ZM116.752 53.2368C116.634 53.1954 116.634 53.1952 116.634 53.1954L116.628 53.2106L116.612 53.2562C116.598 53.2966 116.577 53.3566 116.549 53.4352C116.492 53.5924 116.409 53.824 116.3 54.1211C116.082 54.7154 115.761 55.5718 115.35 56.6197C114.53 58.7157 113.351 61.5776 111.92 64.6411C110.49 67.7049 108.807 70.9686 106.979 73.8691C105.149 76.7714 103.178 79.3018 101.172 80.9063C101.118 80.9497 101.109 81.0289 101.153 81.0832C101.196 81.1375 101.275 81.1463 101.33 81.1029C103.368 79.4723 105.357 76.9141 107.192 74.0034C109.028 71.0909 110.715 67.817 112.149 64.7477C113.582 61.678 114.763 58.811 115.585 56.7115C115.996 55.6617 116.317 54.8037 116.536 54.208C116.646 53.9101 116.729 53.6778 116.786 53.5199C116.814 53.4409 116.835 53.3806 116.85 53.3399L116.866 53.2939L116.871 53.2785C116.871 53.2783 116.871 53.2782 116.752 53.2368Z" fill="#D89B0E"/>
<path d="M59.6778 52.0351C55.095 54.057 57.2512 60.9316 49.5678 62.8187C48.9619 62.9675 48.3572 63.0928 47.7559 63.1937L62.6432 36.397C66.2829 40.3042 64.2605 50.0131 59.6778 52.0351Z" fill="#3E4885"/>
<path d="M62.6432 36.3976C64.6921 29.6047 61.7543 25.0655 60.4062 23.7174C60.4062 23.7174 58.2495 23.0435 58.2495 20.8867C58.2495 17.2203 62.6978 16.3037 64.4501 19.4117C65.1242 20.6074 66.6272 20.8773 67.4956 20.6284C69.9647 19.9209 71.756 19.1873 73.212 18.3257L72.9424 17.6517L67.2809 19.6737C66.2923 18.0112 63.5334 14.9828 60.4062 16.169C56.4973 17.6518 52.4789 29.3976 62.6432 36.3976Z" fill="#EC8E65"/>
<path d="M60.7516 6.52085C72.8937 2.04631 76.2961 10.3696 76.4362 14.3883C73.4064 1.88765 60.9601 6.44451 60.7528 6.52041L60.7516 6.52085Z" fill="#3052A9"/>
<path d="M76.5346 12.9669C76.0026 8.98121 69.6539 1.14645 58.7874 6.37423C58.9344 6.30354 72.2888 0.795059 76.5346 12.9669Z" fill="#3052A9"/>
<path d="M62.3724 36.1276C64.4213 29.3347 61.4835 24.7955 60.1354 23.4475C60.1354 23.4475 57.9787 22.7735 57.9787 20.6168C57.9787 16.9503 62.427 16.0337 64.1793 19.1418C64.8534 20.3374 66.3564 20.6073 67.2248 20.3584C85.6118 15.0898 73.8846 4.30665 62.1574 6.46224C49.509 8.78717 46.4495 37.8818 40.131 37.8818C35.8175 37.8818 28.4587 47.7107 31.2894 55.1245C34.1201 62.5382 41.6137 64.4365 49.2971 62.5494C56.9804 60.6622 54.8242 53.7877 59.407 51.7657C63.9897 49.7438 66.0121 40.0349 62.3724 36.1276Z" fill="#05185A"/>
<path d="M40.4638 59.75C44.3088 60.9268 54.0761 58.4192 53.8506 46.3627C53.8536 46.5257 53.2979 60.961 40.4638 59.75Z" fill="#312E63"/>
<path d="M38.9769 58.0824C42.2674 59.497 51.1586 58.223 52.1271 47.526C52.114 47.6707 50.2232 60.3982 38.9769 58.0824Z" fill="#312E63"/>
<path d="M37.2413 57.3277C40.1928 58.5966 48.1681 57.4539 49.0368 47.8588C49.0251 47.9886 47.3291 59.4049 37.2413 57.3277Z" fill="#312E63"/>
<path d="M57.1692 51.3499C64.0437 47.5756 62.4711 39.0386 61.213 36.6572C63.3698 45.9311 59.236 50.0469 56.63 51.0803C52.5322 61.6483 45.4869 62.493 42.7461 61.4596C50.9416 64.5868 55.1023 56.6968 57.1692 51.3499Z" fill="#312E63"/>
<path d="M56.3642 50.5411C62.6187 45.9042 61.3966 39.443 60.0037 36.792C62.5918 44.664 58.566 48.8337 56.0948 50.1367C51.5657 59.7341 45.4907 61.5494 43.1543 61.0551C49.2202 62.3383 54.4772 54.9894 56.3642 50.5411Z" fill="#312E63"/>
<path d="M58.2369 275.402L58.0781 247.071L76.6201 248.079C76.6201 254.752 78.0568 264.318 78.0568 264.318L58.2369 275.402Z" fill="#F26AAA"/>
<path d="M58.0781 247.072L76.872 248.457V252.612L58.0781 253.997V247.072Z" fill="#3F4785"/>
<path d="M75.831 259.282C66.7084 257.413 70.4282 269.47 58.1168 263.125L58.1168 279.031C58.1168 280.429 59.2408 281.559 60.6389 281.549C68.5855 281.491 92.8538 281.316 97.5276 281.316C117.004 281.316 90.5955 262.307 75.831 259.282Z" fill="#355FB3"/>
<path d="M60.6391 281.549C68.5858 281.49 92.8541 281.316 97.5278 281.316C102.831 281.316 104.733 279.906 104.393 277.794C97.5408 274.02 75.8312 277.794 74.4789 276.283C69.1402 268.728 61.3465 269.274 58.1171 270.491L58.1171 279.03C58.1171 280.428 59.2411 281.559 60.6391 281.549Z" fill="white"/>
<path fill-rule="evenodd" clip-rule="evenodd" d="M101.679 280.888C101.66 280.822 101.7 280.752 101.766 280.733C102.784 280.448 103.46 280.041 103.856 279.551C104.248 279.064 104.375 278.481 104.267 277.813C104.256 277.745 104.303 277.68 104.372 277.669C104.44 277.658 104.505 277.705 104.516 277.773C104.633 278.5 104.496 279.158 104.052 279.709C103.611 280.255 102.88 280.683 101.834 280.976C101.768 280.994 101.698 280.955 101.679 280.888Z" fill="#260500"/>
<path fill-rule="evenodd" clip-rule="evenodd" d="M77.2663 260.175C79.5232 258.724 80.755 257.015 81.3224 255.608C81.6205 254.869 81.7328 254.219 81.7195 253.737C81.7128 253.495 81.6749 253.305 81.6202 253.169C81.5647 253.031 81.5009 252.969 81.4551 252.946C81.0128 252.718 80.5228 252.81 79.9977 253.204C79.4689 253.601 78.9461 254.277 78.4981 255.111C77.6705 256.652 77.1432 258.641 77.2663 260.175ZM79.6955 252.801C80.3091 252.341 81.0092 252.149 81.6859 252.498C81.876 252.596 82.0053 252.776 82.0876 252.981C82.1706 253.188 82.2152 253.441 82.2229 253.723C82.2385 254.288 82.1076 255.007 81.7895 255.796C81.1515 257.378 79.751 259.267 77.194 260.813C77.1225 260.857 77.0341 260.862 76.9581 260.827C76.8822 260.791 76.8286 260.721 76.8152 260.638C76.5344 258.919 77.1244 256.604 78.0544 254.873C78.5205 254.005 79.0854 253.259 79.6955 252.801Z" fill="#3F4785"/>
<path fill-rule="evenodd" clip-rule="evenodd" d="M77.5965 260.715C80.9615 261.877 83.7514 261.648 85.6732 260.944C86.6688 260.579 87.4264 260.088 87.9124 259.602C88.4116 259.103 88.5785 258.659 88.5272 258.377C88.4083 257.724 87.9869 257.2 87.3231 256.864C86.6551 256.525 85.7425 256.379 84.6741 256.504C82.6088 256.745 80.0016 257.996 77.5965 260.715ZM87.5508 256.415C88.3323 256.811 88.8713 257.455 89.0227 258.287C89.1196 258.82 88.8023 259.425 88.2686 259.959C87.7217 260.505 86.8976 261.032 85.8466 261.417C83.7403 262.189 80.702 262.403 77.0779 261.064C77.0008 261.036 76.9425 260.971 76.9216 260.892C76.9007 260.812 76.92 260.728 76.9732 260.665C79.5097 257.677 82.3318 256.27 84.6157 256.004C85.7564 255.871 86.7737 256.021 87.5508 256.415Z" fill="#3F4785"/>
<path fill-rule="evenodd" clip-rule="evenodd" d="M58.1159 278.904C58.1855 278.904 58.2418 278.961 58.2418 279.03C58.2418 280.359 59.3099 281.432 60.6371 281.423C68.5833 281.365 92.8523 281.19 97.5267 281.19C97.5962 281.19 97.6526 281.246 97.6526 281.316C97.6526 281.385 97.5962 281.442 97.5267 281.442C92.8535 281.442 68.5859 281.616 60.6389 281.675C59.17 281.685 57.99 280.497 57.99 279.03C57.99 278.961 58.0464 278.904 58.1159 278.904Z" fill="#260500"/>
<path d="M56.7254 251.855H91.0332C91.1957 251.855 91.3285 251.761 91.2974 251.602C89.5288 242.518 84.211 142.433 75.6124 93.5859L50.5557 93.457C27.3877 110.83 49.1705 138.663 51.5628 165.482C53.1843 183.66 57.2291 230.534 56.7254 251.855Z" fill="#355EBA"/>
<path d="M50.5557 93.457C27.3877 110.83 49.1705 138.663 51.5628 165.482C51.83 168.477 52.1628 172.25 52.5303 176.559L82.3759 146.714C80.4132 126.975 78.1564 108.038 75.6124 93.5859L50.5557 93.457Z" fill="#48ACFA"/>
<path fill-rule="evenodd" clip-rule="evenodd" d="M85.665 186.76C85.8036 186.748 85.9251 186.852 85.9364 186.99C86.8376 198.05 87.6443 208.522 88.3512 217.7C88.702 222.254 89.0282 226.489 89.3292 230.319C89.7832 236.095 90.1799 240.95 90.5173 244.591C90.8557 248.241 91.1327 250.648 91.3448 251.546C91.3767 251.681 91.2929 251.817 91.1576 251.849C91.0222 251.881 90.8866 251.797 90.8546 251.662C90.6325 250.721 90.3527 248.271 90.0158 244.637C89.6781 240.993 89.2811 236.134 88.8271 230.358C88.526 226.527 88.1997 222.291 87.8489 217.737C87.142 208.56 86.3356 198.09 85.4344 187.031C85.4231 186.892 85.5264 186.771 85.665 186.76Z" fill="#3F487F"/>
<path d="M56.7266 251.855H63.1481C70.4511 235.864 82.035 206.526 86.0642 187.136C85.9926 186.384 85.7588 184.369 85.6865 183.61L56.7266 251.855Z" fill="#3F4785"/>
<path d="M53.198 164.348C42.3192 192.653 23.9863 213.412 16.1797 220.253L40.9845 272.004C53.4918 259.035 80.1434 221.966 86.6908 177.443C90.5941 142.817 84.4245 109.07 75.6106 93.5823C75.6106 93.5823 55.8422 93.2076 55.5904 93.7112C49.7984 124.686 57.2272 130.981 57.605 134.885C57.9827 138.788 56.8495 155.66 53.198 164.348Z" fill="#48ACFA"/>
<path fill-rule="evenodd" clip-rule="evenodd" d="M53.2902 164.113C53.42 164.163 53.4848 164.309 53.4349 164.438C42.5395 192.787 24.1804 213.578 16.3475 220.443C16.2429 220.534 16.0838 220.524 15.9921 220.419C15.9005 220.315 15.9109 220.156 16.0155 220.064C23.7958 213.246 42.1026 192.52 52.9648 164.258C53.0147 164.128 53.1604 164.063 53.2902 164.113Z" fill="#3F487F"/>
<path fill-rule="evenodd" clip-rule="evenodd" d="M54.3558 101.785C54.4853 101.836 54.5491 101.982 54.4983 102.111C51.5376 109.66 52.3621 116.84 53.9368 122.635C54.688 125.399 55.6084 127.844 56.3694 129.865C56.4062 129.963 56.4427 130.06 56.4787 130.156C56.8683 131.191 57.2116 132.114 57.4572 132.901C57.7013 133.683 57.8573 134.356 57.8573 134.885C57.8573 136.855 57.6679 142.058 57.0216 147.857C56.376 153.649 55.2715 160.066 53.4307 164.446C53.3768 164.574 53.2292 164.634 53.101 164.58C52.9728 164.526 52.9125 164.379 52.9664 164.251C54.7771 159.942 55.8761 153.588 56.5211 147.801C57.1654 142.02 57.3537 136.836 57.3537 134.885C57.3537 134.437 57.2186 133.827 56.9764 133.051C56.7359 132.28 56.3979 131.371 56.0073 130.333C55.9709 130.236 55.9339 130.138 55.8966 130.039C55.1363 128.02 54.2084 125.555 53.4508 122.767C51.8607 116.915 51.0144 109.615 54.0295 101.928C54.0802 101.798 54.2264 101.734 54.3558 101.785Z" fill="#3F487F"/>
<path d="M16.1797 220.254C31.6671 223.525 47.5321 272.256 40.3549 272.256C19.5964 272.256 18.572 237.504 16.1797 220.254Z" fill="#260500"/>
<path d="M29.9033 233.346C29.9033 233.346 22.2227 220.503 16.0529 220.251L6.73047 228.309L21.5939 245.811C24.8952 238.395 26.7133 237.167 29.9033 233.346Z" fill="#F26AAA"/>
<path d="M29.9055 233.346C29.9055 233.346 22.2248 220.503 16.0551 220.251L14.9219 221.231C18.2017 222.961 25.5529 228.083 28.7185 234.731C29.095 234.3 29.4885 233.845 29.9055 233.346Z" fill="#3F4785"/>
<path d="M25.249 238.76C22.7308 229.795 13.2873 236.494 13.2873 222.644L1.1412 232.383C0.404136 232.974 0.0582492 233.921 0.248938 234.846C2.7549 247.007 7.61596 269.904 9.25809 275.023C10.6393 279.329 15.1129 284.107 17.0647 283.403C23.31 283.358 25.1231 253.623 25.249 238.76Z" fill="#355FB3"/>
<path d="M0.248938 234.847C2.7549 247.007 7.61596 269.904 9.25809 275.024C10.6393 279.33 15.1129 284.108 17.0647 283.404C13.5391 275.667 8.3767 256.893 9.25809 250.849C11.7763 238.257 9.71977 229.425 8.3767 226.582L1.1412 232.384C0.404136 232.975 0.0582492 233.922 0.248938 234.847Z" fill="white"/>
<path fill-rule="evenodd" clip-rule="evenodd" d="M8.47213 226.502C8.51564 226.556 8.50692 226.636 8.45267 226.679L2.53477 231.425C2.48051 231.468 2.40127 231.46 2.35776 231.405C2.31426 231.351 2.32297 231.272 2.37723 231.228L8.29513 226.483C8.34938 226.439 8.42863 226.448 8.47213 226.502Z" fill="#260500"/>
<path fill-rule="evenodd" clip-rule="evenodd" d="M1.23644 232.305C1.27995 232.36 1.27124 232.439 1.21698 232.482C0.516426 233.044 0.188228 233.943 0.369274 234.822C1.06349 238.19 1.93846 242.383 2.87566 246.794C2.89011 246.862 2.84669 246.929 2.77867 246.943C2.71064 246.958 2.64378 246.914 2.62933 246.846C1.69202 242.435 0.816941 238.242 0.122631 234.873C-0.0776994 233.9 0.285876 232.906 1.05944 232.286C1.1137 232.242 1.19294 232.251 1.23644 232.305ZM6.09889 262.184C6.16673 262.169 6.23411 262.212 6.24939 262.28C7.56746 268.133 8.72524 272.96 9.375 274.986C9.64025 275.813 10.0215 276.659 10.4786 277.481C10.5124 277.542 10.4905 277.619 10.4297 277.653C10.3689 277.686 10.2923 277.665 10.2585 277.604C9.7949 276.77 9.40642 275.908 9.13521 275.063C8.48127 273.024 7.32091 268.184 6.00371 262.335C5.98844 262.267 6.03105 262.2 6.09889 262.184ZM13.944 282.066C13.9892 282.013 14.0687 282.007 14.1216 282.052C14.6992 282.545 15.2578 282.918 15.759 283.135C16.2626 283.352 16.6903 283.404 17.019 283.286C17.0844 283.262 17.1565 283.296 17.1801 283.361C17.2037 283.427 17.1698 283.499 17.1044 283.523C16.6887 283.672 16.1887 283.594 15.6591 283.366C15.127 283.136 14.5469 282.747 13.958 282.244C13.9052 282.199 13.8989 282.119 13.944 282.066Z" fill="#260500"/>
<path fill-rule="evenodd" clip-rule="evenodd" d="M25.0879 239.231C27.4119 240.572 29.4952 240.884 31.0056 240.744C31.7992 240.67 32.4282 240.472 32.8506 240.24C33.0622 240.123 33.214 240.002 33.31 239.891C33.4073 239.779 33.4329 239.694 33.4329 239.642C33.4329 239.145 33.1261 238.752 32.5354 238.465C31.9407 238.177 31.0996 238.022 30.1531 238.006C28.4047 237.976 26.3953 238.419 25.0879 239.231ZM32.7552 238.012C33.4453 238.347 33.9366 238.881 33.9366 239.642C33.9366 239.856 33.8353 240.054 33.691 240.221C33.5453 240.389 33.3408 240.545 33.0936 240.681C32.5983 240.954 31.8993 241.167 31.0521 241.245C29.3537 241.403 27.0332 241.024 24.4872 239.459C24.4159 239.415 24.3711 239.339 24.3674 239.256C24.3638 239.172 24.4019 239.092 24.4691 239.042C25.8692 238.005 28.1969 237.469 30.1617 237.502C31.1464 237.519 32.069 237.679 32.7552 238.012Z" fill="#3F4785"/>
<path fill-rule="evenodd" clip-rule="evenodd" d="M24.7571 239.769C25.2658 243.292 26.7469 245.667 28.2535 247.053C29.0339 247.771 29.8172 248.219 30.4719 248.429C31.1444 248.644 31.6156 248.588 31.8426 248.414C32.3689 248.009 32.6413 247.394 32.6361 246.65C32.6309 245.901 32.3427 245.023 31.7424 244.131C30.5819 242.405 28.2756 240.661 24.7571 239.769ZM33.1397 246.647C33.1458 247.523 32.8199 248.297 32.1498 248.813C31.7207 249.143 31.0375 249.138 30.3185 248.908C29.5818 248.673 28.7365 248.181 27.9126 247.424C26.2614 245.905 24.6792 243.302 24.2089 239.468C24.1989 239.386 24.2293 239.305 24.2904 239.25C24.3515 239.195 24.4356 239.173 24.5157 239.192C28.3342 240.077 30.8769 241.942 32.1603 243.85C32.8013 244.802 33.1337 245.776 33.1397 246.647Z" fill="#3F4785"/>
<path d="M216.828 198.519C215.729 179.22 215.316 168.402 216.828 149.103L176.385 141.22C170.814 135.908 251.034 134.556 260.758 134.412C261.385 134.402 261.975 134.162 262.419 133.719C268.571 127.571 269.889 120.867 265.054 99.986C228.36 99.986 183.954 102.81 169.401 108.419C161.11 111.614 115.615 121.403 153.288 161.92C166.829 176.485 196.564 189.923 216.828 198.519Z" fill="#0B1F83"/>
<path d="M216.831 149.104C217.802 167.83 218.05 178.883 216.831 198.519C204.759 196.65 211.016 147.372 216.831 149.104Z" fill="#42447C"/>
<path d="M239.604 153.115L216.795 149.176L214.008 167.389L224.683 172.276L239.604 153.115Z" fill="#FEFEFE"/>
<path fill-rule="evenodd" clip-rule="evenodd" d="M213.863 167.323C213.827 167.401 213.862 167.494 213.941 167.53L224.616 172.417C224.694 172.453 224.787 172.418 224.823 172.34C224.859 172.261 224.824 172.168 224.746 172.132L214.071 167.245C213.992 167.21 213.899 167.244 213.863 167.323ZM218.173 149.537C218.159 149.622 218.216 149.703 218.301 149.717L239.576 153.268C239.661 153.282 239.741 153.224 239.756 153.139C239.77 153.054 239.712 152.973 239.627 152.959L218.353 149.408C218.268 149.394 218.187 149.452 218.173 149.537Z" fill="#444779"/>
<path d="M216.805 149.093L214.008 167.387L217.742 168.961L218.524 149.406L216.805 149.093Z" fill="#444779"/>
<path d="M219.716 169.108C219.215 159.162 231.36 165.043 226.642 151.002L243.023 153.507C244.74 153.77 245.916 155.368 245.641 157.083C244.228 165.892 240.245 190.748 239.502 195.606C236.353 216.196 220.526 185.205 219.716 169.108Z" fill="#355CB7"/>
<path d="M245.713 156.647C244.367 165.039 240.26 190.666 239.504 195.606C238.647 201.213 236.849 202.995 234.671 202.295C231.79 194.441 239.288 172.101 237.91 170.427C230.786 163.562 232.623 155.411 234.431 152.193L243.459 153.574C244.937 153.8 245.95 155.171 245.713 156.647Z" fill="#EEEFE9"/>
<path fill-rule="evenodd" clip-rule="evenodd" d="M234.278 152.17C234.265 152.256 234.323 152.335 234.409 152.349L236.97 152.74C237.056 152.753 237.136 152.695 237.149 152.609C237.162 152.524 237.103 152.444 237.018 152.431L234.456 152.039C234.371 152.026 234.291 152.085 234.278 152.17ZM240.883 153.18C240.87 153.266 240.929 153.346 241.014 153.359L243.436 153.729C244.83 153.942 245.783 155.233 245.56 156.623C245.546 156.708 245.604 156.788 245.69 156.802C245.775 156.816 245.855 156.758 245.869 156.672C246.12 155.109 245.046 153.659 243.484 153.42L241.062 153.049C240.976 153.036 240.896 153.095 240.883 153.18ZM245.26 159.482C245.175 159.468 245.095 159.526 245.081 159.611C244.861 160.98 244.611 162.54 244.341 164.228C244.327 164.313 244.385 164.393 244.471 164.407C244.556 164.421 244.636 164.363 244.65 164.277C244.92 162.59 245.17 161.029 245.39 159.661C245.403 159.576 245.345 159.495 245.26 159.482ZM243.985 167.445C243.899 167.432 243.819 167.49 243.806 167.575L241.775 180.271C240.665 187.226 239.683 193.408 239.351 195.583C239.338 195.669 239.396 195.748 239.482 195.761C239.567 195.775 239.647 195.716 239.66 195.63C239.992 193.457 240.974 187.276 242.084 180.32L244.115 167.624C244.128 167.539 244.07 167.459 243.985 167.445Z" fill="#345267"/>
<path fill-rule="evenodd" clip-rule="evenodd" d="M238.392 199.909C238.313 199.873 238.22 199.908 238.185 199.987C237.72 201.015 237.183 201.659 236.606 201.995C236.034 202.327 235.404 202.367 234.72 202.147C234.638 202.121 234.55 202.166 234.523 202.248C234.497 202.33 234.542 202.418 234.624 202.445C235.378 202.687 236.103 202.649 236.763 202.265C237.418 201.885 237.99 201.176 238.47 200.116C238.505 200.037 238.471 199.945 238.392 199.909Z" fill="#345267"/>
<path fill-rule="evenodd" clip-rule="evenodd" d="M220.349 170.796C218.471 172.903 216.493 173.91 214.937 174.277C214.112 174.471 213.413 174.484 212.913 174.394C212.662 174.348 212.472 174.279 212.343 174.202C212.211 174.125 212.166 174.054 212.153 174.015C211.99 173.533 212.156 173.046 212.651 172.561C213.149 172.073 213.942 171.632 214.893 171.294C216.625 170.679 218.765 170.443 220.349 170.796ZM212.213 172.115C211.62 172.696 211.293 173.421 211.559 174.215C211.637 174.445 211.816 174.618 212.024 174.741C212.235 174.866 212.501 174.955 212.801 175.01C213.403 175.119 214.191 175.096 215.081 174.886C216.866 174.465 219.097 173.284 221.151 170.824C221.218 170.745 221.24 170.637 221.211 170.537C221.183 170.437 221.106 170.358 221.007 170.326C219.222 169.748 216.67 169.999 214.684 170.705C213.688 171.058 212.801 171.537 212.213 172.115Z" fill="#FEFEFE"/>
<path fill-rule="evenodd" clip-rule="evenodd" d="M220.914 171.275C221.577 174.98 220.888 177.86 219.844 179.757C219.3 180.746 218.663 181.462 218.076 181.893C217.471 182.338 216.99 182.432 216.722 182.339C216.065 182.113 215.588 181.594 215.344 180.849C215.097 180.098 215.089 179.119 215.392 178.016C215.974 175.895 217.694 173.366 220.914 171.275ZM214.749 181.044C215.045 181.945 215.648 182.631 216.518 182.931C217.086 183.126 217.793 182.878 218.447 182.398C219.119 181.903 219.813 181.112 220.392 180.059C221.554 177.947 222.273 174.759 221.441 170.702C221.421 170.602 221.353 170.518 221.259 170.478C221.165 170.437 221.058 170.445 220.971 170.499C217.394 172.702 215.443 175.466 214.789 177.85C214.462 179.04 214.455 180.149 214.749 181.044Z" fill="#FEFEFE"/>
<path d="M207.925 229.845L208.369 206.703L189.944 206.703L186.728 217.995L207.925 229.845Z" fill="#FEFEFE"/>
<path fill-rule="evenodd" clip-rule="evenodd" d="M207.926 206.188C207.839 206.188 207.769 206.258 207.769 206.344L207.769 229.844C207.769 229.931 207.839 230.001 207.926 230.001C208.012 230.001 208.082 229.931 208.082 229.844L208.082 206.344C208.082 206.258 208.012 206.188 207.926 206.188ZM189.987 206.552C189.904 206.528 189.817 206.576 189.794 206.659L186.578 217.951C186.554 218.034 186.602 218.12 186.685 218.144C186.768 218.168 186.855 218.12 186.879 218.037L190.095 206.745C190.118 206.662 190.07 206.575 189.987 206.552Z" fill="#444779"/>
<path d="M208.064 205.89L189.942 206.703L189.097 209.671C189.097 209.671 203.955 211.82 208.064 214.26L208.064 205.89Z" fill="#444779"/>
<path d="M189.107 212.608C198.862 210.608 194.886 223.503 208.051 216.716L208.053 233.287C208.053 235.024 206.651 236.429 204.914 236.416C195.993 236.352 170.82 236.174 165.906 236.174C145.077 236.177 173.317 215.844 189.107 212.608Z" fill="#355CB7"/>
<path d="M205.356 236.419C196.858 236.357 170.904 236.173 165.906 236.174C160.234 236.174 158.201 234.667 158.564 232.408C165.891 228.372 189.109 232.405 190.555 230.789C196.263 222.709 204.598 223.292 208.052 224.593L208.053 233.725C208.053 235.22 206.851 236.43 205.356 236.419Z" fill="#EEEFE9"/>
<path fill-rule="evenodd" clip-rule="evenodd" d="M208.052 224.436C207.966 224.436 207.896 224.506 207.896 224.593L207.896 227.184C207.896 227.271 207.966 227.341 208.052 227.341C208.139 227.341 208.209 227.27 208.209 227.184L208.209 224.593C208.209 224.506 208.139 224.436 208.052 224.436ZM208.053 231.119C207.966 231.119 207.896 231.189 207.896 231.275L207.897 233.725C207.897 235.135 206.764 236.272 205.357 236.262C205.271 236.262 205.2 236.331 205.2 236.418C205.199 236.504 205.269 236.575 205.355 236.575C206.938 236.587 208.21 235.306 208.21 233.725L208.209 231.275C208.209 231.189 208.139 231.119 208.053 231.119ZM202.486 236.398C202.487 236.312 202.417 236.241 202.331 236.241C200.945 236.231 199.365 236.219 197.655 236.207C197.569 236.207 197.498 236.276 197.498 236.363C197.497 236.449 197.567 236.52 197.653 236.52C199.362 236.532 200.943 236.544 202.328 236.553C202.415 236.554 202.485 236.485 202.486 236.398ZM194.421 236.342C194.422 236.256 194.352 236.185 194.266 236.185L181.409 236.098C174.366 236.053 168.106 236.017 165.906 236.017C165.82 236.017 165.75 236.087 165.75 236.174C165.75 236.26 165.82 236.33 165.906 236.33C168.105 236.33 174.363 236.365 181.407 236.411L194.264 236.497C194.35 236.498 194.421 236.428 194.421 236.342Z" fill="#345267"/>
<path fill-rule="evenodd" clip-rule="evenodd" d="M161.485 235.724C161.508 235.641 161.46 235.555 161.376 235.532C160.29 235.227 159.572 234.794 159.153 234.275C158.738 233.76 158.603 233.143 158.717 232.433C158.731 232.348 158.673 232.268 158.588 232.254C158.502 232.24 158.422 232.299 158.408 232.384C158.283 233.166 158.43 233.876 158.91 234.471C159.385 235.06 160.172 235.519 161.292 235.833C161.375 235.856 161.461 235.808 161.485 235.724Z" fill="#6DE277"/>
<path d="M261.824 134.398C275.514 126.943 265.762 102.162 265.762 102.162L222.904 102.108C222.904 102.108 190.521 104.078 179.507 116.206C168.493 128.334 174.897 196.67 170.648 207.131L211.797 207.924C217.749 198.069 210.329 136.008 212.14 135.308C213.951 134.608 261.486 134.931 261.824 134.398Z" fill="#4AABF8"/>
<path fill-rule="evenodd" clip-rule="evenodd" d="M265.909 102.105C265.909 102.104 265.909 102.104 265.764 102.161C265.618 102.219 265.618 102.219 265.618 102.219L265.62 102.223L265.625 102.236C265.63 102.248 265.636 102.265 265.645 102.289C265.663 102.335 265.689 102.405 265.723 102.496C265.791 102.678 265.889 102.947 266.008 103.292C266.247 103.982 266.574 104.976 266.923 106.193C267.622 108.627 268.411 111.948 268.773 115.5C269.499 122.619 268.505 130.583 261.752 134.26L261.901 134.535C268.838 130.758 269.812 122.603 269.084 115.468C268.72 111.892 267.926 108.552 267.224 106.107C266.873 104.884 266.545 103.884 266.304 103.19C266.184 102.842 266.085 102.571 266.017 102.387C265.982 102.295 265.956 102.224 265.937 102.177C265.928 102.153 265.921 102.135 265.917 102.123L265.911 102.109L265.909 102.105ZM212.211 135.446C212.211 135.447 212.207 135.45 212.198 135.454L212.086 135.162C212.016 135.189 211.969 135.242 211.937 135.292C211.905 135.343 211.879 135.405 211.858 135.472C211.817 135.606 211.785 135.785 211.761 136.003C211.713 136.439 211.692 137.056 211.693 137.827C211.695 139.373 211.785 141.56 211.929 144.211C212.074 146.877 212.273 150.02 212.49 153.457C212.705 156.855 212.939 160.542 213.156 164.343C213.593 171.994 213.966 180.118 213.998 187.321C214.029 194.529 213.717 200.799 212.791 204.748L213.096 204.82C214.031 200.83 214.342 194.527 214.31 187.32C214.279 180.108 213.906 171.977 213.468 164.325C213.251 160.518 213.017 156.832 212.802 153.436C212.585 150.001 212.386 146.862 212.242 144.194C212.098 141.543 212.008 139.363 212.006 137.827C212.004 137.058 212.025 136.455 212.072 136.037C212.095 135.827 212.124 135.671 212.157 135.565C212.174 135.513 212.189 135.479 212.201 135.46C212.208 135.449 212.212 135.446 212.211 135.446ZM172.45 189.456C172.524 185.544 172.549 181.225 172.574 176.695L172.261 176.693C172.237 181.223 172.211 185.54 172.137 189.45L172.45 189.456ZM171.693 203.163C171.921 201.437 172.086 199.347 172.207 196.97L171.895 196.954C171.774 199.327 171.61 201.408 171.383 203.122C171.156 204.839 170.869 206.177 170.505 207.072L170.795 207.189C171.174 206.257 171.466 204.886 171.693 203.163Z" fill="#1081B0"/>
<path d="M170.65 207.131C179.254 205.254 208.759 206.036 211.846 207.914C197.714 209.947 174.28 208.758 170.65 207.131Z" fill="#42447C"/>
<path fill-rule="evenodd" clip-rule="evenodd" d="M188.849 212.821C186.482 211.283 185.187 209.481 184.589 207.998C184.272 207.212 184.154 206.523 184.168 206.015C184.175 205.76 184.214 205.562 184.271 205.422C184.328 205.28 184.39 205.225 184.427 205.206C184.879 204.972 185.385 205.063 185.939 205.478C186.498 205.897 187.053 206.615 187.531 207.503C188.401 209.122 188.958 211.202 188.849 212.821ZM186.315 204.977C185.651 204.48 184.884 204.266 184.14 204.65C183.924 204.761 183.78 204.964 183.69 205.189C183.599 205.416 183.55 205.692 183.542 205.997C183.525 206.609 183.667 207.384 184.009 208.232C184.695 209.933 186.2 211.96 188.942 213.618C189.031 213.672 189.141 213.678 189.235 213.634C189.329 213.591 189.396 213.503 189.413 213.401C189.715 211.549 189.08 209.064 188.082 207.207C187.582 206.277 186.974 205.472 186.315 204.977Z" fill="#444779"/>
<path fill-rule="evenodd" clip-rule="evenodd" d="M188.463 213.457C184.901 214.673 181.95 214.427 179.916 213.682C178.856 213.294 178.052 212.772 177.537 212.257C177.006 211.727 176.841 211.266 176.892 210.986C177.016 210.302 177.456 209.753 178.156 209.398C178.861 209.041 179.828 208.885 180.964 209.018C183.148 209.272 185.908 210.59 188.463 213.457ZM177.873 208.84C177.027 209.269 176.441 209.969 176.276 210.874C176.168 211.465 176.521 212.126 177.095 212.7C177.685 213.29 178.572 213.856 179.701 214.269C181.964 215.099 185.224 215.327 189.108 213.891C189.204 213.856 189.277 213.776 189.303 213.677C189.329 213.578 189.305 213.473 189.239 213.395C186.52 210.193 183.492 208.683 181.037 208.396C179.811 208.253 178.714 208.414 177.873 208.84Z" fill="#444779"/>
<path d="M223.742 40.7792C231.272 30.6762 240.363 44.1064 238.452 48.7914C237.568 50.9566 229.737 67.4157 228.812 71.1992C228.033 74.3852 232.226 103.479 232.226 103.479L218.19 104.652C218.19 104.652 211.336 86.0126 214.077 69.4567C215.667 59.8515 220.47 45.1696 223.742 40.7792Z" fill="#EC6C47"/>
<path d="M258.754 39.5065C251.405 30.7115 234.671 29.3666 225.007 39.5063C219.216 45.5814 226.275 67.9823 218.194 104.946L265.775 102.16C260.658 75.0625 264.374 46.232 258.754 39.5065Z" fill="#EC6C47"/>
<path fill-rule="evenodd" clip-rule="evenodd" d="M222.459 62.5815C222.373 62.5814 222.303 62.6513 222.302 62.7377C222.287 70.6505 222.029 80.3573 220.408 91.7648C220.396 91.8504 220.456 91.9296 220.541 91.9417C220.627 91.9539 220.706 91.8944 220.718 91.8088C222.341 80.381 222.6 70.6581 222.615 62.7383C222.615 62.6519 222.546 62.5817 222.459 62.5815Z" fill="#D5482A"/>
<path d="M225.321 104.312L216.447 92.5873C216.447 92.5873 249.929 90.1749 250.353 88.9432C250.719 87.881 245.161 47.1301 245.161 41.9296C245.161 33.7856 253.154 34.6871 255.176 36.1546C267.94 45.413 272.452 90.0696 267.464 98.4495C260.157 110.724 225.321 104.312 225.321 104.312Z" fill="#EC6C47"/>
<path fill-rule="evenodd" clip-rule="evenodd" d="M247.278 61.9567C247.192 61.9671 247.131 62.0451 247.142 62.1309C247.421 64.4308 247.708 66.7692 247.988 69.0585C248.472 73.0081 248.939 76.8114 249.318 80.0176C249.618 82.5498 249.863 84.7085 250.021 86.2718C250.1 87.0537 250.156 87.6853 250.186 88.1397C250.202 88.3672 250.21 88.5483 250.212 88.6809C250.212 88.7473 250.211 88.7995 250.209 88.8382C250.208 88.861 250.206 88.8755 250.205 88.8837C250.204 88.8839 250.204 88.8841 250.204 88.8843C250.193 88.8935 250.174 88.9071 250.142 88.9242C250.079 88.9582 249.983 88.9965 249.853 89.038C249.593 89.1205 249.219 89.2082 248.743 89.2997C247.792 89.4826 246.453 89.6774 244.855 89.8769C241.659 90.276 237.436 90.6928 233.225 91.0713C229.014 91.4497 224.816 91.7897 221.671 92.0351C220.099 92.1578 218.789 92.2568 217.873 92.3252C217.415 92.3594 217.055 92.3859 216.81 92.4038C216.687 92.4128 216.593 92.4197 216.53 92.4243L216.436 92.4311L216.434 92.4312C216.434 92.4312 216.434 92.4312 216.445 92.5872C216.457 92.7433 216.457 92.7433 216.457 92.7432L216.647 92.7294C216.699 92.7256 216.761 92.7211 216.833 92.7159C217.078 92.6979 217.438 92.6714 217.896 92.6372C218.813 92.5688 220.123 92.4697 221.696 92.347C224.841 92.1016 229.041 91.7615 233.253 91.3829C237.465 91.0043 241.692 90.5871 244.894 90.1874C246.494 89.9876 247.841 89.7918 248.802 89.607C249.282 89.5147 249.67 89.4243 249.948 89.3362C250.086 89.2923 250.202 89.2471 250.29 89.1998C250.335 89.1761 250.376 89.1496 250.411 89.1192C250.444 89.0897 250.48 89.0487 250.499 88.9941C250.513 88.9536 250.518 88.9034 250.521 88.8581C250.524 88.8084 250.525 88.7476 250.525 88.6772C250.523 88.5362 250.514 88.3485 250.499 88.1189C250.468 87.6591 250.411 87.0234 250.332 86.2405C250.174 84.6743 249.929 82.5133 249.629 79.9808C249.249 76.774 248.783 72.9695 248.299 69.0194C248.018 66.7302 247.731 64.3922 247.452 62.0932C247.442 62.0074 247.364 61.9463 247.278 61.9567ZM216.445 92.5872L216.457 92.7433C216.37 92.7495 216.295 92.6847 216.289 92.5985C216.283 92.5123 216.348 92.4374 216.434 92.4312L216.445 92.5872ZM267.738 66.1815C267.653 66.1958 267.596 66.2765 267.61 66.3617C268.766 73.2531 269.334 80.1911 269.29 85.9439C269.269 88.8204 269.094 91.3979 268.766 93.5235C268.437 95.6531 267.955 97.3144 267.327 98.3694C265.532 101.386 262.033 103.272 257.755 104.393C253.48 105.513 248.456 105.862 243.651 105.827C238.848 105.793 234.272 105.375 230.895 104.967C229.207 104.762 227.82 104.56 226.854 104.409C226.372 104.333 225.995 104.27 225.738 104.226C225.61 104.205 225.512 104.187 225.447 104.176C225.414 104.17 225.389 104.165 225.372 104.162L225.354 104.159L225.349 104.158L225.348 104.158C225.348 104.158 225.347 104.158 225.319 104.312C225.291 104.466 225.291 104.466 225.291 104.466L225.297 104.467L225.317 104.47C225.333 104.473 225.359 104.478 225.392 104.484C225.458 104.496 225.557 104.513 225.686 104.535C225.943 104.579 226.322 104.642 226.806 104.718C227.774 104.869 229.165 105.072 230.858 105.277C234.241 105.687 238.83 106.106 243.649 106.14C248.467 106.175 253.522 105.825 257.834 104.695C262.142 103.566 265.738 101.651 267.596 98.5295C268.255 97.4219 268.744 95.7125 269.075 93.5713C269.407 91.4261 269.581 88.8327 269.603 85.9463C269.647 80.1732 269.078 73.217 267.919 66.3099C267.904 66.2247 267.824 66.1672 267.738 66.1815ZM225.165 104.283C225.15 104.368 225.206 104.45 225.291 104.466L225.319 104.312L225.347 104.158C225.262 104.142 225.181 104.198 225.165 104.283Z" fill="#D5482A"/>
<path d="M216.446 92.5879C219.64 94.6341 225.127 100.604 225.318 104.312C222.683 103.227 217.979 98.6012 216.446 92.5879Z" fill="#3E4981"/>
<path d="M204.249 94.5807C207.326 92.2492 218.191 94.0136 218.191 94.0136C220.568 95.9149 224.053 99.8763 225.004 102.728C225.004 102.728 219.934 101.143 214.864 103.203C212.915 103.995 214.258 101.749 214.864 101.143C216.924 99.0838 195.377 101.302 204.249 94.5807Z" fill="#F1B09B"/>
<path d="M245.172 11.6978C242.575 10.3662 237.337 6.78962 237.164 3.13605C237.744 4.79438 240.159 8.82838 245.172 11.6978Z" fill="#444779"/>
<path d="M246.222 13.2642C243.894 11.5045 239.352 7.07791 239.811 3.44918C240.097 5.18281 241.779 9.57288 246.222 13.2642Z" fill="#444779"/>
<path d="M251.604 12.0826C260.205 17.0898 252.249 24.8142 247.944 28.1657C243.128 24.3334 250.363 20.7404 249.04 20.3436C247.717 19.9468 245.272 21.0777 237.69 17.0131C236.815 16.5439 236.134 16.0356 235.615 15.5028C232.539 12.3435 234.737 6.29814 236.767 4.45226C237.757 7.27013 240.666 9.2534 243.232 10.1785C242.308 9.47098 240.313 6.96444 241.939 4.45226C244.34 8.88551 247.85 9.89757 251.604 12.0826Z" fill="#05185A"/>
<path d="M235.739 38.7363C237.352 40.4133 244.132 41.5513 248.916 38.7363C249.577 37.4183 246.534 25.2665 248.662 23.785C252.616 21.0317 248.411 18.1538 246.065 19.1793C244.657 19.7949 243.405 18.7793 242.466 17.9971C238.587 14.4929 236.416 13.1412 235.739 14.555C230.421 25.662 234.283 29.1082 235.507 30.3601C235.97 30.8328 236.09 32.3988 236.046 34.2181C235.997 36.2531 234.577 37.5284 235.739 38.7363Z" fill="#F1B09B"/>
<path fill-rule="evenodd" clip-rule="evenodd" d="M248.055 18.9277C247.368 18.7527 246.628 18.7625 246.002 19.0361C245.35 19.3213 244.732 19.2321 244.154 18.97C243.571 18.7058 243.04 18.2714 242.569 17.8791C240.631 16.1286 239.106 14.9033 237.976 14.2943C237.412 13.9907 236.925 13.8281 236.523 13.8475C236.318 13.8574 236.133 13.9146 235.974 14.025C235.816 14.1349 235.692 14.2917 235.598 14.4876C232.931 20.0582 232.554 23.7315 233.016 26.1824C233.454 28.5049 234.642 29.7074 235.29 30.3621C235.327 30.3997 235.362 30.4355 235.396 30.4697C235.486 30.5621 235.571 30.7212 235.643 30.9534C235.715 31.1828 235.771 31.4695 235.811 31.8032C235.892 32.4704 235.911 33.3081 235.89 34.2145C235.871 34.9787 235.655 35.6249 235.456 36.2235C235.397 36.4001 235.339 36.5727 235.288 36.7429C235.179 37.1098 235.102 37.4695 235.134 37.8214C235.167 38.1799 235.313 38.5188 235.626 38.845C236.056 39.292 236.812 39.6874 237.758 39.9889C238.709 40.2919 239.871 40.5054 241.13 40.5772C243.645 40.7206 246.569 40.2989 248.995 38.8713L249.035 38.8479L249.056 38.8066C249.111 38.6973 249.139 38.5486 249.154 38.3817C249.17 38.2109 249.172 38.005 249.164 37.7711C249.148 37.303 249.091 36.7091 249.011 36.0343C248.931 35.3588 248.828 34.5983 248.72 33.7962L248.719 33.7936C248.611 32.9918 248.497 32.1481 248.394 31.3032C248.188 29.6101 248.029 27.9202 248.053 26.5637C248.065 25.8851 248.123 25.2974 248.24 24.8376C248.359 24.373 248.532 24.0663 248.751 23.9135C249.758 23.2122 250.272 22.4852 250.408 21.7897C250.544 21.0898 250.292 20.4557 249.842 19.96C249.393 19.4664 248.743 19.1027 248.055 18.9277ZM250.101 21.7298C249.986 22.3162 249.542 22.9815 248.572 23.6568C248.26 23.8744 248.062 24.2714 247.937 24.7602C247.811 25.2536 247.752 25.8686 247.74 26.5582C247.716 27.938 247.877 29.6463 248.083 31.341C248.186 32.188 248.301 33.0335 248.409 33.8347L248.41 33.8382C248.518 34.641 248.621 35.3987 248.7 36.071C248.78 36.7439 248.836 37.3272 248.851 37.7818C248.859 38.0091 248.857 38.2009 248.843 38.3537C248.832 38.4789 248.813 38.5684 248.792 38.6276C246.443 39.9943 243.606 40.405 241.147 40.2648C239.911 40.1944 238.776 39.9849 237.853 39.6908C236.925 39.3952 236.228 39.0196 235.852 38.6281C235.584 38.3502 235.472 38.0767 235.446 37.7928C235.419 37.5023 235.482 37.1895 235.588 36.8322C235.634 36.6785 235.688 36.5169 235.745 36.3474C235.947 35.7435 236.183 35.0382 236.202 34.2221C236.224 33.3092 236.205 32.4543 236.122 31.7655C236.08 31.4212 236.022 31.114 235.942 30.86C235.863 30.6088 235.76 30.3949 235.619 30.2509C235.586 30.2168 235.551 30.1811 235.514 30.1438C234.875 29.4979 233.744 28.3524 233.323 26.1244C232.878 23.7625 233.229 20.1592 235.88 14.6227C235.955 14.4652 236.047 14.3549 236.153 14.2819C236.257 14.2093 236.383 14.1675 236.538 14.16C236.854 14.1448 237.279 14.274 237.828 14.5697C238.921 15.1589 240.421 16.3608 242.362 18.1134L242.364 18.1155L242.366 18.1174C242.834 18.5068 243.396 18.9702 244.025 19.255C244.659 19.5424 245.372 19.6532 246.128 19.3228C246.675 19.0836 247.34 19.0686 247.978 19.2309C248.615 19.3931 249.209 19.7287 249.61 20.1705C250.01 20.6103 250.214 21.1477 250.101 21.7298Z" fill="#EC8E67"/>
<path d="M245.592 30.3604C243.913 31.9126 238.559 30.9395 235.505 30.3603C235.967 30.833 236.087 32.399 236.043 34.2183C239.078 34.0087 244.296 33.1059 245.592 30.3604Z" fill="#EC8E67"/>
<path d="M178.319 106.072L159.547 73.2207H203.098C203.544 73.2207 203.956 73.4581 204.18 73.8439L222.434 105.29L178.319 106.072Z" fill="#1C43AE"/>
<path d="M204.18 73.8437L222.434 105.29H234.245C234.807 105.29 235.262 104.835 235.262 104.273C235.262 103.712 234.807 103.256 234.245 103.256H223.06L205.273 71.9761C205.051 71.5849 204.636 71.3433 204.186 71.3433H163.743C163.555 71.3433 163.37 71.3854 163.201 71.4665L159.547 73.2205H203.098C203.544 73.2205 203.956 73.4579 204.18 73.8437Z" fill="#0F2E9A"/>
</svg>
