<svg xmlns="http://www.w3.org/2000/svg" width="154" height="256" viewBox="0 0 154 256" fill="none">
  <path d="M90.8282 198.519C89.7294 179.22 89.3156 168.402 90.8281 149.103L50.3849 141.22C44.8142 135.908 125.034 134.556 134.758 134.412C135.385 134.402 135.975 134.162 136.419 133.719C142.571 127.571 143.889 120.867 139.054 99.986C102.36 99.986 57.9543 102.81 43.4005 108.419C35.1096 111.614 -10.3847 121.403 27.2876 161.92C40.8294 176.485 70.564 189.923 90.8282 198.519Z" fill="#0B1F83"/>
  <path d="M90.8314 149.104C91.8018 167.83 92.0499 178.883 90.8314 198.519C78.7594 196.65 85.0165 147.372 90.8314 149.104Z" fill="#42447C"/>
  <path d="M113.604 153.115L90.7948 149.176L88.0079 167.389L98.683 172.276L113.604 153.115Z" fill="#FEFEFE"/>
  <path fill-rule="evenodd" clip-rule="evenodd" d="M87.8634 167.323C87.8274 167.401 87.862 167.494 87.9405 167.53L98.6156 172.417C98.6942 172.453 98.787 172.418 98.823 172.34C98.8589 172.261 98.8244 172.168 98.7458 172.132L88.0707 167.245C87.9922 167.21 87.8994 167.244 87.8634 167.323ZM92.1729 149.537C92.1587 149.622 92.2162 149.703 92.3014 149.717L113.576 153.268C113.661 153.282 113.741 153.224 113.756 153.139C113.77 153.054 113.712 152.973 113.627 152.959L92.3529 149.408C92.2677 149.394 92.1871 149.452 92.1729 149.537Z" fill="#444779"/>
  <path d="M90.8047 149.093L88.008 167.387L91.7421 168.961L92.5243 149.406L90.8047 149.093Z" fill="#444779"/>
  <path d="M93.7159 169.108C93.215 159.162 105.36 165.043 100.642 151.002L117.023 153.507C118.74 153.77 119.916 155.368 119.641 157.083C118.228 165.892 114.245 190.748 113.502 195.606C110.353 216.196 94.5264 185.205 93.7159 169.108Z" fill="#355CB7"/>
  <path d="M119.713 156.647C118.367 165.039 114.26 190.666 113.504 195.606C112.647 201.213 110.849 202.995 108.671 202.295C105.79 194.441 113.288 172.101 111.91 170.427C104.786 163.562 106.623 155.411 108.431 152.193L117.459 153.574C118.937 153.8 119.95 155.171 119.713 156.647Z" fill="#EEEFE9"/>
  <path fill-rule="evenodd" clip-rule="evenodd" d="M108.278 152.17C108.265 152.256 108.323 152.335 108.409 152.349L110.97 152.74C111.056 152.753 111.136 152.695 111.149 152.609C111.162 152.524 111.103 152.444 111.018 152.431L108.456 152.039C108.371 152.026 108.291 152.085 108.278 152.17ZM114.883 153.18C114.87 153.266 114.929 153.346 115.014 153.359L117.436 153.729C118.83 153.942 119.783 155.233 119.56 156.623C119.546 156.708 119.604 156.788 119.69 156.802C119.775 156.816 119.855 156.758 119.869 156.672C120.12 155.109 119.046 153.659 117.484 153.42L115.062 153.049C114.976 153.036 114.896 153.095 114.883 153.18ZM119.26 159.482C119.175 159.468 119.095 159.526 119.081 159.611C118.861 160.98 118.611 162.54 118.341 164.228C118.327 164.313 118.385 164.393 118.471 164.407C118.556 164.421 118.636 164.363 118.65 164.277C118.92 162.59 119.17 161.029 119.39 159.661C119.403 159.576 119.345 159.495 119.26 159.482ZM117.985 167.445C117.899 167.432 117.819 167.49 117.806 167.575L115.775 180.271C114.665 187.226 113.683 193.408 113.351 195.583C113.338 195.669 113.396 195.748 113.482 195.761C113.567 195.775 113.647 195.716 113.66 195.63C113.992 193.457 114.974 187.276 116.084 180.32L118.115 167.624C118.128 167.539 118.07 167.459 117.985 167.445Z" fill="#345267"/>
  <path fill-rule="evenodd" clip-rule="evenodd" d="M112.392 199.909C112.313 199.873 112.22 199.908 112.185 199.987C111.72 201.015 111.183 201.659 110.606 201.995C110.034 202.327 109.404 202.367 108.72 202.147C108.638 202.121 108.55 202.166 108.523 202.248C108.497 202.33 108.542 202.418 108.624 202.445C109.378 202.687 110.103 202.649 110.763 202.265C111.418 201.885 111.99 201.176 112.47 200.116C112.505 200.037 112.471 199.945 112.392 199.909Z" fill="#345267"/>
  <path fill-rule="evenodd" clip-rule="evenodd" d="M94.3495 170.796C92.4705 172.903 90.4934 173.91 88.9372 174.277C88.1121 174.471 87.4133 174.484 86.9129 174.394C86.6622 174.348 86.4723 174.279 86.3429 174.202C86.2112 174.125 86.1656 174.054 86.1526 174.015C85.9903 173.533 86.1562 173.046 86.6507 172.561C87.149 172.073 87.9425 171.632 88.8934 171.294C90.6247 170.679 92.765 170.443 94.3495 170.796ZM86.2125 172.115C85.62 172.696 85.2929 173.421 85.5594 174.215C85.6367 174.445 85.8161 174.618 86.0245 174.741C86.2353 174.866 86.5008 174.955 86.8013 175.01C87.4034 175.119 88.1908 175.096 89.0808 174.886C90.8661 174.465 93.0972 173.284 95.151 170.824C95.2176 170.745 95.2402 170.637 95.2114 170.537C95.1827 170.437 95.1062 170.358 95.0073 170.326C93.2224 169.748 90.6698 169.999 88.684 170.705C87.6883 171.058 86.801 171.537 86.2125 172.115Z" fill="#FEFEFE"/>
  <path fill-rule="evenodd" clip-rule="evenodd" d="M94.9143 171.275C95.5775 174.98 94.8883 177.86 93.8441 179.757C93.2999 180.746 92.6626 181.462 92.0762 181.893C91.4711 182.338 90.9904 182.432 90.7215 182.339C90.0649 182.113 89.5883 181.594 89.3437 180.849C89.0971 180.098 89.0892 179.119 89.3921 178.016C89.9742 175.895 91.694 173.366 94.9143 171.275ZM88.7492 181.044C89.045 181.945 89.6479 182.631 90.5178 182.931C91.0861 183.126 91.7928 182.878 92.4467 182.398C93.1193 181.903 93.8127 181.112 94.3924 180.059C95.5543 177.947 96.2728 174.759 95.4415 170.702C95.421 170.602 95.3529 170.518 95.2592 170.478C95.1655 170.437 95.0578 170.445 94.9709 170.499C91.3941 172.702 89.4432 175.466 88.7887 177.85C88.4618 179.04 88.4552 180.149 88.7492 181.044Z" fill="#FEFEFE"/>
  <path d="M81.9253 229.845L82.3691 206.703L63.9438 206.703L60.7279 217.995L81.9253 229.845Z" fill="#FEFEFE"/>
  <path fill-rule="evenodd" clip-rule="evenodd" d="M81.9256 206.188C81.8392 206.188 81.7692 206.258 81.7692 206.344L81.7692 229.844C81.7692 229.931 81.8393 230.001 81.9256 230.001C82.012 230.001 82.0821 229.931 82.0821 229.844L82.082 206.344C82.082 206.258 82.012 206.188 81.9256 206.188ZM63.987 206.552C63.9039 206.528 63.8173 206.576 63.7936 206.659L60.5778 217.951C60.5541 218.034 60.6023 218.12 60.6854 218.144C60.7685 218.168 60.855 218.12 60.8787 218.037L64.0946 206.745C64.1182 206.662 64.07 206.575 63.987 206.552Z" fill="#444779"/>
  <path d="M82.0645 205.89L63.9423 206.703L63.0967 209.671C63.0967 209.671 77.9553 211.82 82.0642 214.26L82.0645 205.89Z" fill="#444779"/>
  <path d="M63.1066 212.608C72.8623 210.608 68.8856 223.503 82.0512 216.716L82.0529 233.287C82.0531 235.024 80.6509 236.429 78.9139 236.416C69.9929 236.352 44.8203 236.174 39.9058 236.174C19.0765 236.177 47.3172 215.844 63.1066 212.608Z" fill="#355CB7"/>
  <path d="M79.3561 236.419C70.8577 236.357 44.9042 236.173 39.9059 236.174C34.2341 236.174 32.2007 234.667 32.5635 232.408C39.8912 228.372 63.1087 232.405 64.5548 230.789C70.2633 222.709 78.5982 223.292 82.0521 224.593L82.053 233.725C82.0531 235.22 80.8512 236.43 79.3561 236.419Z" fill="#EEEFE9"/>
  <path fill-rule="evenodd" clip-rule="evenodd" d="M82.0522 224.436C81.9658 224.436 81.8958 224.506 81.8958 224.593L81.896 227.184C81.896 227.271 81.9661 227.341 82.0525 227.341C82.1389 227.341 82.2089 227.27 82.2089 227.184L82.2086 224.593C82.2086 224.506 82.1386 224.436 82.0522 224.436ZM82.0529 231.119C81.9665 231.119 81.8964 231.189 81.8965 231.275L81.8967 233.725C81.8968 235.135 80.7645 236.272 79.3574 236.262C79.271 236.262 79.2004 236.331 79.1998 236.418C79.1992 236.504 79.2687 236.575 79.3551 236.575C80.9383 236.587 82.2097 235.306 82.2096 233.725L82.2093 231.275C82.2093 231.189 82.1393 231.119 82.0529 231.119ZM76.4859 236.398C76.4866 236.312 76.417 236.241 76.3306 236.241C74.9448 236.231 73.3646 236.219 71.6554 236.207C71.569 236.207 71.4984 236.276 71.4978 236.363C71.4972 236.449 71.5668 236.52 71.6532 236.52C73.3624 236.532 74.9426 236.544 76.3284 236.553C76.4148 236.554 76.4853 236.485 76.4859 236.398ZM68.4211 236.342C68.4217 236.256 68.3522 236.185 68.2658 236.185L55.4088 236.098C48.3658 236.053 42.1065 236.017 39.906 236.017C39.8196 236.017 39.7496 236.087 39.7496 236.174C39.7496 236.26 39.8197 236.33 39.9061 236.33C42.1052 236.33 48.3632 236.365 55.4068 236.411L68.2637 236.497C68.35 236.498 68.4206 236.428 68.4211 236.342Z" fill="#345267"/>
  <path fill-rule="evenodd" clip-rule="evenodd" d="M35.4848 235.724C35.5081 235.641 35.4596 235.555 35.3764 235.532C34.2904 235.227 33.5721 234.794 33.1531 234.275C32.7383 233.76 32.6033 233.143 32.7172 232.433C32.7309 232.348 32.6729 232.268 32.5876 232.254C32.5023 232.24 32.422 232.299 32.4083 232.384C32.2827 233.166 32.4304 233.876 32.9095 234.471C33.3846 235.06 34.1717 235.519 35.292 235.833C35.3752 235.856 35.4615 235.808 35.4848 235.724Z" fill="#6DE277"/>
  <path d="M135.824 134.398C149.514 126.943 139.762 102.162 139.762 102.162L96.9037 102.108C96.9037 102.108 64.5211 104.078 53.507 116.206C42.493 128.334 48.8969 196.67 44.6484 207.131L85.7974 207.924C91.7494 198.069 84.3293 136.008 86.14 135.308C87.9507 134.608 135.486 134.931 135.824 134.398Z" fill="#4AABF8"/>
  <path fill-rule="evenodd" clip-rule="evenodd" d="M139.909 102.105C139.909 102.104 139.909 102.104 139.764 102.161C139.618 102.219 139.618 102.219 139.618 102.219L139.62 102.223L139.625 102.236C139.63 102.248 139.636 102.265 139.645 102.289C139.663 102.335 139.689 102.405 139.723 102.496C139.791 102.678 139.889 102.947 140.008 103.292C140.247 103.982 140.574 104.976 140.923 106.193C141.622 108.627 142.411 111.948 142.773 115.5C143.499 122.619 142.505 130.583 135.752 134.26L135.901 134.535C142.838 130.758 143.812 122.603 143.084 115.468C142.72 111.892 141.926 108.552 141.224 106.107C140.873 104.884 140.545 103.884 140.304 103.19C140.184 102.842 140.085 102.571 140.017 102.387C139.982 102.295 139.956 102.224 139.937 102.177C139.928 102.153 139.921 102.135 139.917 102.123L139.911 102.109L139.909 102.105ZM86.2113 135.446C86.2109 135.447 86.2068 135.45 86.1983 135.454L86.0855 135.162C86.0158 135.189 85.9687 135.242 85.9371 135.292C85.9047 135.343 85.8793 135.405 85.8584 135.472C85.8165 135.606 85.7849 135.785 85.7609 136.003C85.7125 136.439 85.6916 137.056 85.6927 137.827C85.6949 139.373 85.7855 141.56 85.9293 144.211C86.0739 146.877 86.2728 150.02 86.4903 153.457C86.7053 156.855 86.9386 160.542 87.1559 164.343C87.5933 171.994 87.9663 180.118 87.9975 187.321C88.0288 194.529 87.7174 200.799 86.7912 204.748L87.0958 204.82C88.0313 200.83 88.3416 194.527 88.3104 187.32C88.2792 180.108 87.9057 171.977 87.4683 164.325C87.2507 160.518 87.0174 156.832 86.8024 153.436C86.5851 150.001 86.3864 146.862 86.2417 144.194C86.0979 141.543 86.0077 139.363 86.0056 137.827C86.0045 137.058 86.0255 136.455 86.0718 136.037C86.0951 135.827 86.1241 135.671 86.157 135.565C86.1735 135.513 86.1891 135.479 86.2014 135.46C86.2082 135.449 86.2118 135.446 86.2113 135.446ZM46.4496 189.456C46.5239 185.544 46.5494 181.225 46.5741 176.695L46.2612 176.693C46.2365 181.223 46.211 185.54 46.1368 189.45L46.4496 189.456ZM45.6934 203.163C45.9214 201.437 46.0863 199.347 46.2073 196.97L45.8948 196.954C45.7741 199.327 45.6096 201.408 45.3832 203.122C45.1564 204.839 44.8686 206.177 44.5054 207.072L44.7953 207.189C45.174 206.257 45.4657 204.886 45.6934 203.163Z" fill="#1081B0"/>
  <path d="M44.6504 207.131C53.2544 205.254 82.7591 206.036 85.8458 207.914C71.714 209.947 48.2797 208.758 44.6504 207.131Z" fill="#42447C"/>
  <path fill-rule="evenodd" clip-rule="evenodd" d="M62.8491 212.821C60.4816 211.283 59.1875 209.481 58.5893 207.998C58.2722 207.212 58.1536 206.523 58.1676 206.015C58.1745 205.76 58.2145 205.562 58.2705 205.422C58.3275 205.28 58.3902 205.225 58.4266 205.206C58.8794 204.972 59.3852 205.063 59.9392 205.478C60.4977 205.897 61.0532 206.615 61.5309 207.503C62.4006 209.122 62.9576 211.202 62.8491 212.821ZM60.3146 204.977C59.6506 204.48 58.8837 204.266 58.1399 204.65C57.9241 204.761 57.7802 204.964 57.6899 205.189C57.5986 205.416 57.5504 205.692 57.542 205.997C57.5253 206.609 57.6669 207.384 58.009 208.232C58.6952 209.933 60.1998 211.96 62.942 213.618C63.0309 213.672 63.1407 213.678 63.235 213.634C63.3294 213.591 63.3959 213.503 63.4126 213.401C63.7147 211.549 63.0796 209.064 62.0821 207.207C61.5819 206.277 60.9741 205.472 60.3146 204.977Z" fill="#444779"/>
  <path fill-rule="evenodd" clip-rule="evenodd" d="M62.4627 213.457C58.9007 214.673 55.9498 214.427 53.9162 213.682C52.8562 213.294 52.0518 212.772 51.5372 212.257C51.0062 211.727 50.8408 211.266 50.8916 210.986C51.0159 210.302 51.4564 209.753 52.156 209.398C52.8609 209.041 53.8278 208.885 54.9641 209.018C57.148 209.272 59.9082 210.59 62.4627 213.457ZM51.8731 208.84C51.0272 209.269 50.4406 209.969 50.276 210.874C50.1684 211.465 50.5209 212.126 51.0947 212.7C51.6849 213.29 52.572 213.856 53.7009 214.269C55.9638 215.099 59.2238 215.327 63.1085 213.891C63.2043 213.856 63.2767 213.776 63.3027 213.677C63.3286 213.578 63.3046 213.473 63.2385 213.395C60.5199 210.193 57.4921 208.683 55.0366 208.396C53.8105 208.253 52.7135 208.414 51.8731 208.84Z" fill="#444779"/>
  <path d="M97.742 40.7792C105.272 30.6762 114.363 44.1064 112.452 48.7914C111.568 50.9566 103.737 67.4157 102.812 71.1992C102.033 74.3852 106.226 103.479 106.226 103.479L92.1903 104.652C92.1903 104.652 85.3362 86.0126 88.0766 69.4567C89.6665 59.8515 94.4698 45.1696 97.742 40.7792Z" fill="#EC6C47"/>
  <path d="M132.754 39.5065C125.405 30.7115 108.671 29.3666 99.0067 39.5063C93.2163 45.5814 100.275 67.9823 92.1939 104.946L139.775 102.16C134.658 75.0625 138.374 46.232 132.754 39.5065Z" fill="#EC6C47"/>
  <path fill-rule="evenodd" clip-rule="evenodd" d="M96.4591 62.5815C96.3727 62.5814 96.3025 62.6513 96.3024 62.7377C96.2869 70.6505 96.0288 80.3573 94.4083 91.7648C94.3962 91.8504 94.4557 91.9296 94.5412 91.9417C94.6268 91.9539 94.706 91.8944 94.7181 91.8088C96.3414 80.381 96.5998 70.6581 96.6152 62.7383C96.6154 62.6519 96.5455 62.5817 96.4591 62.5815Z" fill="#D5482A"/>
  <path d="M99.3212 104.312L90.4475 92.5873C90.4475 92.5873 123.929 90.1749 124.353 88.9432C124.719 87.881 119.161 47.1301 119.161 41.9296C119.161 33.7856 127.154 34.6871 129.176 36.1546C141.94 45.413 146.452 90.0696 141.464 98.4495C134.157 110.724 99.3212 104.312 99.3212 104.312Z" fill="#EC6C47"/>
  <path fill-rule="evenodd" clip-rule="evenodd" d="M121.278 61.9567C121.192 61.9671 121.131 62.0451 121.142 62.1309C121.421 64.4308 121.708 66.7692 121.988 69.0585C122.472 73.0081 122.939 76.8114 123.318 80.0176C123.618 82.5498 123.863 84.7085 124.021 86.2718C124.1 87.0537 124.156 87.6853 124.186 88.1397C124.202 88.3672 124.21 88.5483 124.212 88.6809C124.212 88.7473 124.211 88.7995 124.209 88.8382C124.208 88.861 124.206 88.8755 124.205 88.8837C124.204 88.8839 124.204 88.8841 124.204 88.8843C124.193 88.8935 124.174 88.9071 124.142 88.9242C124.079 88.9582 123.983 88.9965 123.853 89.038C123.593 89.1205 123.219 89.2082 122.743 89.2997C121.792 89.4826 120.453 89.6774 118.855 89.8769C115.659 90.276 111.436 90.6928 107.225 91.0713C103.014 91.4497 98.8164 91.7897 95.6712 92.0351C94.0987 92.1578 92.7893 92.2568 91.8732 92.3252C91.4151 92.3594 91.0553 92.3859 90.81 92.4038C90.6874 92.4128 90.5934 92.4197 90.53 92.4243L90.4356 92.4311L90.4345 92.4312C90.4342 92.4312 90.4341 92.4312 90.4453 92.5872C90.4566 92.7433 90.4567 92.7433 90.4569 92.7432L90.6474 92.7294C90.6991 92.7256 90.7611 92.7211 90.8329 92.7159C91.0783 92.6979 91.4382 92.6714 91.8964 92.6372C92.8129 92.5688 94.1226 92.4697 95.6956 92.347C98.8414 92.1016 103.041 91.7615 107.253 91.3829C111.465 91.0043 115.692 90.5871 118.894 90.1874C120.494 89.9876 121.841 89.7918 122.802 89.607C123.282 89.5147 123.67 89.4243 123.948 89.3362C124.086 89.2923 124.202 89.2471 124.29 89.1998C124.335 89.1761 124.376 89.1496 124.411 89.1192C124.444 89.0897 124.48 89.0487 124.499 88.9941C124.513 88.9536 124.518 88.9034 124.521 88.8581C124.524 88.8084 124.525 88.7476 124.525 88.6772C124.523 88.5362 124.514 88.3485 124.499 88.1189C124.468 87.6591 124.411 87.0234 124.332 86.2405C124.174 84.6743 123.929 82.5133 123.629 79.9808C123.249 76.774 122.783 72.9695 122.299 69.0194C122.018 66.7302 121.731 64.3922 121.452 62.0932C121.442 62.0074 121.364 61.9463 121.278 61.9567ZM90.4453 92.5872L90.4566 92.7433C90.3704 92.7495 90.2955 92.6847 90.2893 92.5985C90.2831 92.5123 90.3479 92.4374 90.4341 92.4312L90.4453 92.5872ZM141.738 66.1815C141.653 66.1958 141.596 66.2765 141.61 66.3617C142.766 73.2531 143.334 80.1911 143.29 85.9439C143.269 88.8204 143.094 91.3979 142.766 93.5235C142.437 95.6531 141.955 97.3144 141.327 98.3694C139.532 101.386 136.033 103.272 131.755 104.393C127.48 105.513 122.456 105.862 117.651 105.827C112.848 105.793 108.272 105.375 104.895 104.967C103.207 104.762 101.82 104.56 100.854 104.409C100.372 104.333 99.9947 104.27 99.7385 104.226C99.6104 104.205 99.5124 104.187 99.4466 104.176C99.4137 104.17 99.3888 104.165 99.3722 104.162L99.3535 104.159L99.3489 104.158L99.3478 104.158C99.3475 104.158 99.3474 104.158 99.3191 104.312C99.2908 104.466 99.2909 104.466 99.2912 104.466L99.2973 104.467L99.3165 104.47C99.3334 104.473 99.3586 104.478 99.3919 104.484C99.4583 104.496 99.5569 104.513 99.6857 104.535C99.9433 104.579 100.322 104.642 100.806 104.718C101.774 104.869 103.165 105.072 104.858 105.277C108.241 105.687 112.83 106.106 117.649 106.14C122.467 106.175 127.522 105.825 131.834 104.695C136.142 103.566 139.738 101.651 141.596 98.5295C142.255 97.4219 142.744 95.7125 143.075 93.5713C143.407 91.4261 143.581 88.8327 143.603 85.9463C143.647 80.1732 143.078 73.217 141.919 66.3099C141.904 66.2247 141.824 66.1672 141.738 66.1815ZM99.1652 104.283C99.1496 104.368 99.2058 104.45 99.2908 104.466L99.3191 104.312L99.3474 104.158C99.2624 104.142 99.1809 104.198 99.1652 104.283Z" fill="#D5482A"/>
  <path d="M90.4458 92.5879C93.6404 94.6341 99.1267 100.604 99.3184 104.312C96.6829 103.227 91.9792 98.6012 90.4458 92.5879Z" fill="#3E4981"/>
  <path d="M78.2486 94.5807C81.326 92.2492 92.1911 94.0136 92.1911 94.0136C94.5676 95.9149 98.0533 99.8763 99.0039 102.728C99.0039 102.728 93.9339 101.143 88.8639 103.203C86.9152 103.995 88.2577 101.749 88.8639 101.143C90.9236 99.0838 69.3766 101.302 78.2486 94.5807Z" fill="#F1B09B"/>
  <path d="M119.172 11.6978C116.575 10.3662 111.337 6.78962 111.164 3.13605C111.744 4.79438 114.159 8.82838 119.172 11.6978Z" fill="#444779"/>
  <path d="M120.222 13.2642C117.894 11.5045 113.352 7.07791 113.811 3.44918C114.097 5.18281 115.779 9.57288 120.222 13.2642Z" fill="#444779"/>
  <path d="M125.604 12.0826C134.205 17.0898 126.249 24.8142 121.944 28.1657C117.128 24.3334 124.363 20.7404 123.04 20.3436C121.717 19.9468 119.272 21.0777 111.69 17.0131C110.815 16.5439 110.134 16.0356 109.615 15.5028C106.539 12.3435 108.737 6.29814 110.767 4.45226C111.757 7.27013 114.666 9.2534 117.232 10.1785C116.308 9.47098 114.313 6.96444 115.939 4.45226C118.34 8.88551 121.85 9.89757 125.604 12.0826Z" fill="#05185A"/>
  <path d="M109.739 38.7363C111.352 40.4133 118.132 41.5513 122.916 38.7363C123.577 37.4183 120.534 25.2665 122.662 23.785C126.616 21.0317 122.411 18.1538 120.065 19.1793C118.657 19.7949 117.405 18.7793 116.466 17.9971C112.587 14.4929 110.416 13.1412 109.739 14.555C104.421 25.662 108.283 29.1082 109.507 30.3601C109.97 30.8328 110.09 32.3988 110.046 34.2181C109.997 36.2531 108.577 37.5284 109.739 38.7363Z" fill="#F1B09B"/>
  <path fill-rule="evenodd" clip-rule="evenodd" d="M122.055 18.9277C121.368 18.7527 120.628 18.7625 120.002 19.0361C119.35 19.3213 118.732 19.2321 118.154 18.97C117.571 18.7058 117.04 18.2714 116.569 17.8791C114.631 16.1286 113.106 14.9033 111.976 14.2943C111.412 13.9907 110.925 13.8281 110.523 13.8475C110.318 13.8574 110.133 13.9146 109.974 14.025C109.816 14.1349 109.692 14.2917 109.598 14.4876C106.931 20.0582 106.554 23.7315 107.016 26.1824C107.454 28.5049 108.642 29.7074 109.29 30.3621C109.327 30.3997 109.362 30.4355 109.396 30.4697C109.486 30.5621 109.571 30.7212 109.643 30.9534C109.715 31.1828 109.771 31.4695 109.811 31.8032C109.892 32.4704 109.911 33.3081 109.89 34.2145C109.871 34.9787 109.655 35.6249 109.456 36.2235C109.397 36.4001 109.339 36.5727 109.288 36.7429C109.179 37.1098 109.102 37.4695 109.134 37.8214C109.167 38.1799 109.313 38.5188 109.626 38.845C110.056 39.292 110.812 39.6874 111.758 39.9889C112.709 40.2919 113.871 40.5054 115.13 40.5772C117.645 40.7206 120.569 40.2989 122.995 38.8713L123.035 38.8479L123.056 38.8066C123.111 38.6973 123.139 38.5486 123.154 38.3817C123.17 38.2109 123.172 38.005 123.164 37.7711C123.148 37.303 123.091 36.7091 123.011 36.0343C122.931 35.3588 122.828 34.5983 122.72 33.7962L122.719 33.7936C122.611 32.9918 122.497 32.1481 122.394 31.3032C122.188 29.6101 122.029 27.9202 122.053 26.5637C122.065 25.8851 122.123 25.2974 122.24 24.8376C122.359 24.373 122.532 24.0663 122.751 23.9135C123.758 23.2122 124.272 22.4852 124.408 21.7897C124.544 21.0898 124.292 20.4557 123.842 19.96C123.393 19.4664 122.743 19.1027 122.055 18.9277ZM124.101 21.7298C123.986 22.3162 123.542 22.9815 122.572 23.6568C122.26 23.8744 122.062 24.2714 121.937 24.7602C121.811 25.2536 121.752 25.8686 121.74 26.5582C121.716 27.938 121.877 29.6463 122.083 31.341C122.186 32.188 122.301 33.0335 122.409 33.8347L122.41 33.8382C122.518 34.641 122.621 35.3987 122.7 36.071C122.78 36.7439 122.836 37.3272 122.851 37.7818C122.859 38.0091 122.857 38.2009 122.843 38.3537C122.832 38.4789 122.813 38.5684 122.792 38.6276C120.443 39.9943 117.606 40.405 115.147 40.2648C113.911 40.1944 112.776 39.9849 111.853 39.6908C110.925 39.3952 110.228 39.0196 109.852 38.6281C109.584 38.3502 109.472 38.0767 109.446 37.7928C109.419 37.5023 109.482 37.1895 109.588 36.8322C109.634 36.6785 109.688 36.5169 109.745 36.3474C109.947 35.7435 110.183 35.0382 110.202 34.2221C110.224 33.3092 110.205 32.4543 110.122 31.7655C110.08 31.4212 110.022 31.114 109.942 30.86C109.863 30.6088 109.76 30.3949 109.619 30.2509C109.586 30.2168 109.551 30.1811 109.514 30.1438C108.875 29.4979 107.744 28.3524 107.323 26.1244C106.878 23.7625 107.229 20.1592 109.88 14.6227C109.955 14.4652 110.047 14.3549 110.153 14.2819C110.257 14.2093 110.383 14.1675 110.538 14.16C110.854 14.1448 111.279 14.274 111.828 14.5697C112.921 15.1589 114.421 16.3608 116.362 18.1134L116.364 18.1155L116.366 18.1174C116.834 18.5068 117.396 18.9702 118.025 19.255C118.659 19.5424 119.372 19.6532 120.128 19.3228C120.675 19.0836 121.34 19.0686 121.978 19.2309C122.615 19.3931 123.209 19.7287 123.61 20.1705C124.01 20.6103 124.214 21.1477 124.101 21.7298Z" fill="#EC8E67"/>
  <path d="M119.592 30.3604C117.913 31.9126 112.559 30.9395 109.505 30.3603C109.967 30.833 110.087 32.399 110.043 34.2183C113.078 34.0087 118.296 33.1059 119.592 30.3604Z" fill="#EC8E67"/>
  <path d="M52.3193 106.072L33.5469 73.2207H77.0979C77.544 73.2207 77.9563 73.4581 78.1802 73.8439L96.4345 105.29L52.3193 106.072Z" fill="#1C43AE"/>
  <path d="M78.1802 73.8437L96.4345 105.29H108.245C108.807 105.29 109.262 104.835 109.262 104.273C109.262 103.712 108.807 103.256 108.245 103.256H97.0602L79.2734 71.9761C79.051 71.5849 78.6356 71.3433 78.1855 71.3433H37.7426C37.5551 71.3433 37.37 71.3854 37.201 71.4665L33.5469 73.2205H77.0979C77.544 73.2205 77.9563 73.4579 78.1802 73.8437Z" fill="#0F2E9A"/>
</svg>
