<?xml version="1.0" encoding="UTF-8"?>
<svg width="100pt" height="100pt" version="1.1" viewBox="0 0 100 100" xmlns="http://www.w3.org/2000/svg">
 <g fill="#3b70fd">
  <path d="m33.121 80.262c0.90625 0.51562 1.7148-0.82422 0.8125-1.3789-13.941-8.082-21.355-25.051-17.797-40.746 2.6602 34.824 53.102 33.699 54.121-1.3047 0.007813-15.008-12.293-27.203-27.297-27.074 29.859-8.2578 56.504 20.934 45.602 50.309-3.6367-5.3828-11.512-7.8984-17.383-4.7852-5.1953 2.3789-7.6133 9.1484-4.5742 14.035 3.8398 6.0391 14.973 2.8242 14.734-4.4453-0.058594-1.8203-0.92969-3.5664-2.5312-4.4961-1.4336-0.83203-3.3945-1.0039-4.7422 0.058594-0.60156 0.47656 0.054688 1.4453 0.72656 1.25 5.9648-1.8789 7.1016 7.0273-0.16797 8.9844-9.1406 2.2109-11.02-11-1.832-14.605 8.1289-2.3516 16.344 3.1836 16.773 11.73-0.050781 6.8164 2.3125 7.8945 6.1172 12.801 4.8477 8.7617-3.9102 10.809-10.848 11.016-8.6758 0.23047-17.363 0.125-26.043-0.03125 3.8164-2.0938 3.5391-5.043-0.86328-5.8086-1.7656-0.29297-3.5703-0.054687-5.3047 0.30859-3.8164 0.80469-7.3594 2.4961-11.043 3.7109-5.4375 1.8008-11.141 1.7109-16.809 1.6797l-0.003907-0.003906c1.7617-0.55469 3.4102-1.4219 4.8711-2.5547 1.3555-1.0781 2.5117-2.5234 4.1211-3.25 2.4219-1.0938 5.6953-0.28125 7.5273-2.5898 1.8711-2.6641 0.046876-5.2031 3.4531-8.5078 3.0195-2.9062 7.5742-2.9219 11.164-1.1094 0.59375 0.30078 1.1406-0.082031 1.2188-0.69922 0.38281-3.1328 2.832-5.2266 5.7344-6.0859 0.61719-0.21875 0.55859-1.1992-0.16016-1.1914-3.293 0.042969-6.1016 3.0234-6.9609 6.1094-5.7031-2.7031-13.391-0.046876-14.801 6.4609-0.32031 1.5273-0.019531 3.5625-1.5078 4.5352-1.1758 0.76953-2.7969 0.75391-4.1406 0.97656v0.003906c-1.457 0.22266-2.8281 0.82422-3.9805 1.7422-1.4297 1.1289-2.6289 2.4805-4.2227 3.3984-3.5078 2.0195-7.7188 2.3242-11.672 2.6094-0.25391 0.011719-0.48828 0.14844-0.625 0.36328-0.92969-0.066406-1.1172 1.2852-0.14062 1.3633 3.6914 0.23828 7.4375 0.058594 11.137 0.039063 3.5781-0.019531 7.1797 0.027344 10.73-0.46484 6.7188-0.79688 12.598-4.9961 19.379-5.3867 0.89453-0.082031 4.0352 0.22656 3.9375 1.3867-1.3164 1.7656-3.6406 2.5547-5.7695 2.8281-0.25391 0.023438-0.47656 0.17969-0.57812 0.41016-0.34375 0.35547-0.36328 1.0312 0.25 1.1172 2.5898 0.36328 5.3086 0.23438 7.9219 0.26172 2.6445 0.027343 5.293 0.039062 7.9414 0.039062 9.1445-0.38672 35.504 3.3359 27.602-13.281-1.3203-2.4102-3.8516-4.1328-5.043-6.6719-1.3477-2.6484-0.67188-5.8008-1.418-8.6211h-0.003906c-0.26562-1-0.64062-1.9688-1.1172-2.8867 14.07-33.469-21.809-67.168-53.852-51.012-0.37109 0.18359-0.53906 0.61719-0.39453 1.0039 0.14844 0.38281 0.5625 0.59375 0.96094 0.48438 37.484-8.0664 45.289 47.688 6.8516 50.023-16.051 0.19141-28.5-15.359-24.879-30.973 0.21094-0.93359-1.1445-1.3672-1.5195-0.48438-4.1641 9.6875-4.1328 21.168 0.035156 30.848-3.1484-0.60156-6.0352 1.2266-7.5703 4.5195-3.6445 0.86328-1.9414 3.3008-4.4336 4.5664-0.83594 0.40625-1.75 0.625-2.6797 0.64062-1.0508 0.015625-1.0547 1.582 0 1.6016h22.02c2.6211 2.8359 5.6406 5.2734 8.9648 7.2344z"/>
  <path d="m43.156 33.93c-0.003906 0.38672 0.26562 0.72266 0.64453 0.79687l3.4922 0.69531c1.2578 0.34766 2.2383 1.5938 2.4414 3.1172l0.81641 6.0742c0.050781 0.39844 0.39062 0.69531 0.79297 0.69531 0.39844 0 0.73828-0.29688 0.79297-0.69531l0.8125-6.0742c0.20312-1.5117 1.1719-2.7539 2.418-3.1094l3.5664-0.44922c0.38672-0.050781 0.67578-0.37109 0.69141-0.76172 0.015625-0.38672-0.24609-0.73047-0.625-0.8125l-3.0938-0.65234c-1.5664-0.27734-2.6445-1.5078-2.8828-3.293l-0.88672-6.6523c-0.12109-0.91016-1.4609-0.91797-1.5859 0l-0.88672 6.6523c-0.23047 1.7461-1.3008 2.8867-2.9883 3.2148l-2.8516 0.48047v-0.003906c-0.37891 0.066406-0.66016 0.39062-0.66797 0.77734z"/>
  <path d="m23.418 41.871 2.8242 0.5625c0.95703 0.26562 1.707 1.2266 1.8633 2.3984l0.66016 4.9219c0.125 0.91016 1.4609 0.91406 1.5859 0l0.66016-4.9219c0.15625-1.1602 0.89062-2.1133 1.8359-2.3906l2.8789-0.36328 0.003907 0.003906c0.38281-0.054687 0.67188-0.375 0.6875-0.76172 0.019531-0.38672-0.24609-0.73047-0.625-0.81641l-2.5078-0.53125c-1.2031-0.21094-2.0352-1.1602-2.2188-2.5391l-0.71875-5.3867c-0.12109-0.91016-1.4609-0.91797-1.5859 0l-0.71875 5.3906c-0.17969 1.3438-1 2.2227-2.2969 2.4766l-2.3047 0.38672c-0.85938 0.13281-0.88281 1.4141-0.023437 1.5703z"/>
  <path d="m42.453 26.156c0.015625-0.39062-0.25-0.73828-0.63281-0.81641l-2.125-0.44922c-0.98047-0.16797-1.6328-0.91797-1.7812-2.0508l-0.60937-4.5664c-0.12109-0.91016-1.4609-0.91797-1.5859 0l-0.60938 4.5664c-0.30859 2.1602-2.1445 1.9922-3.8008 2.3242-0.37891 0.070313-0.65625 0.39453-0.66016 0.77734-0.007813 0.38281 0.26172 0.71875 0.63672 0.79688l2.3867 0.47656c0.76562 0.21484 1.3594 0.98828 1.4844 1.9297l0.55859 4.168h0.003906c0.050781 0.39844 0.39062 0.69531 0.79297 0.69531 0.39844 0 0.73828-0.29687 0.79297-0.69531l0.55859-4.168c0.125-0.93359 0.71094-1.6992 1.4609-1.9219l2.4297-0.30469v-0.003907c0.38672-0.046874 0.68359-0.37109 0.69922-0.75781z"/>
  <path d="m11.934 27.09c1.0625 0.058594 1.1758-1.5195 0.11719-1.6133-1.0664-0.0625-1.1797 1.5195-0.11719 1.6133z"/>
  <path d="m30.68 15.395c1.0625 0.058594 1.1758-1.5195 0.11719-1.6133-1.0625-0.0625-1.1758 1.5156-0.11719 1.6133z"/>
  <path d="m47.531 26.34c0.058594-1.0625-1.5195-1.1758-1.6133-0.11719-0.058594 1.0625 1.5195 1.1758 1.6133 0.11719z"/>
  <path d="m39.445 47.273c-0.058593 1.0625 1.5195 1.1758 1.6133 0.11719 0.058594-1.0625-1.5195-1.1758-1.6133-0.11719z"/>
  <path d="m61.707 42.398c0.058594-1.0625-1.5195-1.1758-1.6133-0.11719-0.058594 1.0625 1.5195 1.1758 1.6133 0.11719z"/>
 </g>
</svg>
