<svg width="18" height="21" viewBox="0 0 18 21" fill="none" xmlns="http://www.w3.org/2000/svg">
<g id="notification">
<path id="Shape" fill-rule="evenodd" clip-rule="evenodd" d="M13.2364 15.0854H4.2363V8.58513C4.2363 6.08503 6.23631 4.08496 8.73633 4.08496C11.2364 4.08496 13.2364 6.08503 13.2364 8.58513V15.0854ZM15.2383 14.0855V8.58527C15.2383 5.51516 13.0983 2.94507 10.2383 2.26504V1.58502C10.2383 0.756558 9.56671 0.0849609 8.73828 0.0849609C7.90985 0.0849609 7.23828 0.756558 7.23828 1.58502V2.26504C4.36828 2.94507 2.23828 5.51516 2.23828 8.58527V14.0855L0.238281 16.0855V17.0856H17.2383V16.0855L15.2383 14.0855ZM8.73822 20.085C9.84278 20.085 10.7382 19.1896 10.7382 18.085H6.73824C6.73824 19.1896 7.63366 20.085 8.73822 20.085Z" fill="#F4F5F9"/>
</g>
</svg>
