<svg width="24" height="24" viewBox="0 0 24 24" fill="none" xmlns="http://www.w3.org/2000/svg">
<g className="recieveIcon">
<path d="M8.0004 15.2C7.84217 15.2 7.6875 15.2469 7.55594 15.3348C7.42438 15.4227 7.32184 15.5477 7.26129 15.6939C7.20074 15.84 7.1849 16.0009 7.21577 16.1561C7.24664 16.3113 7.32283 16.4538 7.43471 16.5657C7.54659 16.6776 7.68914 16.7538 7.84432 16.7846C7.99951 16.8155 8.16036 16.7997 8.30654 16.7391C8.45272 16.6786 8.57767 16.576 8.66557 16.4445C8.75348 16.3129 8.8004 16.1582 8.8004 16C8.8004 15.7878 8.71611 15.5843 8.56608 15.4343C8.41605 15.2843 8.21257 15.2 8.0004 15.2ZM17.6484 12L18.6324 11.016C19.0818 10.566 19.3343 9.956 19.3343 9.32C19.3343 8.684 19.0818 8.074 18.6324 7.624L16.3684 5.368C15.9184 4.91856 15.3084 4.66611 14.6724 4.66611C14.0364 4.66611 13.4264 4.91856 12.9764 5.368L12.0004 6.352C11.9878 5.72384 11.7294 5.12565 11.2807 4.68589C10.832 4.24613 10.2287 3.99987 9.6004 4H6.4004C5.76388 4 5.15343 4.25286 4.70334 4.70294C4.25325 5.15303 4.0004 5.76348 4.0004 6.4V17.6C4.0004 18.2365 4.25325 18.847 4.70334 19.2971C5.15343 19.7471 5.76388 20 6.4004 20H17.6004C18.2369 20 18.8474 19.7471 19.2975 19.2971C19.7475 18.847 20.0004 18.2365 20.0004 17.6V14.4C20.0005 13.7717 19.7543 13.1684 19.3145 12.7197C18.8748 12.271 18.2766 12.0126 17.6484 12ZM10.4004 17.6C10.4004 17.8122 10.3161 18.0157 10.1661 18.1657C10.0161 18.3157 9.81257 18.4 9.6004 18.4H6.4004C6.18822 18.4 5.98474 18.3157 5.83471 18.1657C5.68468 18.0157 5.6004 17.8122 5.6004 17.6V6.4C5.6004 6.18783 5.68468 5.98434 5.83471 5.83431C5.98474 5.68429 6.18822 5.6 6.4004 5.6H9.6004C9.81257 5.6 10.0161 5.68429 10.1661 5.83431C10.3161 5.98434 10.4004 6.18783 10.4004 6.4V17.6ZM12.0004 8.608L14.1124 6.496C14.2623 6.347 14.465 6.26337 14.6764 6.26337C14.8877 6.26337 15.0905 6.347 15.2404 6.496L17.5044 8.8C17.6534 8.94989 17.737 9.15265 17.737 9.364C17.737 9.57535 17.6534 9.77811 17.5044 9.928L15.2004 12.232L12.0004 15.392V8.608ZM18.4004 17.6C18.4004 17.8122 18.3161 18.0157 18.1661 18.1657C18.0161 18.3157 17.8126 18.4 17.6004 18.4H11.8564C11.9385 18.1629 11.9843 17.9148 11.9924 17.664L16.0564 13.6H17.6004C17.8126 13.6 18.0161 13.6843 18.1661 13.8343C18.3161 13.9843 18.4004 14.1878 18.4004 14.4V17.6Z" fill="white"/>
</g>
</svg>
