<svg width="24" height="25" viewBox="0 0 24 25" fill="none" xmlns="http://www.w3.org/2000/svg">
<g id="rout">
<path id="Vector" d="M19.2727 14.714H17.8182V12.5322C17.8182 12.3393 17.7416 12.1544 17.6052 12.018C17.4688 11.8816 17.2838 11.805 17.0909 11.805L12.7273 11.805L12.7273 10.3504H14.1818C14.3747 10.3504 14.5597 10.2738 14.6961 10.1374C14.8325 10.001 14.9091 9.81602 14.9091 9.62314V5.2595C14.9091 5.06661 14.8325 4.88163 14.6961 4.74524C14.5597 4.60885 14.3747 4.53223 14.1818 4.53223H9.81818C9.6253 4.53223 9.44031 4.60885 9.30392 4.74524C9.16753 4.88163 9.09091 5.06661 9.09091 5.2595V9.62314C9.09091 9.81602 9.16753 10.001 9.30392 10.1374C9.44031 10.2738 9.6253 10.3504 9.81818 10.3504H11.2727V11.805H6.90909C6.71621 11.805 6.53122 11.8816 6.39483 12.018C6.25844 12.1544 6.18182 12.3393 6.18182 12.5322L6.18182 14.714H4.72727C4.53439 14.714 4.3494 14.7907 4.21301 14.9271C4.07662 15.0634 4 15.2484 4 15.4413V19.805C4 19.9978 4.07662 20.1828 4.21301 20.3192C4.3494 20.4556 4.53439 20.5322 4.72727 20.5322H9.09091C9.28379 20.5322 9.46878 20.4556 9.60517 20.3192C9.74156 20.1828 9.81818 19.9978 9.81818 19.805V15.4413C9.81818 15.2484 9.74156 15.0634 9.60517 14.9271C9.46878 14.7907 9.28379 14.714 9.09091 14.714H7.63636L7.63636 13.2595L16.3636 13.2595V14.714H14.9091C14.7162 14.714 14.5312 14.7907 14.3948 14.9271C14.2584 15.0634 14.1818 15.2484 14.1818 15.4413V19.805C14.1818 19.9978 14.2584 20.1828 14.3948 20.3192C14.5312 20.4556 14.7162 20.5322 14.9091 20.5322H19.2727C19.4656 20.5322 19.6506 20.4556 19.787 20.3192C19.9234 20.1828 20 19.9978 20 19.805L20 15.4413C20 15.2484 19.9234 15.0634 19.787 14.9271C19.6506 14.7907 19.4656 14.714 19.2727 14.714ZM8.36364 16.1686V19.0777H5.45455V16.1686H8.36364ZM10.5455 8.89586V5.98677H13.4545V8.89586H10.5455ZM18.5455 19.0777H15.6364V16.1686H18.5455V19.0777Z" fill="white"/>
</g>
</svg>
