<svg width="287" height="272" viewBox="0 0 287 272" fill="none" xmlns="http://www.w3.org/2000/svg">
<rect y="0.847412" width="286.775" height="270.941" rx="20.2326" fill="#ECECEC"/>
<rect x="17.5938" y="18.441" width="214.642" height="109.08" rx="16.7139" fill="white"/>
<circle cx="49.7025" cy="50.5493" r="21.5521" fill="#DDDDDD"/>
<rect x="84.4492" y="42.1924" width="96.7647" height="6.15775" rx="3.07888" fill="#DDDDDD"/>
<rect x="84.4492" y="52.7485" width="36.9465" height="6.15775" rx="3.07888" fill="#DDDDDD"/>
<rect x="28.1504" y="87.9357" width="146.027" height="6.15775" rx="3.07888" fill="#DDDDDD"/>
<rect x="28.1504" y="99.3715" width="146.027" height="6.15775" rx="3.07888" fill="#DDDDDD"/>
<rect x="28.1504" y="110.807" width="36.9465" height="6.15775" rx="3.07888" fill="#DDDDDD"/>
<rect x="17.5938" y="145.115" width="214.642" height="109.08" rx="16.7139" fill="white"/>
<circle cx="49.7025" cy="177.223" r="21.5521" fill="#DDDDDD"/>
<rect x="84.4492" y="168.866" width="96.7647" height="6.15775" rx="3.07888" fill="#DDDDDD"/>
<rect x="84.4492" y="179.422" width="36.9465" height="6.15775" rx="3.07888" fill="#DDDDDD"/>
<rect x="28.1504" y="214.609" width="146.027" height="6.15775" rx="3.07888" fill="#DDDDDD"/>
<rect x="28.1504" y="226.045" width="146.027" height="6.15775" rx="3.07888" fill="#DDDDDD"/>
<rect x="28.1504" y="237.481" width="36.9465" height="6.15775" rx="3.07888" fill="#DDDDDD"/>
</svg>
