<?xml version="1.0" encoding="UTF-8"?>
<svg width="100pt" height="100pt" version="1.1" viewBox="0 0 100 100" xmlns="http://www.w3.org/2000/svg">
 <g>
  <path d="m5 0h90c2.7617 0 5 2.7617 5 5v90c0 2.7617-2.2383 5-5 5h-90c-2.7617 0-5-2.7617-5-5v-90c0-2.7617 2.2383-5 5-5z" fill="#3b70fd"/>
  <path d="m75.582 61.574c-0.51953-0.46484-1.2109-2.7188-1.9648-2.7188-0.75391 0-1.4453 2.2539-1.9688 2.7188-0.60547 0.53906-3.9375 1.3281-3.9375 2.1992 0 0.75391 3.2383 1.4453 3.7031 1.9688 0.53906 0.60547 1.3281 6.8867 2.1992 6.8867 0.75391 0 1.4453-6.1875 1.9688-6.6562 0.60547-0.53906 1.9688-1.3281 1.9688-2.1992 0-0.87109-1.3633-1.6562-1.9688-2.1992z" fill="#fff"/>
  <path d="m64.938 39.531 0.60938 0.60938 7.1523-7.1641c1.8516-1.8398 2.7461-3.4844 3-5.4922 0.15625-1.25-0.039063-2.1367-0.57031-2.6289-0.95312-0.89453-3.1289-0.71875-4.832-0.43359 0.1875 0.51172 0.28516 1.1211 0.27734 1.7812 0 0.86719-0.19531 2.5078-1.4453 3.7383-1.2891 1.2695-2.2617 1.6914-3 1.6914-0.5625 0-0.97266-0.23437-1.2773-0.54297-0.95312-0.96484-0.40234-2.1641 0-3.0391 0.36328-0.77734 0.69922-1.5039 0.46094-2.2148-0.058594-0.1875-0.19531-0.38281-0.40234-0.58984-2.0352 0.33594-3.9648 1.2695-5.5898 2.7148l-3.4062 3.0312c0.54297 0.29687 1.0547 0.64844 1.5156 1.0625 0.15625 0.13672 0.31641 0.27734 0.46094 0.42187l0.69922 0.69922c0.070312 0.070313 0.12891 0.14844 0.16797 0.23438 0.050782 0.089844 0.078126 0.17578 0.097657 0.27734 0.070312 0.30469-0.03125 0.64062-0.26562 0.875l-4.8711 4.8711 1.2891 1.2891c0.050782-0.10938 0.11719-0.20703 0.19531-0.28516l6.8867-6.8867c0.38281-0.38281 1.0117-0.38281 1.3984 0 0.38281 0.38281 0.38281 1.0117 0 1.3984l-6.8867 6.8867c-0.089843 0.078124-0.1875 0.14844-0.28516 0.19531l1.0234 1.0312h0.011718c0.13672-0.33594 0.35547-0.66016 0.62891-0.93359l2.6094-2.6094c1.1992-1.1797 3.1484-1.1797 4.3477 0.011719z" fill="#fff"/>
  <path d="m62.469 41.074c0.070312-0.050781 0.13672-0.097657 0.19531-0.13672 0.089844-0.070312 0.19531-0.12891 0.29688-0.17578 0.019531-0.011719 0.03125-0.019531 0.050781-0.03125 0.058593-0.03125 0.10938-0.058594 0.16797-0.078125-0.011719 0-0.03125 0-0.039063 0.011718-0.11719-0.039062-0.24609-0.058593-0.375-0.058593-0.28516 0-0.5625 0.10938-0.77734 0.32422l-2.6094 2.6094c-0.29688 0.29688-0.39453 0.70703-0.28516 1.082v0.019531c0.019531-0.039063 0.039062-0.078125 0.058594-0.11719l0.011718-0.011719c0.050782-0.089844 0.10938-0.17578 0.17578-0.26562 0.089844-0.12891 0.1875-0.24609 0.29688-0.35547l2.6094-2.6094c0.074218-0.078125 0.14062-0.14844 0.22266-0.20703z" fill="#fff"/>
  <path d="m64.945 42.5h-0.011718c-0.42188-0.24609-0.95312-0.17578-1.3008 0.17578l-2.6094 2.6094c-0.10938 0.10938-0.1875 0.22656-0.24609 0.36328-0.070313 0.16797-0.097656 0.36328-0.070313 0.55078 0.011719 0.10938 0.039063 0.21484 0.089844 0.31641l0.011719 0.011719 3.9844 3.9961c1.7422-2.3203 1.8398-5.5898 0.14844-8.0117z" fill="#fff"/>
  <path d="m56.496 33.883c-0.76562-0.76562-1.6641-1.3203-2.6875-1.6641-2.1758-0.72656-4.5156-0.33594-6.3086 1.0117l4.8203 4.8203z" fill="#fff"/>
  <path d="m68.605 26.168c0-0.62891-0.12891-1.1602-0.28516-1.3398 0-0.011719-0.011718-0.011719-0.011718-0.011719-0.089844 0.019532-0.17578 0.039063-0.26562 0.050782-0.20703 0.039062-0.40234 0.078124-0.58203 0.11719l-0.35156 0.0625v0.011719c0.019531 0.058594 0.039063 0.097656 0.058594 0.15625 0.49219 1.457-0.097657 2.7344-0.53125 3.6719-0.10938 0.22656-0.25391 0.55078-0.32422 0.75781 0.1875-0.089843 0.64844-0.32422 1.4375-1.1016 0.65234-0.63281 0.85547-1.5898 0.85547-2.375z" fill="#fff"/>
  <path d="m56.238 44.746-4.3477-4.3477c-0.019531-0.019532-0.03125-0.03125-0.050781-0.039063-0.52344-0.48047-1.3477-0.46094-1.8594 0.039063l-1.832 1.832 6.2695 6.2578 1.8203-1.8203c0.51172-0.51172 0.53125-1.3281 0.050781-1.8594-0.011718-0.023438-0.03125-0.042969-0.050781-0.0625z" fill="#fff"/>
  <path d="m50 50h-4.9219l1.9688-3.9375s-7.1719 4.25-9.8398 4.9219c-0.76562 0.19531-1.4766 0.33594-2.1562 0.46094 0.12109-0.46094 0.1875-0.94531 0.1875-1.4453 0-3.2578-2.6484-5.9023-5.9023-5.9023-3.2578 0-5.9023 2.6484-5.9023 5.9023 0 1.625 0.64844 3.0898 1.7109 4.1523-1.5664 0.51953-2.6953 1.9766-2.6953 3.7188 0 1.9766 1.4648 3.6016 3.375 3.8789-2.0586 1.6211-3.375 4.1328-3.375 6.9453 0 4.8906 3.9648 8.8555 8.8555 8.8555 1.1016 0 2.1641-0.21484 3.1406-0.58203 0.84375 0.375 1.7773 0.58203 2.7617 0.58203 3.4453 0 6.2891-2.5273 6.8008-5.8242 0.66016-0.83594 1.0703-1.8789 1.0703-3.0312 0-0.34375-0.039063-0.66797-0.097656-0.99219 0.03125 0 0.058593 0.011719 0.097656 0.011719 1.6328 0 2.9531-1.3203 2.9531-2.9531 0-1.6328-1.3203-2.9531-2.9531-2.9531-1.4453 0-2.6484 1.043-2.8945 2.4102-0.61719-0.27734-1.3047-0.44141-2.0234-0.44141-0.17578 0-0.34375 0.03125-0.51172 0.050781 0.83594-2.1172 1.957-4.1953 3.4648-5.957 1.2891-1.5039 6.8867-7.8711 6.8867-7.8711zm-18.027 3.9844 2.9531-0.98438c0.52344-0.16797 1.0742 0.10938 1.25 0.62109 0.16797 0.52344-0.10938 1.0742-0.62109 1.25l-2.9531 0.98438c-0.10547 0.027343-0.21484 0.046875-0.3125 0.046875-0.41406 0-0.79687-0.25391-0.93359-0.66797-0.16797-0.51953 0.10547-1.0703 0.61719-1.25zm1.6836 4.0938 4.9219-3.8281c0.42188-0.33594 1.043-0.25391 1.3789 0.17578 0.33594 0.42188 0.25391 1.043-0.17578 1.3789l-4.9219 3.8281c-0.17969 0.13672-0.39844 0.20703-0.60547 0.20703-0.29688 0-0.58203-0.12891-0.77734-0.38281-0.33203-0.42578-0.25391-1.043 0.17969-1.3789zm2.5664 4.7148c-0.25391 0-0.5-0.097657-0.69922-0.28516-0.38281-0.38281-0.38281-1.0117 0-1.3984l2.9531-2.9531c0.38281-0.38281 1.0117-0.38281 1.3984 0 0.38281 0.38281 0.38281 1.0117 0 1.3984l-2.9531 2.9531c-0.19531 0.1875-0.44141 0.28516-0.69922 0.28516zm4.9219-8.3047c-0.29688 0-0.58203-0.13672-0.77734-0.38281-0.33594-0.43359-0.25391-1.043 0.17578-1.3789l1.9688-1.5352c0.42188-0.33594 1.043-0.25391 1.3789 0.17578 0.33594 0.42187 0.25391 1.043-0.17578 1.3789l-1.9688 1.5234c-0.17969 0.14844-0.39453 0.21875-0.60156 0.21875z" fill="#fff"/>
  <path d="m33.273 28.352c0 5.25-7.875 5.25-7.875 0 0-5.2461 7.875-5.2461 7.875 0" fill="#fff"/>
  <path d="m40.16 36.223c0 2.625-3.9375 2.625-3.9375 0 0-2.6211 3.9375-2.6211 3.9375 0" fill="#fff"/>
 </g>
</svg>
