<svg width="24" height="25" viewBox="0 0 24 25" fill="none" xmlns="http://www.w3.org/2000/svg">
<g id="star">
<path id="Vector" d="M21.9936 9.76634C21.9305 9.58342 21.8156 9.42276 21.663 9.30384C21.5103 9.18491 21.3264 9.11283 21.1336 9.09634L15.4436 8.26634L12.8936 3.09634C12.8117 2.92727 12.6839 2.78468 12.5247 2.68491C12.3655 2.58514 12.1815 2.53223 11.9936 2.53223C11.8058 2.53223 11.6217 2.58514 11.4625 2.68491C11.3034 2.78468 11.1755 2.92727 11.0936 3.09634L8.54363 8.25634L2.85363 9.09634C2.66855 9.12264 2.49455 9.2003 2.35138 9.32049C2.20821 9.44069 2.10159 9.59861 2.04363 9.77634C1.99057 9.95001 1.98581 10.1349 2.02986 10.311C2.0739 10.4872 2.16509 10.6481 2.29363 10.7763L6.42363 14.7763L5.42363 20.4563C5.38326 20.6448 5.39818 20.8408 5.46661 21.021C5.53505 21.2011 5.65407 21.3576 5.80936 21.4717C5.96465 21.5858 6.1496 21.6526 6.34196 21.6641C6.53432 21.6755 6.72589 21.6312 6.89363 21.5363L11.9936 18.8663L17.0936 21.5363C17.234 21.6155 17.3925 21.6569 17.5536 21.6563C17.7655 21.6571 17.972 21.5906 18.1436 21.4663C18.2988 21.3552 18.4189 21.202 18.4898 21.0248C18.5606 20.8476 18.5793 20.6538 18.5436 20.4663L17.5436 14.7863L21.6736 10.7863C21.818 10.664 21.9247 10.5032 21.9814 10.3227C22.038 10.1421 22.0423 9.94921 21.9936 9.76634ZM15.8436 13.7663C15.7279 13.8787 15.6411 14.0175 15.5906 14.1707C15.5401 14.324 15.5274 14.4871 15.5536 14.6463L16.2736 18.8463L12.5136 16.8463C12.3675 16.774 12.2067 16.7364 12.0436 16.7364C11.8806 16.7364 11.7198 16.774 11.5736 16.8463L7.81363 18.8463L8.53363 14.6463C8.55987 14.4871 8.5472 14.324 8.4967 14.1707C8.4462 14.0175 8.35937 13.8787 8.24363 13.7663L5.24363 10.7663L9.45363 10.1563C9.61563 10.1338 9.76963 10.0719 9.90213 9.97599C10.0346 9.8801 10.1416 9.75317 10.2136 9.60634L11.9936 5.79634L13.8736 9.61634C13.9457 9.76317 14.0526 9.8901 14.1851 9.98599C14.3176 10.0819 14.4716 10.1438 14.6336 10.1663L18.8436 10.7763L15.8436 13.7663Z" fill="white"/>
</g>
</svg>
