<svg xmlns="http://www.w3.org/2000/svg" width="111" height="207" viewBox="0 0 111 207" fill="none">
  <path d="M58.2369 182.402L58.0781 154.071L76.6201 155.079C76.6201 161.752 78.0568 171.318 78.0568 171.318L58.2369 182.402Z" fill="#F26AAA"/>
  <path d="M58.0781 154.072L76.872 155.457V159.612L58.0781 160.997V154.072Z" fill="#3F4785"/>
  <path d="M75.831 166.282C66.7084 164.413 70.4282 176.47 58.1168 170.125L58.1168 186.031C58.1168 187.429 59.2408 188.559 60.6389 188.549C68.5855 188.491 92.8538 188.316 97.5276 188.316C117.004 188.316 90.5955 169.307 75.831 166.282Z" fill="#355FB3"/>
  <path d="M60.6391 188.549C68.5858 188.49 92.8541 188.316 97.5278 188.316C102.831 188.316 104.733 186.906 104.393 184.794C97.5408 181.02 75.8312 184.794 74.4789 183.283C69.1402 175.728 61.3465 176.274 58.1171 177.491L58.1171 186.03C58.1171 187.428 59.2411 188.559 60.6391 188.549Z" fill="white"/>
  <path fill-rule="evenodd" clip-rule="evenodd" d="M101.679 187.888C101.66 187.822 101.7 187.752 101.766 187.733C102.784 187.448 103.46 187.041 103.856 186.551C104.248 186.064 104.375 185.481 104.267 184.813C104.256 184.745 104.303 184.68 104.372 184.669C104.44 184.658 104.505 184.705 104.516 184.773C104.633 185.5 104.496 186.158 104.052 186.709C103.611 187.255 102.88 187.683 101.834 187.976C101.768 187.994 101.698 187.955 101.679 187.888Z" fill="#260500"/>
  <path fill-rule="evenodd" clip-rule="evenodd" d="M77.2663 167.175C79.5232 165.724 80.755 164.015 81.3224 162.608C81.6205 161.869 81.7328 161.219 81.7195 160.737C81.7128 160.495 81.6749 160.305 81.6202 160.169C81.5647 160.031 81.5009 159.969 81.4551 159.946C81.0128 159.718 80.5228 159.81 79.9977 160.204C79.4689 160.601 78.9461 161.277 78.4981 162.111C77.6705 163.652 77.1432 165.641 77.2663 167.175ZM79.6955 159.801C80.3091 159.341 81.0092 159.149 81.6859 159.498C81.876 159.596 82.0053 159.776 82.0876 159.981C82.1706 160.188 82.2152 160.441 82.2229 160.723C82.2385 161.288 82.1076 162.007 81.7895 162.796C81.1515 164.378 79.751 166.267 77.194 167.813C77.1225 167.857 77.0341 167.862 76.9581 167.827C76.8822 167.791 76.8286 167.721 76.8152 167.638C76.5344 165.919 77.1244 163.604 78.0544 161.873C78.5205 161.005 79.0854 160.259 79.6955 159.801Z" fill="#3F4785"/>
  <path fill-rule="evenodd" clip-rule="evenodd" d="M77.5965 167.715C80.9615 168.877 83.7514 168.648 85.6732 167.944C86.6688 167.579 87.4264 167.088 87.9124 166.602C88.4116 166.103 88.5785 165.659 88.5272 165.377C88.4083 164.724 87.9869 164.2 87.3231 163.864C86.6551 163.525 85.7425 163.379 84.6741 163.504C82.6088 163.745 80.0016 164.996 77.5965 167.715ZM87.5508 163.415C88.3323 163.811 88.8713 164.455 89.0227 165.287C89.1196 165.82 88.8023 166.425 88.2686 166.959C87.7217 167.505 86.8976 168.032 85.8466 168.417C83.7403 169.189 80.702 169.403 77.0779 168.064C77.0008 168.036 76.9425 167.971 76.9216 167.892C76.9007 167.812 76.92 167.728 76.9732 167.665C79.5097 164.677 82.3318 163.27 84.6157 163.004C85.7564 162.871 86.7737 163.021 87.5508 163.415Z" fill="#3F4785"/>
  <path fill-rule="evenodd" clip-rule="evenodd" d="M58.1159 185.904C58.1855 185.904 58.2418 185.961 58.2418 186.03C58.2418 187.359 59.3099 188.432 60.6371 188.423C68.5833 188.365 92.8523 188.19 97.5267 188.19C97.5962 188.19 97.6526 188.246 97.6526 188.316C97.6526 188.385 97.5962 188.442 97.5267 188.442C92.8535 188.442 68.5859 188.616 60.6389 188.675C59.17 188.685 57.99 187.497 57.99 186.03C57.99 185.961 58.0464 185.904 58.1159 185.904Z" fill="#260500"/>
  <path d="M56.7254 158.855H91.0332C91.1957 158.855 91.3285 158.761 91.2974 158.602C89.5288 149.518 84.211 49.4334 75.6124 0.585895L50.5557 0.457031C27.3877 17.83 49.1705 45.6627 51.5628 72.4821C53.1843 90.6599 57.2291 137.534 56.7254 158.855Z" fill="#355EBA"/>
  <path d="M50.5557 0.457031C27.3877 17.83 49.1705 45.6627 51.5628 72.4821C51.83 75.4766 52.1628 79.2499 52.5303 83.5595L82.3759 53.7138C80.4132 33.9753 78.1564 15.0381 75.6124 0.585895L50.5557 0.457031Z" fill="#48ACFA"/>
  <path fill-rule="evenodd" clip-rule="evenodd" d="M85.665 93.7596C85.8036 93.7483 85.9251 93.8516 85.9364 93.9902C86.8376 105.05 87.6443 115.522 88.3512 124.7C88.702 129.254 89.0282 133.489 89.3292 137.319C89.7832 143.095 90.1799 147.95 90.5173 151.591C90.8557 155.241 91.1327 157.648 91.3448 158.546C91.3767 158.681 91.2929 158.817 91.1576 158.849C91.0222 158.881 90.8866 158.797 90.8546 158.662C90.6325 157.721 90.3527 155.271 90.0158 151.637C89.6781 147.993 89.2811 143.134 88.8271 137.358C88.526 133.527 88.1997 129.291 87.8489 124.737C87.142 115.56 86.3356 105.09 85.4344 94.0311C85.4231 93.8925 85.5264 93.7709 85.665 93.7596Z" fill="#3F487F"/>
  <path d="M56.7266 158.855H63.1481C70.4511 142.864 82.035 113.526 86.0642 94.1359C85.9926 93.3836 85.7588 91.3689 85.6865 90.6104L56.7266 158.855Z" fill="#3F4785"/>
  <path d="M53.198 71.3482C42.3192 99.6534 23.9863 120.412 16.1797 127.253L40.9845 179.004C53.4918 166.035 80.1434 128.966 86.6908 84.4435C90.5941 49.8174 84.4245 16.0699 75.6106 0.582282C75.6106 0.582282 55.8422 0.207553 55.5904 0.711204C49.7984 31.6857 57.2272 37.9814 57.605 41.8847C57.9827 45.788 56.8495 62.6602 53.198 71.3482Z" fill="#48ACFA"/>
  <path fill-rule="evenodd" clip-rule="evenodd" d="M53.2902 71.113C53.42 71.1629 53.4848 71.3086 53.4349 71.4384C42.5395 99.7868 24.1804 120.578 16.3475 127.443C16.2429 127.534 16.0838 127.524 15.9921 127.419C15.9005 127.315 15.9109 127.156 16.0155 127.064C23.7958 120.246 42.1026 99.5197 52.9648 71.2577C53.0147 71.1279 53.1604 71.0631 53.2902 71.113Z" fill="#3F487F"/>
  <path fill-rule="evenodd" clip-rule="evenodd" d="M54.3558 8.78503C54.4853 8.83582 54.5491 8.98195 54.4983 9.11142C51.5376 16.6598 52.3621 23.8395 53.9368 29.6349C54.688 32.3995 55.6084 34.8442 56.3694 36.8652C56.4062 36.9631 56.4427 37.0599 56.4787 37.1558C56.8683 38.1914 57.2116 39.1142 57.4572 39.9011C57.7013 40.683 57.8573 41.3557 57.8573 41.8847C57.8573 43.855 57.6679 49.0582 57.0216 54.8569C56.376 60.6494 55.2715 67.066 53.4307 71.4458C53.3768 71.574 53.2292 71.6343 53.101 71.5804C52.9728 71.5265 52.9125 71.3789 52.9664 71.2506C54.7771 66.9424 55.8761 60.5881 56.5211 54.8011C57.1654 49.0204 57.3537 43.8358 57.3537 41.8847C57.3537 41.4373 57.2186 40.8268 56.9764 40.0512C56.7359 39.2805 56.3979 38.3713 56.0073 37.3331C55.9709 37.2361 55.9339 37.138 55.8966 37.0389C55.1363 35.0197 54.2084 32.5552 53.4508 29.7669C51.8607 23.9148 51.0144 16.6146 54.0295 8.92752C54.0802 8.79804 54.2264 8.73425 54.3558 8.78503Z" fill="#3F487F"/>
  <path d="M16.1797 127.254C31.6671 130.525 47.5321 179.256 40.3549 179.256C19.5964 179.256 18.572 144.504 16.1797 127.254Z" fill="#260500"/>
  <path d="M29.9033 140.346C29.9033 140.346 22.2227 127.503 16.0529 127.251L6.73047 135.309L21.5939 152.811C24.8952 145.395 26.7133 144.167 29.9033 140.346Z" fill="#F26AAA"/>
  <path d="M29.9055 140.346C29.9055 140.346 22.2248 127.503 16.0551 127.251L14.9219 128.231C18.2017 129.961 25.5529 135.083 28.7185 141.731C29.095 141.3 29.4885 140.845 29.9055 140.346Z" fill="#3F4785"/>
  <path d="M25.249 145.76C22.7308 136.795 13.2873 143.494 13.2873 129.644L1.1412 139.383C0.404136 139.974 0.0582492 140.921 0.248938 141.846C2.7549 154.007 7.61596 176.904 9.25809 182.023C10.6393 186.329 15.1129 191.107 17.0647 190.403C23.31 190.358 25.1231 160.623 25.249 145.76Z" fill="#355FB3"/>
  <path d="M0.248938 141.847C2.7549 154.007 7.61596 176.904 9.25809 182.024C10.6393 186.33 15.1129 191.108 17.0647 190.404C13.5391 182.667 8.3767 163.893 9.25809 157.849C11.7763 145.257 9.71977 136.425 8.3767 133.582L1.1412 139.384C0.404136 139.975 0.0582492 140.922 0.248938 141.847Z" fill="white"/>
  <path fill-rule="evenodd" clip-rule="evenodd" d="M8.47213 133.502C8.51564 133.556 8.50692 133.636 8.45267 133.679L2.53477 138.425C2.48051 138.468 2.40127 138.46 2.35776 138.405C2.31426 138.351 2.32297 138.272 2.37723 138.228L8.29513 133.483C8.34938 133.439 8.42863 133.448 8.47213 133.502Z" fill="#260500"/>
  <path fill-rule="evenodd" clip-rule="evenodd" d="M1.23644 139.305C1.27995 139.36 1.27124 139.439 1.21698 139.482C0.516426 140.044 0.188228 140.943 0.369274 141.822C1.06349 145.19 1.93846 149.383 2.87566 153.794C2.89011 153.862 2.84669 153.929 2.77867 153.943C2.71064 153.958 2.64378 153.914 2.62933 153.846C1.69202 149.435 0.816941 145.242 0.122631 141.873C-0.0776994 140.9 0.285876 139.906 1.05944 139.286C1.1137 139.242 1.19294 139.251 1.23644 139.305ZM6.09889 169.184C6.16673 169.169 6.23411 169.212 6.24939 169.28C7.56746 175.133 8.72524 179.96 9.375 181.986C9.64025 182.813 10.0215 183.659 10.4786 184.481C10.5124 184.542 10.4905 184.619 10.4297 184.653C10.3689 184.686 10.2923 184.665 10.2585 184.604C9.7949 183.77 9.40642 182.908 9.13521 182.063C8.48127 180.024 7.32091 175.184 6.00371 169.335C5.98844 169.267 6.03105 169.2 6.09889 169.184ZM13.944 189.066C13.9892 189.013 14.0687 189.007 14.1216 189.052C14.6992 189.545 15.2578 189.918 15.759 190.135C16.2626 190.352 16.6903 190.404 17.019 190.286C17.0844 190.262 17.1565 190.296 17.1801 190.361C17.2037 190.427 17.1698 190.499 17.1044 190.523C16.6887 190.672 16.1887 190.594 15.6591 190.366C15.127 190.136 14.5469 189.747 13.958 189.244C13.9052 189.199 13.8989 189.119 13.944 189.066Z" fill="#260500"/>
  <path fill-rule="evenodd" clip-rule="evenodd" d="M25.0879 146.231C27.4119 147.572 29.4952 147.884 31.0056 147.744C31.7992 147.67 32.4282 147.472 32.8506 147.24C33.0622 147.123 33.214 147.002 33.31 146.891C33.4073 146.779 33.4329 146.694 33.4329 146.642C33.4329 146.145 33.1261 145.752 32.5354 145.465C31.9407 145.177 31.0996 145.022 30.1531 145.006C28.4047 144.976 26.3953 145.419 25.0879 146.231ZM32.7552 145.012C33.4453 145.347 33.9366 145.881 33.9366 146.642C33.9366 146.856 33.8353 147.054 33.691 147.221C33.5453 147.389 33.3408 147.545 33.0936 147.681C32.5983 147.954 31.8993 148.167 31.0521 148.245C29.3537 148.403 27.0332 148.024 24.4872 146.459C24.4159 146.415 24.3711 146.339 24.3674 146.256C24.3638 146.172 24.4019 146.092 24.4691 146.042C25.8692 145.005 28.1969 144.469 30.1617 144.502C31.1464 144.519 32.069 144.679 32.7552 145.012Z" fill="#3F4785"/>
  <path fill-rule="evenodd" clip-rule="evenodd" d="M24.7571 146.769C25.2658 150.292 26.7469 152.667 28.2535 154.053C29.0339 154.771 29.8172 155.219 30.4719 155.429C31.1444 155.644 31.6156 155.588 31.8426 155.414C32.3689 155.009 32.6413 154.394 32.6361 153.65C32.6309 152.901 32.3427 152.023 31.7424 151.131C30.5819 149.405 28.2756 147.661 24.7571 146.769ZM33.1397 153.647C33.1458 154.523 32.8199 155.297 32.1498 155.813C31.7207 156.143 31.0375 156.138 30.3185 155.908C29.5818 155.673 28.7365 155.181 27.9126 154.424C26.2614 152.905 24.6792 150.302 24.2089 146.468C24.1989 146.386 24.2293 146.305 24.2904 146.25C24.3515 146.195 24.4356 146.173 24.5157 146.192C28.3342 147.077 30.8769 148.942 32.1603 150.85C32.8013 151.802 33.1337 152.776 33.1397 153.647Z" fill="#3F4785"/>
</svg>
