<svg xmlns="http://www.w3.org/2000/svg" width="97" height="108" viewBox="0 0 97 108" fill="none">
  <path d="M45.0983 29.2436C47.3393 24.1214 42.1778 17.0219 41.4589 13.3375C16.0095 6.65168 25.1486 27.3565 30.81 36.7922L38.089 37.601L38.4385 33.7039C38.4385 32.6138 43.5886 32.6944 45.0983 29.2436Z" fill="#F1B09B"/>
  <path fill-rule="evenodd" clip-rule="evenodd" d="M41.4341 13.2138C41.5024 13.2005 41.5685 13.245 41.5818 13.3132C41.753 14.1903 42.1821 15.2712 42.7097 16.4888C42.8565 16.8277 43.0109 17.1769 43.1689 17.5347C43.5765 18.4569 44.0089 19.4351 44.4011 20.4366C44.4265 20.5014 44.3946 20.5744 44.3298 20.5998C44.2651 20.6252 44.192 20.5932 44.1667 20.5285C43.7765 19.5324 43.3476 18.5619 42.9408 17.6413C42.7821 17.2824 42.6269 16.9311 42.4786 16.5889C41.9521 15.3736 41.5118 14.2691 41.3347 13.3615C41.3213 13.2932 41.3659 13.2271 41.4341 13.2138ZM45.3567 23.8641C45.4248 23.8496 45.4917 23.8929 45.5062 23.9609C45.9011 25.8103 45.9331 27.6482 45.2131 29.2939C44.6816 30.5087 43.7139 31.2934 42.684 31.8431C41.8414 32.2929 40.9469 32.5902 40.2079 32.8358C40.0461 32.8896 39.8918 32.9409 39.7471 32.9908C39.6813 33.0134 39.6096 32.9785 39.587 32.9128C39.5643 32.847 39.5992 32.7754 39.665 32.7527C39.8141 32.7013 39.9715 32.6489 40.1354 32.5944C40.874 32.3488 41.7436 32.0596 42.5654 31.6209C43.5668 31.0864 44.4817 30.3373 44.9824 29.193C45.673 27.6143 45.649 25.8359 45.2599 24.0135C45.2454 23.9455 45.2887 23.8786 45.3567 23.8641Z" fill="#EC8E65"/>
  <path d="M38.44 33.7041L38.0904 37.6012L35.72 37.3378C35.4972 37.3407 35.2556 37.3116 34.9902 37.2567L35.72 37.3378C36.9018 37.3224 37.5569 36.409 38.44 33.7041Z" fill="#EC8E65"/>
  <path d="M48.7575 72.0502C48.7575 91.7995 41.7109 107.809 33.0184 107.809C24.3259 107.809 17.2793 91.7995 17.2793 72.0502C17.2793 52.301 24.3259 36.291 33.0184 36.291C56.69 36.291 48.7575 52.301 48.7575 72.0502Z" fill="#F6BC33"/>
  <path d="M48.7573 77.4643L43.9727 65.7544L47.876 83.8858L48.7573 77.4643Z" fill="#D89B0E"/>
  <path d="M83.0331 23.742L82.3486 24.7667L93.5958 26.2957L90.59 20.8833L89.7492 24.8301L83.2883 23.6342C83.1893 23.6159 83.089 23.6583 83.0331 23.742Z" fill="#F0E898"/>
  <path d="M81.3168 24.5359L80.1017 26.8408L93.073 26.025L81.5747 24.404C81.4695 24.3892 81.3663 24.442 81.3168 24.5359Z" fill="#D5482A"/>
  <path d="M72.8595 43.9163L80.2348 26.5766L93.0537 25.9433L84.9 45.0514L74.1473 45.7506C73.1675 45.8125 72.341 44.857 72.8595 43.9163Z" fill="#EC6C47"/>
  <path d="M84.8354 45.1427L74.0828 45.8419C73.1029 45.9038 72.4039 44.9082 72.795 44.0076C72.9357 44.5331 74.3061 45.2782 78.6622 44.055C84.1073 42.526 83.9672 42.5972 86.1039 38.1395C87.8134 34.5734 90.6157 30.4366 91.8032 28.814L84.8354 45.1427Z" fill="#EC8E67"/>
  <path d="M93.0526 25.9444L84.8989 45.0525C85.549 45.5281 86.4725 45.2754 86.7899 44.535L94.8474 25.7401L93.0526 25.9444Z" fill="#B83013"/>
  <path d="M94.8482 25.7395L91.1085 20.8623C90.9061 20.5985 90.5081 20.5996 90.3073 20.8647L89.4055 22.055L93.0535 25.9438L94.8482 25.7395Z" fill="#D5482A"/>
  <path d="M94.8482 25.7395L91.1085 20.8623C90.9061 20.5985 90.5081 20.5996 90.3073 20.8647L89.4055 22.055C89.7467 21.906 90.5394 21.6295 90.6195 21.7526C90.6997 21.8757 94.8482 25.7395 94.8482 25.7395Z" fill="#EC6C47"/>
  <path d="M86.7516 53.237L75.0244 47.3063L60.8709 65.7727C58.4895 59.1675 52.6219 44.3673 48.2002 40.1621C42.8158 35.0413 31.7339 36.6293 37.5975 51.8904C39.4903 57.252 42.2772 64.3559 44.6955 70.8944C51.9746 90.5756 67.2063 84.2399 71.2501 81.0048C79.3379 74.5347 86.7516 53.237 86.7516 53.237Z" fill="#F6BC33"/>
  <path d="M75.024 47.3053C80.6854 51.8885 85.2684 54.4492 86.7511 53.2362C88.2338 52.0232 77.6641 47.9909 75.024 47.3053Z" fill="#D89B0E"/>
  <path d="M77.1796 37.8711C75.6968 39.4886 78.3929 41.1328 78.3929 44.2065C78.3929 44.8509 77.1856 47.3623 76.9101 48.2503C78.6829 49.3736 82.4709 51.8898 85.0318 51.8898C85.6718 51.0496 86.4591 50.1796 87.424 49.3024C92.9837 44.2481 92.6849 39.9193 92.4163 36.0285L92.4114 35.9576C92.1419 32.0485 90.9287 32.8573 88.2328 37.0359C85.6938 40.9714 82.4366 42.354 81.6278 41.6188C80.1451 40.2708 78.6623 36.2536 77.1796 37.8711Z" fill="#F1B09B"/>
  <path d="M85.0318 51.8897C82.471 51.8897 78.683 49.3735 76.9102 48.2502C77.0237 47.8842 77.3145 47.1719 77.3145 47.1719C77.3145 47.1719 84.0543 51.2577 85.537 51.2577C85.3592 51.47 85.1909 51.6808 85.0318 51.8897Z" fill="#EFF0EA"/>
  <path fill-rule="evenodd" clip-rule="evenodd" d="M92.4071 35.8952C92.4418 35.8928 92.4718 35.919 92.4742 35.9536C92.4759 35.9785 92.4776 36.0034 92.4794 36.0284C92.645 38.4283 92.8232 41.01 91.621 43.8271C91.6073 43.8591 91.5704 43.874 91.5384 43.8603C91.5064 43.8467 91.4915 43.8097 91.5052 43.7777C92.6955 40.9886 92.5191 38.433 92.3532 36.0294L92.3486 35.9623C92.3462 35.9276 92.3724 35.8976 92.4071 35.8952ZM89.936 46.5829C89.9638 46.6039 89.9692 46.6434 89.9482 46.6711C89.289 47.5419 88.4731 48.4341 87.4663 49.3493C86.5041 50.2241 85.7194 51.0913 85.0818 51.9283C85.0607 51.956 85.0212 51.9613 84.9936 51.9403C84.9659 51.9192 84.9606 51.8797 84.9816 51.852C85.624 51.0087 86.414 50.1359 87.3816 49.2562C88.3834 48.3455 89.1938 47.459 89.8479 46.5951C89.8688 46.5674 89.9083 46.5619 89.936 46.5829Z" fill="#3F487F"/>
  <path fill-rule="evenodd" clip-rule="evenodd" d="M75.1008 47.3417C75.1559 47.3842 75.1661 47.4633 75.1236 47.5183L60.9699 65.8509C60.9418 65.8873 60.8961 65.9055 60.8507 65.8984C60.8053 65.8912 60.7674 65.8599 60.7518 65.8167C59.4947 62.3298 57.2655 56.5581 54.7912 51.2699C54.7617 51.2069 54.7889 51.132 54.8519 51.1025C54.9149 51.0731 54.9898 51.1002 55.0193 51.1632C57.4475 56.353 59.6392 62.0053 60.9107 65.5155L74.9242 47.3644C74.9667 47.3094 75.0458 47.2992 75.1008 47.3417Z" fill="#D89B0E"/>
  <path fill-rule="evenodd" clip-rule="evenodd" d="M86.7938 53.1179C86.8595 53.1407 86.8942 53.2125 86.8713 53.2782L86.7524 53.2368L86.6335 53.1954C86.6564 53.1297 86.7281 53.095 86.7938 53.1179ZM86.7524 53.2368C86.6335 53.1954 86.6336 53.1952 86.6335 53.1954L86.6282 53.2106L86.6122 53.2562C86.5979 53.2966 86.5767 53.3566 86.5486 53.4352C86.4924 53.5924 86.409 53.824 86.2999 54.1211C86.0816 54.7154 85.7607 55.5718 85.3504 56.6197C84.5297 58.7157 83.3513 61.5776 81.9205 64.6411C80.4896 67.7049 78.8071 70.9686 76.9785 73.8691C75.1488 76.7714 73.1779 79.3018 71.1723 80.9063C71.118 80.9497 71.1092 81.0289 71.1526 81.0832C71.196 81.1375 71.2753 81.1463 71.3296 81.1029C73.3678 79.4723 75.3565 76.9141 77.1915 74.0034C79.0277 71.0909 80.7152 67.817 82.1486 64.7477C83.5823 61.678 84.7628 58.811 85.5849 56.7115C85.996 55.6617 86.3175 54.8037 86.5363 54.208C86.6456 53.9101 86.7294 53.6778 86.7858 53.5199C86.814 53.4409 86.8353 53.3806 86.8497 53.3399L86.8658 53.2939L86.8712 53.2785C86.8713 53.2783 86.8713 53.2782 86.7524 53.2368Z" fill="#D89B0E"/>
  <path d="M29.6778 52.0351C25.095 54.057 27.2512 60.9316 19.5678 62.8187C18.9619 62.9675 18.3572 63.0928 17.7559 63.1937L32.6432 36.397C36.2829 40.3042 34.2605 50.0131 29.6778 52.0351Z" fill="#3E4885"/>
  <path d="M32.6432 36.3976C34.6921 29.6047 31.7543 25.0655 30.4062 23.7174C30.4062 23.7174 28.2495 23.0435 28.2495 20.8867C28.2495 17.2203 32.6978 16.3037 34.4501 19.4117C35.1242 20.6074 36.6272 20.8773 37.4956 20.6284C39.9647 19.9209 41.756 19.1873 43.212 18.3257L42.9424 17.6517L37.2809 19.6737C36.2923 18.0112 33.5334 14.9828 30.4062 16.169C26.4973 17.6518 22.4789 29.3976 32.6432 36.3976Z" fill="#EC8E65"/>
  <path d="M30.7516 6.52085C42.8937 2.04631 46.2961 10.3696 46.4362 14.3883C43.4064 1.88765 30.9601 6.44451 30.7528 6.52041L30.7516 6.52085Z" fill="#3052A9"/>
  <path d="M46.5346 12.9669C46.0026 8.98121 39.6539 1.14645 28.7874 6.37423C28.9344 6.30354 42.2888 0.795059 46.5346 12.9669Z" fill="#3052A9"/>
  <path d="M32.3724 36.1276C34.4213 29.3347 31.4835 24.7955 30.1354 23.4475C30.1354 23.4475 27.9787 22.7735 27.9787 20.6168C27.9787 16.9503 32.427 16.0337 34.1793 19.1418C34.8534 20.3374 36.3564 20.6073 37.2248 20.3584C55.6118 15.0898 43.8846 4.30665 32.1574 6.46224C19.509 8.78717 16.4495 37.8818 10.131 37.8818C5.81754 37.8818 -1.54134 47.7107 1.28936 55.1245C4.12006 62.5382 11.6137 64.4365 19.2971 62.5494C26.9804 60.6622 24.8242 53.7877 29.407 51.7657C33.9897 49.7438 36.0121 40.0349 32.3724 36.1276Z" fill="#05185A"/>
  <path d="M10.4638 59.75C14.3088 60.9268 24.0761 58.4192 23.8506 46.3627C23.8536 46.5257 23.2979 60.961 10.4638 59.75Z" fill="#312E63"/>
  <path d="M8.97691 58.0824C12.2674 59.497 21.1586 58.223 22.1271 47.526C22.114 47.6707 20.2232 60.3982 8.97691 58.0824Z" fill="#312E63"/>
  <path d="M7.24131 57.3277C10.1928 58.5966 18.1681 57.4539 19.0368 47.8588C19.0251 47.9886 17.3291 59.4049 7.24131 57.3277Z" fill="#312E63"/>
  <path d="M27.1692 51.3499C34.0437 47.5756 32.4711 39.0386 31.213 36.6572C33.3698 45.9311 29.236 50.0469 26.63 51.0803C22.5322 61.6483 15.4869 62.493 12.7461 61.4596C20.9416 64.5868 25.1023 56.6968 27.1692 51.3499Z" fill="#312E63"/>
  <path d="M26.3642 50.5411C32.6187 45.9042 31.3966 39.443 30.0037 36.792C32.5918 44.664 28.566 48.8337 26.0948 50.1367C21.5657 59.7341 15.4907 61.5494 13.1543 61.0551C19.2202 62.3383 24.4772 54.9894 26.3642 50.5411Z" fill="#312E63"/>
</svg>
